Bitter-BlackItalic.ufo
<glyph name="exclam" format="2">
  <advance width="305"/>
  <unicode hex="0021"/>
  <guideline x="77" y="472" angle="261"/>
  <guideline x="292" y="472" angle="261"/>
  <outline>
    <contour>
      <point x="81" y="265" type="line"/>
      <point x="221" y="274" type="line"/>
      <point x="322" y="710" type="line"/>
      <point x="119" y="710" type="line"/>
    </contour>
    <contour>
      <point x="113" y="-15" type="curve" smooth="yes"/>
      <point x="179" y="-15"/>
      <point x="231" y="29"/>
      <point x="231" y="97" type="curve" smooth="yes"/>
      <point x="231" y="156"/>
      <point x="193" y="193"/>
      <point x="133" y="193" type="curve" smooth="yes"/>
      <point x="65" y="193"/>
      <point x="16" y="145"/>
      <point x="16" y="79" type="curve" smooth="yes"/>
      <point x="16" y="23"/>
      <point x="52" y="-15"/>
    </contour>
  </outline>
</glyph>
<glyph name="parenright" format="2">
  <advance width="327"/>
  <unicode hex="0029"/>
  <guideline x="-527" y="-118" angle="0"/>
  <guideline x="619" y="872" angle="0"/>
  <outline>
    <contour>
      <point x="-58" y="-78" type="curve"/>
      <point x="58" y="-163" type="line"/>
      <point x="230" y="14"/>
      <point x="337" y="254"/>
      <point x="337" y="501" type="curve" smooth="yes"/>
      <point x="337" y="645"/>
      <point x="300" y="784"/>
      <point x="220" y="905" type="curve"/>
      <point x="92" y="840" type="line"/>
      <point x="138" y="743"/>
      <point x="159" y="634"/>
      <point x="159" y="525" type="curve" smooth="yes"/>
      <point x="159" y="313"/>
      <point x="76" y="92"/>
    </contour>
  </outline>
</glyph>
<glyph name="asterisk" format="2">
  <advance width="405"/>
  <unicode hex="002A"/>
  <outline>
    <contour>
      <point x="286" y="404" type="line"/>
      <point x="377" y="470" type="line"/>
      <point x="313" y="561" type="line"/>
      <point x="261" y="567" type="line"/>
      <point x="242" y="513" type="line"/>
    </contour>
    <contour>
      <point x="174" y="404" type="line"/>
      <point x="242" y="513" type="line"/>
      <point x="236" y="567" type="line"/>
      <point x="182" y="563" type="line"/>
      <point x="91" y="470" type="line"/>
    </contour>
    <contour>
      <point x="185" y="563" type="line"/>
      <point x="234" y="590" type="line"/>
      <point x="219" y="644" type="line"/>
      <point x="121" y="688" type="line"/>
      <point x="70" y="580" type="line"/>
    </contour>
    <contour>
      <point x="258" y="607" type="line"/>
      <point x="306" y="643" type="line"/>
      <point x="333" y="760" type="line"/>
      <point x="225" y="758" type="line"/>
      <point x="223" y="644" type="line"/>
    </contour>
    <contour>
      <point x="316" y="561" type="line"/>
      <point x="431" y="582" type="line"/>
      <point x="413" y="692" type="line"/>
      <point x="302" y="643" type="line"/>
      <point x="277" y="594" type="line"/>
    </contour>
  </outline>
</glyph>
<glyph name="plus" format="2">
  <advance width="531"/>
  <unicode hex="002B"/>
  <outline>
    <contour>
      <point x="248" y="421" type="line"/>
      <point x="57" y="421" type="line"/>
      <point x="35" y="281" type="line"/>
      <point x="223" y="281" type="line"/>
      <point x="199" y="311" type="line"/>
      <point x="168" y="104" type="line"/>
      <point x="312" y="104" type="line"/>
      <point x="343" y="311" type="line"/>
      <point x="309" y="281" type="line"/>
      <point x="500" y="281" type="line"/>
      <point x="522" y="421" type="line"/>
      <point x="335" y="421" type="line"/>
      <point x="359" y="391" type="line"/>
      <point x="390" y="598" type="line"/>
      <point x="246" y="598" type="line"/>
      <point x="215" y="391" type="line"/>
    </contour>
  </outline>
</glyph>
<glyph name="hyphen" format="2">
  <advance width="407"/>
  <unicode hex="002D"/>
  <outline>
    <contour>
      <point x="382" y="368" type="line"/>
      <point x="56" y="368" type="line"/>
      <point x="32" y="218" type="line"/>
      <point x="359" y="218" type="line"/>
    </contour>
  </outline>
</glyph>
<glyph name="two" format="2">
  <advance width="575"/>
  <unicode hex="0032"/>
  <outline>
    <contour>
      <point x="-6" y="0" type="line"/>
      <point x="502" y="0" type="line"/>
      <point x="529" y="158" type="line"/>
      <point x="246" y="158" type="line"/>
      <point x="240" y="132" type="line"/>
      <point x="404" y="241"/>
      <point x="576" y="373"/>
      <point x="576" y="546" type="curve" smooth="yes"/>
      <point x="576" y="677"/>
      <point x="475" y="725"/>
      <point x="338" y="725" type="curve" smooth="yes"/>
      <point x="265" y="725"/>
      <point x="183" y="712"/>
      <point x="100" y="690" type="curve"/>
      <point x="85" y="486" type="line"/>
      <point x="202" y="486" type="line"/>
      <point x="237" y="589" type="line"/>
      <point x="210" y="555" type="line"/>
      <point x="239" y="566"/>
      <point x="270" y="573"/>
      <point x="296" y="573" type="curve" smooth="yes"/>
      <point x="336" y="573"/>
      <point x="366" y="556"/>
      <point x="366" y="510" type="curve" smooth="yes"/>
      <point x="366" y="394"/>
      <point x="175" y="279"/>
      <point x="19" y="174" type="curve"/>
    </contour>
  </outline>
</glyph>
<glyph name="three" format="2">
  <advance width="571"/>
  <unicode hex="0033"/>
  <outline>
    <contour>
      <point x="216" y="-15" type="curve" smooth="yes"/>
      <point x="404" y="-15"/>
      <point x="536" y="82"/>
      <point x="536" y="230" type="curve" smooth="yes"/>
      <point x="536" y="324"/>
      <point x="482" y="371"/>
      <point x="359" y="381" type="curve"/>
      <point x="375" y="363" type="line"/>
      <point x="496" y="376"/>
      <point x="577" y="450"/>
      <point x="577" y="560" type="curve" smooth="yes"/>
      <point x="577" y="683"/>
      <point x="477" y="725"/>
      <point x="347" y="725" type="curve" smooth="yes"/>
      <point x="274" y="725"/>
      <point x="185" y="712"/>
      <point x="97" y="684" type="curve"/>
      <point x="81" y="495" type="line"/>
      <point x="196" y="495" type="line"/>
      <point x="222" y="585" type="line"/>
      <point x="198" y="559" type="line"/>
      <point x="227" y="570"/>
      <point x="267" y="579"/>
      <point x="302" y="579" type="curve" smooth="yes"/>
      <point x="344" y="579"/>
      <point x="374" y="566"/>
      <point x="374" y="522" type="curve" smooth="yes"/>
      <point x="374" y="476"/>
      <point x="342" y="434"/>
      <point x="267" y="434" type="curve" smooth="yes"/>
      <point x="181" y="434" type="line"/>
      <point x="159" y="292" type="line"/>
      <point x="251" y="292" type="line" smooth="yes"/>
      <point x="281" y="292"/>
      <point x="339" y="292"/>
      <point x="339" y="233" type="curve" smooth="yes"/>
      <point x="339" y="173"/>
      <point x="280" y="143"/>
      <point x="206" y="143" type="curve" smooth="yes"/>
      <point x="155" y="143"/>
      <point x="97" y="157"/>
      <point x="48" y="181" type="curve"/>
      <point x="-16" y="43" type="line"/>
      <point x="49" y="7"/>
      <point x="127" y="-15"/>
    </contour>
  </outline>
</glyph>
<glyph name="four" format="2">
  <advance width="603"/>
  <unicode hex="0034"/>
  <guideline x="503" y="211" angle="261"/>
  <guideline x="308" y="231" angle="261"/>
  <outline>
    <contour>
      <point x="299" y="174" type="line"/>
      <point x="272" y="0" type="line"/>
      <point x="469" y="0" type="line"/>
      <point x="497" y="174" type="line"/>
      <point x="442" y="134" type="line"/>
      <point x="572" y="134" type="line"/>
      <point x="597" y="289" type="line"/>
      <point x="468" y="289" type="line"/>
      <point x="510" y="254" type="line"/>
      <point x="582" y="710" type="line"/>
      <point x="367" y="725" type="line"/>
      <point x="8" y="275" type="line"/>
      <point x="7" y="134" type="line"/>
      <point x="340" y="134" type="line"/>
    </contour>
    <contour>
      <point x="371" y="289" type="line"/>
      <point x="110" y="289" type="line"/>
      <point x="133" y="216" type="line"/>
      <point x="435" y="601" type="line"/>
      <point x="369" y="613" type="line"/>
      <point x="312" y="254" type="line"/>
    </contour>
  </outline>
</glyph>
<glyph name="six" format="2">
  <advance width="598"/>
  <unicode hex="0036"/>
  <outline>
    <contour>
      <point x="220" y="275" type="line"/>
      <point x="241" y="296"/>
      <point x="277" y="309"/>
      <point x="309" y="309" type="curve" smooth="yes"/>
      <point x="343" y="309"/>
      <point x="373" y="295"/>
      <point x="373" y="243" type="curve" smooth="yes"/>
      <point x="373" y="185"/>
      <point x="337" y="140"/>
      <point x="291" y="140" type="curve" smooth="yes"/>
      <point x="262" y="140"/>
      <point x="233" y="157"/>
      <point x="233" y="261" type="curve" smooth="yes"/>
      <point x="233" y="442"/>
      <point x="321" y="569"/>
      <point x="483" y="569" type="curve" smooth="yes"/>
      <point x="507" y="569"/>
      <point x="532" y="566"/>
      <point x="560" y="561" type="curve"/>
      <point x="586" y="713" type="line"/>
      <point x="548" y="722"/>
      <point x="511" y="726"/>
      <point x="474" y="726" type="curve" smooth="yes"/>
      <point x="217" y="726"/>
      <point x="28" y="527"/>
      <point x="28" y="271" type="curve" smooth="yes"/>
      <point x="28" y="58"/>
      <point x="155" y="-15"/>
      <point x="289" y="-15" type="curve" smooth="yes"/>
      <point x="447" y="-15"/>
      <point x="579" y="87"/>
      <point x="579" y="254" type="curve" smooth="yes"/>
      <point x="579" y="389"/>
      <point x="490" y="449"/>
      <point x="383" y="449" type="curve" smooth="yes"/>
      <point x="331" y="449"/>
      <point x="276" y="435"/>
      <point x="223" y="409" type="curve"/>
    </contour>
  </outline>
</glyph>
<glyph name="nine" format="2">
  <advance width="599"/>
  <unicode hex="0039"/>
  <outline>
    <contour>
      <point x="406" y="435" type="line"/>
      <point x="385" y="414"/>
      <point x="349" y="401"/>
      <point x="317" y="401" type="curve" smooth="yes"/>
      <point x="283" y="401"/>
      <point x="253" y="415"/>
      <point x="253" y="467" type="curve" smooth="yes"/>
      <point x="253" y="519"/>
      <point x="279" y="570"/>
      <point x="334" y="570" type="curve" smooth="yes"/>
      <point x="366" y="570"/>
      <point x="393" y="553"/>
      <point x="393" y="456" type="curve" smooth="yes"/>
      <point x="393" y="290"/>
      <point x="315" y="147"/>
      <point x="138" y="147" type="curve" smooth="yes"/>
      <point x="117" y="147"/>
      <point x="92" y="149"/>
      <point x="66" y="154" type="curve"/>
      <point x="39" y="0" type="line"/>
      <point x="79" y="-10"/>
      <point x="118" y="-14"/>
      <point x="154" y="-14" type="curve" smooth="yes"/>
      <point x="400" y="-14"/>
      <point x="598" y="178"/>
      <point x="598" y="439" type="curve" smooth="yes"/>
      <point x="598" y="652"/>
      <point x="466" y="725"/>
      <point x="340" y="725" type="curve" smooth="yes"/>
      <point x="191" y="725"/>
      <point x="47" y="623"/>
      <point x="47" y="454" type="curve" smooth="yes"/>
      <point x="47" y="321"/>
      <point x="136" y="261"/>
      <point x="243" y="261" type="curve" smooth="yes"/>
      <point x="295" y="261"/>
      <point x="350" y="275"/>
      <point x="403" y="301" type="curve"/>
    </contour>
  </outline>
</glyph>
<glyph name="greater" format="2">
  <advance width="514"/>
  <unicode hex="003E"/>
  <outline>
    <contour>
      <point x="121" y="603" type="line"/>
      <point x="59" y="464" type="line"/>
      <point x="348" y="350" type="line"/>
      <point x="353" y="386" type="line"/>
      <point x="23" y="259" type="line"/>
      <point x="70" y="115" type="line"/>
      <point x="487" y="289" type="line"/>
      <point x="508" y="433" type="line"/>
    </contour>
  </outline>
</glyph>
<glyph name="question" format="2">
  <advance width="464"/>
  <unicode hex="003F"/>
  <outline>
    <contour>
      <point x="109" y="266" type="curve"/>
      <point x="254" y="266" type="line"/>
      <point x="254" y="270"/>
      <point x="254" y="272"/>
      <point x="254" y="277" type="curve" smooth="yes"/>
      <point x="254" y="380"/>
      <point x="499" y="406"/>
      <point x="499" y="577" type="curve" smooth="yes"/>
      <point x="499" y="690"/>
      <point x="409" y="728"/>
      <point x="301" y="728" type="curve" smooth="yes"/>
      <point x="226" y="728"/>
      <point x="143" y="710"/>
      <point x="70" y="679" type="curve"/>
      <point x="104" y="547" type="line"/>
      <point x="144" y="563"/>
      <point x="200" y="580"/>
      <point x="242" y="580" type="curve" smooth="yes"/>
      <point x="274" y="580"/>
      <point x="297" y="570"/>
      <point x="297" y="539" type="curve" smooth="yes"/>
      <point x="297" y="456"/>
      <point x="105" y="441"/>
      <point x="105" y="304" type="curve" smooth="yes"/>
      <point x="105" y="284"/>
      <point x="109" y="272"/>
    </contour>
    <contour>
      <point x="164" y="-15" type="curve" smooth="yes"/>
      <point x="230" y="-15"/>
      <point x="282" y="29"/>
      <point x="282" y="97" type="curve" smooth="yes"/>
      <point x="282" y="156"/>
      <point x="244" y="193"/>
      <point x="184" y="193" type="curve" smooth="yes"/>
      <point x="116" y="193"/>
      <point x="67" y="145"/>
      <point x="67" y="79" type="curve" smooth="yes"/>
      <point x="67" y="23"/>
      <point x="103" y="-15"/>
    </contour>
  </outline>
</glyph>
<glyph name="B" format="2">
  <advance width="640"/>
  <unicode hex="0042"/>
  <guideline x="278" y="231" angle="261"/>
  <anchor x="279" y="0" name="bottom"/>
  <anchor x="392" y="710" name="top"/>
  <outline>
    <contour>
      <point x="377" y="344" type="line"/>
      <point x="523" y="344"/>
      <point x="633" y="419"/>
      <point x="633" y="553" type="curve" smooth="yes"/>
      <point x="633" y="711"/>
      <point x="478" y="710"/>
      <point x="416" y="710" type="curve" smooth="yes"/>
      <point x="344" y="710" type="line"/>
      <point x="100" y="705" type="line"/>
      <point x="84" y="605" type="line"/>
      <point x="158" y="571" type="line"/>
      <point x="139" y="600" type="line"/>
      <point x="60" y="105" type="line"/>
      <point x="84" y="131" type="line"/>
      <point x="4" y="100" type="line"/>
      <point x="-12" y="0" type="line"/>
      <point x="298" y="0" type="line" smooth="yes"/>
      <point x="485" y="0"/>
      <point x="607" y="86"/>
      <point x="607" y="226" type="curve" smooth="yes"/>
      <point x="607" y="335"/>
      <point x="533" y="374"/>
      <point x="384" y="371" type="curve"/>
    </contour>
    <contour>
      <point x="365" y="568" type="line" smooth="yes"/>
      <point x="395" y="568"/>
      <point x="432" y="568"/>
      <point x="432" y="511" type="curve" smooth="yes"/>
      <point x="432" y="430"/>
      <point x="354" y="430"/>
      <point x="323" y="430" type="curve" smooth="yes"/>
      <point x="282" y="430" type="line"/>
      <point x="305" y="398" type="line"/>
      <point x="336" y="600" type="line"/>
      <point x="300" y="568" type="line"/>
    </contour>
    <contour>
      <point x="292" y="143" type="curve" smooth="yes"/>
      <point x="222" y="143" type="line"/>
      <point x="257" y="105" type="line"/>
      <point x="294" y="331" type="line"/>
      <point x="258" y="290" type="line"/>
      <point x="338" y="290" type="line" smooth="yes"/>
      <point x="357" y="290"/>
      <point x="402" y="290"/>
      <point x="402" y="231" type="curve" smooth="yes"/>
      <point x="402" y="179"/>
      <point x="368" y="143"/>
    </contour>
  </outline>
</glyph>
<glyph name="D" format="2">
  <advance width="695"/>
  <unicode hex="0044"/>
  <guideline x="24" y="231" angle="261"/>
  <guideline x="282" y="231" angle="261"/>
  <guideline x="82" y="231" angle="261"/>
  <anchor x="272" y="0" name="bottom"/>
  <anchor x="213" y="356" name="center"/>
  <anchor x="364" y="710" name="top"/>
  <outline>
    <contour>
      <point x="412" y="710" type="curve" smooth="yes"/>
      <point x="354" y="710" type="line"/>
      <point x="100" y="705" type="line"/>
      <point x="84" y="605" type="line"/>
      <point x="158" y="571" type="line"/>
      <point x="139" y="600" type="line"/>
      <point x="60" y="105" type="line"/>
      <point x="84" y="131" type="line"/>
      <point x="4" y="100" type="line"/>
      <point x="-12" y="0" type="line"/>
      <point x="277" y="0" type="line" smooth="yes"/>
      <point x="548" y="0"/>
      <point x="686" y="195"/>
      <point x="686" y="430" type="curve" smooth="yes"/>
      <point x="686" y="617"/>
      <point x="598" y="710"/>
    </contour>
    <contour>
      <point x="313" y="145" type="curve" smooth="yes"/>
      <point x="238" y="145" type="line"/>
      <point x="257" y="105" type="line"/>
      <point x="336" y="600" type="line"/>
      <point x="301" y="565" type="line"/>
      <point x="383" y="565" type="line" smooth="yes"/>
      <point x="463" y="565"/>
      <point x="478" y="515"/>
      <point x="478" y="448" type="curve" smooth="yes"/>
      <point x="478" y="360"/>
      <point x="452" y="145"/>
    </contour>
  </outline>
</glyph>
<glyph name="F" format="2">
  <advance width="550"/>
  <unicode hex="0046"/>
  <guideline x="80" y="231" angle="261"/>
  <guideline x="278" y="231" angle="261"/>
  <anchor x="147" y="0" name="bottom"/>
  <anchor x="366" y="710" name="top"/>
  <outline>
    <contour>
      <point x="-12" y="0" type="line"/>
      <point x="314" y="0" type="line"/>
      <point x="329" y="100" type="line"/>
      <point x="242" y="132" type="line"/>
      <point x="257" y="105" type="line"/>
      <point x="291" y="320" type="line"/>
      <point x="257" y="285" type="line"/>
      <point x="461" y="285" type="line"/>
      <point x="482" y="430" type="line"/>
      <point x="282" y="430" type="line"/>
      <point x="304" y="397" type="line"/>
      <point x="335" y="595" type="line"/>
      <point x="301" y="565" type="line"/>
      <point x="477" y="565" type="line"/>
      <point x="448" y="584" type="line"/>
      <point x="457" y="505" type="line"/>
      <point x="571" y="505" type="line"/>
      <point x="603" y="710" type="line"/>
      <point x="350" y="710" type="line"/>
      <point x="100" y="705" type="line"/>
      <point x="84" y="605" type="line"/>
      <point x="158" y="571" type="line"/>
      <point x="139" y="600" type="line"/>
      <point x="60" y="105" type="line"/>
      <point x="84" y="131" type="line"/>
      <point x="4" y="100" type="line"/>
    </contour>
  </outline>
</glyph>
<glyph name="G" format="2">
  <advance width="681"/>
  <unicode hex="0047"/>
  <anchor x="312" y="0" name="bottom"/>
  <anchor x="429" y="710" name="top"/>
  <outline>
    <contour>
      <point x="310" y="-15" type="curve" smooth="yes"/>
      <point x="386" y="-15"/>
      <point x="478" y="5"/>
      <point x="580" y="52" type="curve"/>
      <point x="610" y="277" type="line"/>
      <point x="588" y="244" type="line"/>
      <point x="669" y="272" type="line"/>
      <point x="685" y="377" type="line"/>
      <point x="386" y="372" type="line"/>
      <point x="370" y="268" type="line"/>
      <point x="452" y="244" type="line"/>
      <point x="427" y="277" type="line"/>
      <point x="405" y="117" type="line"/>
      <point x="430" y="161" type="line"/>
      <point x="395" y="150"/>
      <point x="365" y="143"/>
      <point x="337" y="143" type="curve" smooth="yes"/>
      <point x="274" y="143"/>
      <point x="244" y="179"/>
      <point x="244" y="283" type="curve" smooth="yes"/>
      <point x="244" y="435"/>
      <point x="306" y="570"/>
      <point x="434" y="570" type="curve" smooth="yes"/>
      <point x="458" y="570"/>
      <point x="487" y="565"/>
      <point x="519" y="552" type="curve"/>
      <point x="489" y="577" type="line"/>
      <point x="503" y="468" type="line"/>
      <point x="617" y="468" type="line"/>
      <point x="656" y="667" type="line"/>
      <point x="576" y="704"/>
      <point x="497" y="725"/>
      <point x="419" y="725" type="curve" smooth="yes"/>
      <point x="176" y="725"/>
      <point x="36" y="518"/>
      <point x="36" y="285" type="curve" smooth="yes"/>
      <point x="36" y="80"/>
      <point x="144" y="-15"/>
    </contour>
  </outline>
</glyph>
<glyph name="J" format="2">
  <advance width="348"/>
  <unicode hex="004A"/>
  <guideline x="192" y="382" angle="261"/>
  <anchor x="131" y="0" name="bottom"/>
  <anchor x="243" y="710" name="top"/>
  <outline>
    <contour>
      <point x="89" y="705" type="line"/>
      <point x="73" y="605" type="line"/>
      <point x="146" y="571" type="line"/>
      <point x="128" y="600" type="line"/>
      <point x="42" y="63" type="line" smooth="yes"/>
      <point x="36" y="25"/>
      <point x="26" y="-38"/>
      <point x="-58" y="-38" type="curve" smooth="yes"/>
      <point x="-69" y="-38"/>
      <point x="-81" y="-37"/>
      <point x="-92" y="-34" type="curve"/>
      <point x="-125" y="-177" type="line"/>
      <point x="-96" y="-183"/>
      <point x="-67" y="-186"/>
      <point x="-38" y="-186" type="curve" smooth="yes"/>
      <point x="125" y="-186"/>
      <point x="216" y="-87"/>
      <point x="247" y="108" type="curve" smooth="yes"/>
      <point x="325" y="600" type="line"/>
      <point x="303" y="572" type="line"/>
      <point x="386" y="610" type="line"/>
      <point x="402" y="710" type="line"/>
    </contour>
  </outline>
</glyph>
<glyph name="L" format="2">
  <advance width="555"/>
  <unicode hex="004C"/>
  <guideline x="24" y="231" angle="261"/>
  <guideline x="529" y="231" angle="261"/>
  <guideline x="179" y="231" angle="261"/>
  <anchor x="252" y="0" name="bottom"/>
  <anchor x="435" y="384" name="center"/>
  <anchor x="255" y="710" name="top"/>
  <anchor x="459" y="710" name="topright"/>
  <outline>
    <contour>
      <point x="414" y="245" type="line"/>
      <point x="369" y="114" type="line"/>
      <point x="400" y="145" type="line"/>
      <point x="238" y="145" type="line"/>
      <point x="257" y="105" type="line"/>
      <point x="336" y="600" type="line"/>
      <point x="314" y="572" type="line"/>
      <point x="397" y="610" type="line"/>
      <point x="413" y="710" type="line"/>
      <point x="100" y="705" type="line"/>
      <point x="84" y="605" type="line"/>
      <point x="158" y="571" type="line"/>
      <point x="139" y="600" type="line"/>
      <point x="60" y="105" type="line"/>
      <point x="84" y="131" type="line"/>
      <point x="4" y="100" type="line"/>
      <point x="-12" y="0" type="line"/>
      <point x="492" y="0" type="line"/>
      <point x="530" y="245" type="line"/>
    </contour>
  </outline>
</glyph>
<glyph name="N" format="2">
  <advance width="730"/>
  <unicode hex="004E"/>
  <guideline x="382" y="336" angle="81.023"/>
  <anchor x="329" y="0" name="bottom"/>
  <anchor x="442" y="710" name="top"/>
  <outline>
    <contour>
      <point x="508" y="705" type="line"/>
      <point x="492" y="605" type="line"/>
      <point x="566" y="571" type="line"/>
      <point x="547" y="600" type="line"/>
      <point x="488" y="228" type="line"/>
      <point x="512" y="228" type="line"/>
      <point x="383" y="710" type="line"/>
      <point x="100" y="705" type="line"/>
      <point x="84" y="605" type="line"/>
      <point x="158" y="571" type="line"/>
      <point x="139" y="600" type="line"/>
      <point x="60" y="105" type="line"/>
      <point x="84" y="131" type="line"/>
      <point x="4" y="100" type="line"/>
      <point x="-12" y="0" type="line"/>
      <point x="260" y="0" type="line"/>
      <point x="276" y="100" type="line"/>
      <point x="210" y="132" type="line"/>
      <point x="220" y="105" type="line"/>
      <point x="282" y="495" type="line"/>
      <point x="260" y="495" type="line"/>
      <point x="397" y="0" type="line"/>
      <point x="611" y="0" type="line"/>
      <point x="707" y="600" type="line"/>
      <point x="685" y="572" type="line"/>
      <point x="763" y="610" type="line"/>
      <point x="779" y="710" type="line"/>
    </contour>
  </outline>
</glyph>
<glyph name="O" format="2">
  <advance width="708"/>
  <unicode hex="004F"/>
  <guideline x="415" y="661" angle="261"/>
  <anchor x="310" y="0" name="bottom"/>
  <anchor x="367" y="355" name="center"/>
  <anchor x="426" y="0" name="ogonek"/>
  <anchor x="436" y="710" name="top"/>
  <anchor x="101" y="710" name="topleft"/>
  <anchor x="608" y="710" name="topright"/>
  <outline>
    <contour>
      <point x="312" y="-15" type="curve" smooth="yes"/>
      <point x="604" y="-15"/>
      <point x="700" y="241"/>
      <point x="700" y="434" type="curve" smooth="yes"/>
      <point x="700" y="616"/>
      <point x="615" y="725"/>
      <point x="424" y="725" type="curve" smooth="yes"/>
      <point x="133" y="725"/>
      <point x="36" y="471"/>
      <point x="36" y="277" type="curve" smooth="yes"/>
      <point x="36" y="96"/>
      <point x="120" y="-15"/>
    </contour>
    <contour>
      <point x="330" y="140" type="curve" smooth="yes"/>
      <point x="275" y="140"/>
      <point x="244" y="176"/>
      <point x="244" y="272" type="curve" smooth="yes"/>
      <point x="244" y="364"/>
      <point x="272" y="570"/>
      <point x="407" y="570" type="curve" smooth="yes"/>
      <point x="462" y="570"/>
      <point x="492" y="536"/>
      <point x="492" y="442" type="curve" smooth="yes"/>
      <point x="492" y="350"/>
      <point x="463" y="140"/>
    </contour>
  </outline>
</glyph>
<glyph name="P" format="2">
  <advance width="612"/>
  <unicode hex="0050"/>
  <guideline x="24" y="231" angle="261"/>
  <guideline x="183" y="231" angle="261"/>
  <guideline x="355" y="231" angle="261"/>
  <anchor x="146" y="0" name="bottom"/>
  <anchor x="375" y="710" name="top"/>
  <outline>
    <contour>
      <point x="307" y="231" type="line" smooth="yes"/>
      <point x="508" y="231"/>
      <point x="631" y="348"/>
      <point x="631" y="518" type="curve" smooth="yes"/>
      <point x="631" y="637"/>
      <point x="570" y="710"/>
      <point x="416" y="710" type="curve" smooth="yes"/>
      <point x="357" y="710" type="line"/>
      <point x="100" y="705" type="line"/>
      <point x="84" y="605" type="line"/>
      <point x="158" y="571" type="line"/>
      <point x="139" y="600" type="line"/>
      <point x="60" y="105" type="line"/>
      <point x="84" y="131" type="line"/>
      <point x="4" y="100" type="line"/>
      <point x="-12" y="0" type="line"/>
      <point x="315" y="0" type="line"/>
      <point x="331" y="100" type="line"/>
      <point x="247" y="132" type="line"/>
      <point x="257" y="105" type="line"/>
      <point x="283" y="266" type="line"/>
      <point x="238" y="231" type="line"/>
    </contour>
    <contour>
      <point x="358" y="566" type="line" smooth="yes"/>
      <point x="415" y="566"/>
      <point x="426" y="539"/>
      <point x="426" y="499" type="curve" smooth="yes"/>
      <point x="426" y="434"/>
      <point x="398" y="376"/>
      <point x="312" y="376" type="curve" smooth="yes"/>
      <point x="271" y="376" type="line"/>
      <point x="295" y="343" type="line"/>
      <point x="336" y="599" type="line"/>
      <point x="310" y="566" type="line"/>
    </contour>
  </outline>
</glyph>
<glyph name="U" format="2">
  <advance width="715"/>
  <unicode hex="0055"/>
  <guideline x="699" y="231" angle="261"/>
  <guideline x="366" y="336" angle="81.023"/>
  <anchor x="314" y="0" name="bottom"/>
  <anchor x="435" y="0" name="ogonek"/>
  <anchor x="427" y="710" name="top"/>
  <anchor x="723" y="709" name="topright"/>
  <outline>
    <contour>
      <point x="459" y="705" type="line"/>
      <point x="443" y="605" type="line"/>
      <point x="517" y="571" type="line"/>
      <point x="498" y="600" type="line"/>
      <point x="449" y="291" type="line" smooth="yes"/>
      <point x="433" y="189"/>
      <point x="404" y="140"/>
      <point x="327" y="140" type="curve" smooth="yes"/>
      <point x="279" y="140"/>
      <point x="261" y="159"/>
      <point x="261" y="205" type="curve" smooth="yes"/>
      <point x="261" y="221"/>
      <point x="263" y="241"/>
      <point x="267" y="264" type="curve" smooth="yes"/>
      <point x="320" y="600" type="line"/>
      <point x="298" y="572" type="line"/>
      <point x="375" y="610" type="line"/>
      <point x="391" y="710" type="line"/>
      <point x="84" y="705" type="line"/>
      <point x="68" y="605" type="line"/>
      <point x="139" y="573" type="line"/>
      <point x="123" y="600" type="line"/>
      <point x="71" y="276" type="line" smooth="yes"/>
      <point x="67" y="248"/>
      <point x="64" y="223"/>
      <point x="64" y="200" type="curve" smooth="yes"/>
      <point x="64" y="53"/>
      <point x="150" y="-15"/>
      <point x="315" y="-15" type="curve" smooth="yes"/>
      <point x="499" y="-15"/>
      <point x="612" y="67"/>
      <point x="645" y="279" type="curve" smooth="yes"/>
      <point x="695" y="600" type="line"/>
      <point x="673" y="572" type="line"/>
      <point x="756" y="610" type="line"/>
      <point x="772" y="710" type="line"/>
    </contour>
  </outline>
</glyph>
<glyph name="W" format="2">
  <advance width="988"/>
  <unicode hex="0057"/>
  <anchor x="445" y="0" name="bottom"/>
  <anchor x="575" y="710" name="top"/>
  <outline>
    <contour>
      <point x="782" y="705" type="line"/>
      <point x="766" y="605" type="line"/>
      <point x="834" y="575" type="line"/>
      <point x="820" y="611" type="line"/>
      <point x="663" y="183" type="line"/>
      <point x="704" y="184" type="line"/>
      <point x="662" y="710" type="line"/>
      <point x="481" y="705" type="line"/>
      <point x="277" y="182" type="line"/>
      <point x="317" y="182" type="line"/>
      <point x="303" y="611" type="line"/>
      <point x="274" y="575" type="line"/>
      <point x="346" y="610" type="line"/>
      <point x="361" y="710" type="line"/>
      <point x="75" y="705" type="line"/>
      <point x="60" y="605" type="line"/>
      <point x="112" y="580" type="line"/>
      <point x="102" y="611" type="line"/>
      <point x="162" y="0" type="line"/>
      <point x="344" y="0" type="line"/>
      <point x="538" y="465" type="line"/>
      <point x="498" y="466" type="line"/>
      <point x="550" y="0" type="line"/>
      <point x="735" y="0" type="line"/>
      <point x="1000" y="629" type="line"/>
      <point x="948" y="577" type="line"/>
      <point x="1036" y="610" type="line"/>
      <point x="1051" y="710" type="line"/>
    </contour>
  </outline>
</glyph>
<glyph name="Z" format="2">
  <advance width="619"/>
  <unicode hex="005A"/>
  <anchor x="269" y="0" name="bottom"/>
  <anchor x="371" y="710" name="top"/>
  <outline>
    <contour>
      <point x="-13" y="0" type="line"/>
      <point x="541" y="0" type="line"/>
      <point x="576" y="221" type="line"/>
      <point x="458" y="221" type="line"/>
      <point x="423" y="120" type="line"/>
      <point x="466" y="147" type="line"/>
      <point x="216" y="147" type="line"/>
      <point x="219" y="117" type="line"/>
      <point x="624" y="569" type="line"/>
      <point x="641" y="710" type="line"/>
      <point x="111" y="710" type="line"/>
      <point x="76" y="489" type="line"/>
      <point x="193" y="489" type="line"/>
      <point x="234" y="583" type="line"/>
      <point x="186" y="563" type="line"/>
      <point x="426" y="563" type="line"/>
      <point x="408" y="578" type="line"/>
      <point x="4" y="135" type="line"/>
    </contour>
  </outline>
</glyph>
<glyph name="bracketright" format="2">
  <advance width="345"/>
  <unicode hex="005D"/>
  <guideline x="634" y="882" angle="0"/>
  <guideline x="-537" y="-118" angle="0"/>
  <outline>
    <contour>
      <point x="382" y="872" type="line"/>
      <point x="104" y="867" type="line"/>
      <point x="85" y="747" type="line"/>
      <point x="197" y="737" type="line"/>
      <point x="83" y="17" type="line"/>
      <point x="-32" y="7" type="line"/>
      <point x="-51" y="-113" type="line"/>
      <point x="225" y="-118" type="line"/>
    </contour>
  </outline>
</glyph>
<glyph name="a" format="2">
  <advance width="597"/>
  <unicode hex="0061"/>
  <guideline x="368" y="472" angle="261"/>
  <guideline x="557" y="472" angle="261"/>
  <guideline x="385" y="472" angle="261"/>
  <guideline x="624" y="472" angle="261"/>
  <anchor x="259" y="0" name="bottom"/>
  <anchor x="461" y="0" name="ogonek"/>
  <anchor x="324" y="540" name="top"/>
  <outline>
    <contour>
      <point x="162" y="-15" type="curve" smooth="yes"/>
      <point x="262" y="-15"/>
      <point x="378" y="82"/>
      <point x="400" y="253" type="curve"/>
      <point x="343" y="145" type="line"/>
      <point x="315" y="-7" type="line"/>
      <point x="551" y="0" type="line"/>
      <point x="568" y="103" type="line"/>
      <point x="424" y="160" type="line"/>
      <point x="491" y="33" type="line"/>
      <point x="571" y="540" type="line"/>
      <point x="468" y="539" type="line"/>
      <point x="435" y="507" type="line"/>
      <point x="522" y="487" type="line"/>
      <point x="459" y="535"/>
      <point x="392" y="556"/>
      <point x="328" y="556" type="curve" smooth="yes"/>
      <point x="148" y="556"/>
      <point x="10" y="393"/>
      <point x="10" y="191" type="curve" smooth="yes"/>
      <point x="10" y="46"/>
      <point x="81" y="-15"/>
    </contour>
    <contour>
      <point x="244" y="140" type="curve" smooth="yes"/>
      <point x="219" y="140"/>
      <point x="206" y="164"/>
      <point x="206" y="214" type="curve" smooth="yes"/>
      <point x="206" y="311"/>
      <point x="255" y="411"/>
      <point x="324" y="411" type="curve" smooth="yes"/>
      <point x="346" y="411"/>
      <point x="369" y="401"/>
      <point x="394" y="378" type="curve"/>
      <point x="363" y="439" type="line"/>
      <point x="341" y="303" type="line" smooth="yes"/>
      <point x="325" y="205"/>
      <point x="287" y="140"/>
    </contour>
  </outline>
</glyph>
<glyph name="e" format="2">
  <advance width="528"/>
  <unicode hex="0065"/>
  <guideline x="299" y="416" angle="261"/>
  <anchor x="233" y="0" name="bottom"/>
  <anchor x="346" y="0" name="ogonek"/>
  <anchor x="319" y="540" name="top"/>
  <outline>
    <contour>
      <point x="238" y="-15" type="curve" smooth="yes"/>
      <point x="311" y="-15"/>
      <point x="396" y="8"/>
      <point x="480" y="54" type="curve"/>
      <point x="428" y="171" type="line"/>
      <point x="371" y="143"/>
      <point x="321" y="126"/>
      <point x="283" y="126" type="curve" smooth="yes"/>
      <point x="235" y="126"/>
      <point x="206" y="154"/>
      <point x="206" y="223" type="curve" smooth="yes"/>
      <point x="206" y="300"/>
      <point x="241" y="419"/>
      <point x="302" y="419" type="curve" smooth="yes"/>
      <point x="325" y="419"/>
      <point x="338" y="401"/>
      <point x="338" y="378" type="curve" smooth="yes"/>
      <point x="338" y="332"/>
      <point x="285" y="310"/>
      <point x="229" y="310" type="curve" smooth="yes"/>
      <point x="218" y="310"/>
      <point x="207" y="310"/>
      <point x="197" y="312" type="curve"/>
      <point x="187" y="199" type="line"/>
      <point x="192" y="199"/>
      <point x="203" y="198"/>
      <point x="222" y="198" type="curve" smooth="yes"/>
      <point x="382" y="198"/>
      <point x="530" y="265"/>
      <point x="530" y="398" type="curve" smooth="yes"/>
      <point x="530" y="494"/>
      <point x="454" y="555"/>
      <point x="329" y="555" type="curve" smooth="yes"/>
      <point x="126" y="555"/>
      <point x="12" y="392"/>
      <point x="12" y="218" type="curve" smooth="yes"/>
      <point x="12" y="59"/>
      <point x="108" y="-15"/>
    </contour>
  </outline>
</glyph>
<glyph name="g" format="2">
  <advance width="580"/>
  <unicode hex="0067"/>
  <anchor x="173" y="-230" name="bottom"/>
  <anchor x="322" y="540" name="top"/>
  <outline>
    <contour>
      <point x="168" y="-245" type="curve" smooth="yes"/>
      <point x="310" y="-245"/>
      <point x="457" y="-186"/>
      <point x="491" y="31" type="curve" smooth="yes"/>
      <point x="571" y="540" type="line"/>
      <point x="468" y="539" type="line"/>
      <point x="438" y="510" type="line"/>
      <point x="522" y="487" type="line"/>
      <point x="459" y="534"/>
      <point x="392" y="555"/>
      <point x="328" y="555" type="curve" smooth="yes"/>
      <point x="148" y="555"/>
      <point x="10" y="392"/>
      <point x="10" y="191" type="curve" smooth="yes"/>
      <point x="10" y="46"/>
      <point x="81" y="-15"/>
      <point x="162" y="-15" type="curve" smooth="yes"/>
      <point x="262" y="-15"/>
      <point x="379" y="82"/>
      <point x="401" y="253" type="curve"/>
      <point x="336" y="145" type="line"/>
      <point x="319" y="29" type="line" smooth="yes"/>
      <point x="314" y="-7"/>
      <point x="299" y="-104"/>
      <point x="159" y="-104" type="curve" smooth="yes"/>
      <point x="116" y="-104"/>
      <point x="57" y="-95"/>
      <point x="4" y="-77" type="curve"/>
      <point x="-34" y="-210" type="line"/>
      <point x="21" y="-229"/>
      <point x="93" y="-245"/>
    </contour>
    <contour>
      <point x="244" y="140" type="curve" smooth="yes"/>
      <point x="219" y="140"/>
      <point x="206" y="164"/>
      <point x="206" y="214" type="curve" smooth="yes"/>
      <point x="206" y="311"/>
      <point x="255" y="411"/>
      <point x="324" y="411" type="curve" smooth="yes"/>
      <point x="346" y="411"/>
      <point x="369" y="401"/>
      <point x="394" y="378" type="curve"/>
      <point x="363" y="439" type="line"/>
      <point x="341" y="303" type="line" smooth="yes"/>
      <point x="325" y="205"/>
      <point x="287" y="140"/>
    </contour>
  </outline>
</glyph>
<glyph name="l" format="2">
  <advance width="312"/>
  <unicode hex="006C"/>
  <guideline x="83" y="472" angle="261"/>
  <guideline x="275" y="472" angle="261"/>
  <guideline x="29" y="472" angle="261"/>
  <guideline x="656" y="472" angle="261"/>
  <anchor x="109" y="0" name="bottom"/>
  <anchor x="391" y="367" name="center"/>
  <anchor x="223" y="750" name="top"/>
  <anchor x="355" y="780" name="topright"/>
  <outline>
    <contour>
      <point x="7" y="-6" type="line"/>
      <point x="266" y="0" type="line"/>
      <point x="283" y="103" type="line"/>
      <point x="133" y="160" type="line"/>
      <point x="206" y="33" type="line"/>
      <point x="325" y="785" type="line"/>
      <point x="67" y="776" type="line"/>
      <point x="51" y="672" type="line"/>
      <point x="195" y="623" type="line"/>
      <point x="126" y="745" type="line"/>
    </contour>
  </outline>
</glyph>
<glyph name="n" format="2">
  <advance width="627"/>
  <unicode hex="006E"/>
  <guideline x="478" y="416" angle="0"/>
  <guideline x="478" y="315" angle="0"/>
  <guideline x="101" y="472" angle="261"/>
  <guideline x="293" y="472" angle="261"/>
  <anchor x="265" y="0" name="bottom"/>
  <anchor x="351" y="540" name="top"/>
  <anchor x="57" y="540" name="topleft"/>
  <outline>
    <contour>
      <point x="324" y="-6" type="line"/>
      <point x="583" y="0" type="line"/>
      <point x="600" y="103" type="line"/>
      <point x="450" y="160" type="line"/>
      <point x="534" y="99" type="line"/>
      <point x="576" y="362" type="line" smooth="yes"/>
      <point x="594" y="472"/>
      <point x="545" y="555"/>
      <point x="441" y="555" type="curve" smooth="yes"/>
      <point x="345" y="555"/>
      <point x="224" y="470"/>
      <point x="194" y="288" type="curve"/>
      <point x="256" y="399" type="line"/>
      <point x="293" y="544" type="line"/>
      <point x="47" y="536" type="line"/>
      <point x="31" y="436" type="line"/>
      <point x="175" y="381" type="line"/>
      <point x="106" y="504" type="line"/>
      <point x="26" y="0" type="line"/>
      <point x="219" y="0" type="line"/>
      <point x="257" y="246" type="line" smooth="yes"/>
      <point x="273" y="350"/>
      <point x="312" y="403"/>
      <point x="353" y="403" type="curve" smooth="yes"/>
      <point x="390" y="403"/>
      <point x="384" y="359"/>
      <point x="377" y="315" type="curve" smooth="yes"/>
    </contour>
  </outline>
</glyph>
<glyph name="o" format="2">
  <advance width="565"/>
  <unicode hex="006F"/>
  <guideline x="310" y="435" angle="261"/>
  <anchor x="242" y="0" name="bottom"/>
  <anchor x="289" y="270" name="center"/>
  <anchor x="336" y="0" name="ogonek"/>
  <anchor x="327" y="540" name="top"/>
  <anchor x="556" y="505" name="topright"/>
  <outline>
    <contour>
      <point x="333" y="555" type="curve" smooth="yes"/>
      <point x="110" y="555"/>
      <point x="13" y="377"/>
      <point x="13" y="207" type="curve" smooth="yes"/>
      <point x="13" y="45"/>
      <point x="102" y="-15"/>
      <point x="232" y="-15" type="curve" smooth="yes"/>
      <point x="455" y="-15"/>
      <point x="553" y="160"/>
      <point x="553" y="331" type="curve" smooth="yes"/>
      <point x="553" y="496"/>
      <point x="462" y="555"/>
    </contour>
    <contour>
      <point x="307" y="415" type="curve" smooth="yes"/>
      <point x="345" y="415"/>
      <point x="357" y="383"/>
      <point x="357" y="336" type="curve" smooth="yes"/>
      <point x="357" y="277"/>
      <point x="339" y="125"/>
      <point x="257" y="125" type="curve" smooth="yes"/>
      <point x="219" y="125"/>
      <point x="209" y="157"/>
      <point x="209" y="205" type="curve" smooth="yes"/>
      <point x="209" y="263"/>
      <point x="224" y="415"/>
    </contour>
  </outline>
</glyph>
<glyph name="p" format="2">
  <advance width="599"/>
  <unicode hex="0070"/>
  <guideline x="64" y="231" angle="261"/>
  <guideline x="256" y="231" angle="261"/>
  <guideline x="311" y="231" angle="261"/>
  <guideline x="35" y="472" angle="261"/>
  <guideline x="102" y="472" angle="261"/>
  <anchor x="267" y="0" name="bottom"/>
  <anchor x="353" y="540" name="top"/>
  <outline>
    <contour>
      <point x="-74" y="-230" type="line"/>
      <point x="252" y="-230" type="line"/>
      <point x="268" y="-130" type="line"/>
      <point x="121" y="-73" type="line"/>
      <point x="189" y="-192" type="line"/>
      <point x="222" y="20" type="line"/>
      <point x="119" y="2" type="line"/>
      <point x="394" y="-54"/>
      <point x="588" y="88"/>
      <point x="588" y="344" type="curve" smooth="yes"/>
      <point x="588" y="499"/>
      <point x="517" y="555"/>
      <point x="438" y="555" type="curve" smooth="yes"/>
      <point x="335" y="555"/>
      <point x="228" y="459"/>
      <point x="206" y="289" type="curve"/>
      <point x="259" y="399" type="line"/>
      <point x="294" y="544" type="line"/>
      <point x="46" y="536" type="line"/>
      <point x="30" y="436" type="line"/>
      <point x="118" y="406" type="line"/>
      <point x="96" y="436" type="line"/>
      <point x="-2" y="-186" type="line"/>
      <point x="102" y="-76" type="line"/>
      <point x="-58" y="-130" type="line"/>
    </contour>
    <contour>
      <point x="235" y="103" type="line"/>
      <point x="257" y="239" type="line" smooth="yes"/>
      <point x="273" y="337"/>
      <point x="312" y="402"/>
      <point x="354" y="402" type="curve" smooth="yes"/>
      <point x="379" y="402"/>
      <point x="392" y="379"/>
      <point x="392" y="323" type="curve" smooth="yes"/>
      <point x="392" y="189"/>
      <point x="318" y="92"/>
      <point x="198" y="150" type="curve"/>
    </contour>
  </outline>
</glyph>
<glyph name="q" format="2">
  <advance width="580"/>
  <unicode hex="0071"/>
  <guideline x="330" y="231" angle="261"/>
  <guideline x="522" y="231" angle="261"/>
  <guideline x="275" y="231" angle="261"/>
  <guideline x="577" y="231" angle="261"/>
  <anchor x="251" y="0" name="bottom"/>
  <anchor x="337" y="540" name="top"/>
  <outline>
    <contour>
      <point x="188" y="-230" type="line"/>
      <point x="514" y="-230" type="line"/>
      <point x="530" y="-130" type="line"/>
      <point x="387" y="-73" type="line"/>
      <point x="454" y="-200" type="line"/>
      <point x="571" y="540" type="line"/>
      <point x="468" y="539" type="line"/>
      <point x="437" y="509" type="line"/>
      <point x="522" y="487" type="line"/>
      <point x="459" y="534"/>
      <point x="392" y="555"/>
      <point x="328" y="555" type="curve" smooth="yes"/>
      <point x="148" y="555"/>
      <point x="10" y="392"/>
      <point x="10" y="191" type="curve" smooth="yes"/>
      <point x="10" y="46"/>
      <point x="81" y="-15"/>
      <point x="162" y="-15" type="curve" smooth="yes"/>
      <point x="262" y="-15"/>
      <point x="379" y="82"/>
      <point x="401" y="253" type="curve"/>
      <point x="331" y="145" type="line"/>
      <point x="293" y="-3" type="line"/>
      <point x="262" y="-195" type="line"/>
      <point x="361" y="-76" type="line"/>
      <point x="204" y="-130" type="line"/>
    </contour>
    <contour>
      <point x="244" y="140" type="curve" smooth="yes"/>
      <point x="219" y="140"/>
      <point x="206" y="164"/>
      <point x="206" y="214" type="curve" smooth="yes"/>
      <point x="206" y="311"/>
      <point x="255" y="411"/>
      <point x="324" y="411" type="curve" smooth="yes"/>
      <point x="346" y="411"/>
      <point x="369" y="401"/>
      <point x="394" y="378" type="curve"/>
      <point x="363" y="439" type="line"/>
      <point x="341" y="303" type="line" smooth="yes"/>
      <point x="325" y="205"/>
      <point x="286" y="140"/>
    </contour>
  </outline>
</glyph>
<glyph name="z" format="2">
  <advance width="517"/>
  <unicode hex="007A"/>
  <anchor x="216" y="0" name="bottom"/>
  <anchor x="302" y="540" name="top"/>
  <outline>
    <contour>
      <point x="476" y="204" type="line"/>
      <point x="360" y="204" type="line"/>
      <point x="311" y="79" type="line"/>
      <point x="367" y="135" type="line"/>
      <point x="186" y="135" type="line"/>
      <point x="184" y="79" type="line"/>
      <point x="501" y="425" type="line"/>
      <point x="518" y="540" type="line"/>
      <point x="76" y="540" type="line"/>
      <point x="46" y="345" type="line"/>
      <point x="162" y="345" type="line"/>
      <point x="190" y="448" type="line"/>
      <point x="133" y="405" type="line"/>
      <point x="336" y="405" type="line"/>
      <point x="315" y="445" type="line"/>
      <point x="6" y="115" type="line"/>
      <point x="-10" y="0" type="line"/>
      <point x="445" y="0" type="line"/>
    </contour>
  </outline>
</glyph>
<glyph name="bar" format="2">
  <advance width="288"/>
  <unicode hex="007C"/>
  <guideline x="506" y="819" angle="0"/>
  <guideline x="-525" y="-115" angle="0"/>
  <guideline x="104" y="472" angle="261"/>
  <outline>
    <contour>
      <point x="159" y="819" type="line"/>
      <point x="11" y="-115" type="line"/>
      <point x="155" y="-115" type="line"/>
      <point x="303" y="819" type="line"/>
    </contour>
  </outline>
</glyph>
<glyph name="cent" format="2">
  <advance width="513"/>
  <unicode hex="00A2"/>
  <outline>
    <contour>
      <point x="166" y="-22" type="line"/>
      <point x="291" y="-22" type="line"/>
      <point x="315" y="137" type="line"/>
      <point x="261" y="99" type="line"/>
      <point x="329" y="104"/>
      <point x="396" y="125"/>
      <point x="469" y="177" type="curve"/>
      <point x="418" y="277" type="line"/>
      <point x="373" y="248"/>
      <point x="328" y="231"/>
      <point x="292" y="231" type="curve" smooth="yes"/>
      <point x="250" y="231"/>
      <point x="229" y="253"/>
      <point x="229" y="306" type="curve" smooth="yes"/>
      <point x="229" y="397"/>
      <point x="262" y="493"/>
      <point x="343" y="493" type="curve" smooth="yes"/>
      <point x="351" y="493"/>
      <point x="366" y="492"/>
      <point x="375" y="491" type="curve"/>
      <point x="376" y="437" type="line"/>
      <point x="481" y="437" type="line"/>
      <point x="505" y="584" type="line"/>
      <point x="473" y="598"/>
      <point x="411" y="621"/>
      <point x="346" y="621" type="curve"/>
      <point x="388" y="588" type="line"/>
      <point x="412" y="741" type="line"/>
      <point x="287" y="741" type="line"/>
      <point x="263" y="582" type="line"/>
      <point x="314" y="620" type="line"/>
      <point x="141" y="607"/>
      <point x="48" y="484"/>
      <point x="48" y="310" type="curve" smooth="yes"/>
      <point x="48" y="174"/>
      <point x="127" y="97"/>
      <point x="247" y="99" type="curve"/>
      <point x="190" y="134" type="line"/>
    </contour>
  </outline>
</glyph>
<glyph name="ordfeminine" format="2">
  <advance width="501"/>
  <unicode hex="00AA"/>
  <outline>
    <contour>
      <point x="13" y="126" type="line"/>
      <point x="465" y="126" type="line"/>
      <point x="487" y="261" type="line"/>
      <point x="35" y="261" type="line"/>
    </contour>
    <contour>
      <point x="177" y="310" type="curve" smooth="yes"/>
      <point x="251" y="310"/>
      <point x="332" y="380"/>
      <point x="349" y="504" type="curve"/>
      <point x="311" y="426" type="line"/>
      <point x="292" y="316" type="line"/>
      <point x="498" y="321" type="line"/>
      <point x="512" y="404" type="line"/>
      <point x="414" y="439" type="line"/>
      <point x="450" y="345" type="line"/>
      <point x="510" y="713" type="line"/>
      <point x="403" y="712" type="line"/>
      <point x="379" y="689" type="line"/>
      <point x="443" y="674" type="line"/>
      <point x="397" y="709"/>
      <point x="347" y="724"/>
      <point x="300" y="724" type="curve" smooth="yes"/>
      <point x="147" y="724"/>
      <point x="44" y="606"/>
      <point x="44" y="459" type="curve" smooth="yes"/>
      <point x="44" y="354"/>
      <point x="97" y="310"/>
    </contour>
    <contour>
      <point x="238" y="423" type="curve" smooth="yes"/>
      <point x="222" y="423"/>
      <point x="214" y="440"/>
      <point x="214" y="476" type="curve" smooth="yes"/>
      <point x="214" y="546"/>
      <point x="249" y="619"/>
      <point x="297" y="619" type="curve" smooth="yes"/>
      <point x="313" y="619"/>
      <point x="330" y="612"/>
      <point x="349" y="595" type="curve"/>
      <point x="326" y="639" type="line"/>
      <point x="309" y="541" type="line" smooth="yes"/>
      <point x="297" y="470"/>
      <point x="269" y="423"/>
    </contour>
  </outline>
</glyph>
<glyph name="logicalnot" format="2">
  <advance width="596"/>
  <unicode hex="00AC"/>
  <outline>
    <contour>
      <point x="387" y="281" type="line"/>
      <point x="47" y="281" type="line"/>
      <point x="69" y="421" type="line"/>
      <point x="543" y="421" type="line"/>
      <point x="494" y="114" type="line"/>
      <point x="341" y="114" type="line"/>
      <point x="372" y="301" type="line"/>
    </contour>
  </outline>
</glyph>
<glyph name="registered" format="2">
  <advance width="689"/>
  <unicode hex="00AE"/>
  <outline>
    <contour>
      <point x="226" y="309" type="line"/>
      <point x="380" y="309" type="line"/>
      <point x="380" y="360" type="line"/>
      <point x="340" y="376" type="line"/>
      <point x="353" y="357" type="line"/>
      <point x="353" y="433" type="line"/>
      <point x="337" y="419" type="line"/>
      <point x="353" y="419" type="line" smooth="yes"/>
      <point x="372" y="419"/>
      <point x="383" y="415"/>
      <point x="392" y="394" type="curve" smooth="yes"/>
      <point x="426" y="309" type="line"/>
      <point x="524" y="309" type="line"/>
      <point x="524" y="360" type="line"/>
      <point x="480" y="376" type="line"/>
      <point x="512" y="359" type="line"/>
      <point x="483" y="416" type="line" smooth="yes"/>
      <point x="471" y="440"/>
      <point x="454" y="449"/>
      <point x="418" y="448" type="curve"/>
      <point x="410" y="434" type="line"/>
      <point x="480" y="445"/>
      <point x="510" y="474"/>
      <point x="510" y="520" type="curve" smooth="yes"/>
      <point x="510" y="576"/>
      <point x="468" y="609"/>
      <point x="392" y="609" type="curve" smooth="yes"/>
      <point x="366" y="609" type="line"/>
      <point x="226" y="605" type="line"/>
      <point x="226" y="555" type="line"/>
      <point x="270" y="538" type="line"/>
      <point x="252" y="559" type="line"/>
      <point x="252" y="357" type="line"/>
      <point x="264" y="376" type="line"/>
      <point x="226" y="360" type="line"/>
    </contour>
    <contour>
      <point x="353" y="467" type="line"/>
      <point x="353" y="554" type="line"/>
      <point x="337" y="540" type="line"/>
      <point x="370" y="540" type="line" smooth="yes"/>
      <point x="393" y="540"/>
      <point x="403" y="531"/>
      <point x="403" y="512" type="curve" smooth="yes"/>
      <point x="403" y="491"/>
      <point x="389" y="481"/>
      <point x="362" y="481" type="curve" smooth="yes"/>
      <point x="337" y="481" type="line"/>
    </contour>
    <contour>
      <point x="364" y="151" type="curve" smooth="yes"/>
      <point x="544" y="151"/>
      <point x="685" y="282"/>
      <point x="685" y="462" type="curve" smooth="yes"/>
      <point x="685" y="637"/>
      <point x="553" y="759"/>
      <point x="378" y="759" type="curve" smooth="yes"/>
      <point x="197" y="759"/>
      <point x="63" y="629"/>
      <point x="63" y="448" type="curve" smooth="yes"/>
      <point x="63" y="274"/>
      <point x="189" y="151"/>
    </contour>
    <contour>
      <point x="367" y="231" type="curve" smooth="yes"/>
      <point x="243" y="231"/>
      <point x="156" y="319"/>
      <point x="156" y="450" type="curve" smooth="yes"/>
      <point x="156" y="585"/>
      <point x="248" y="678"/>
      <point x="377" y="678" type="curve" smooth="yes"/>
      <point x="499" y="678"/>
      <point x="592" y="593"/>
      <point x="592" y="461" type="curve" smooth="yes"/>
      <point x="592" y="324"/>
      <point x="495" y="231"/>
    </contour>
  </outline>
</glyph>
<glyph name="macron" format="2">
  <advance width="383"/>
  <unicode hex="00AF"/>
  <guideline x="455" y="817" angle="0"/>
  <guideline x="241" y="623" angle="0"/>
  <guideline x="85" y="611" angle="261"/>
  <guideline x="407" y="611" angle="261"/>
  <guideline x="246" y="611" angle="261"/>
  <outline>
    <contour>
      <point x="435" y="786" type="line"/>
      <point x="112" y="786" type="line"/>
      <point x="91" y="651" type="line"/>
      <point x="413" y="651" type="line"/>
    </contour>
  </outline>
</glyph>
<glyph name="micro" format="2">
  <advance width="672"/>
  <unicode hex="00B5"/>
  <outline>
    <contour>
      <point x="201" y="-236" type="line"/>
      <point x="226" y="-80"/>
      <point x="184" y="-11"/>
      <point x="169" y="33" type="curve"/>
      <point x="138" y="95" type="line"/>
      <point x="151" y="23"/>
      <point x="186" y="-15"/>
      <point x="242" y="-15" type="curve" smooth="yes"/>
      <point x="325" y="-15"/>
      <point x="430" y="68"/>
      <point x="457" y="252" type="curve"/>
      <point x="397" y="144" type="line"/>
      <point x="369" y="-7" type="line"/>
      <point x="606" y="-1" type="line"/>
      <point x="622" y="99" type="line"/>
      <point x="534" y="133" type="line"/>
      <point x="556" y="100" type="line"/>
      <point x="625" y="540" type="line"/>
      <point x="432" y="540" type="line"/>
      <point x="394" y="294" type="line" smooth="yes"/>
      <point x="378" y="188"/>
      <point x="339" y="137"/>
      <point x="298" y="137" type="curve" smooth="yes"/>
      <point x="261" y="137"/>
      <point x="267" y="181"/>
      <point x="274" y="225" type="curve" smooth="yes"/>
      <point x="326" y="544" type="line"/>
      <point x="70" y="536" type="line"/>
      <point x="54" y="436" type="line"/>
      <point x="130" y="407" type="line"/>
      <point x="114" y="433" type="line"/>
      <point x="10" y="-230" type="line"/>
    </contour>
  </outline>
</glyph>
<glyph name="ordmasculine" format="2">
  <advance width="440"/>
  <unicode hex="00BA"/>
  <guideline x="192" y="310" angle="0"/>
  <outline>
    <contour>
      <point x="222" y="310" type="curve" smooth="yes"/>
      <point x="399" y="310"/>
      <point x="477" y="435"/>
      <point x="477" y="559" type="curve" smooth="yes"/>
      <point x="477" y="680"/>
      <point x="402" y="725"/>
      <point x="296" y="725" type="curve" smooth="yes"/>
      <point x="120" y="725"/>
      <point x="41" y="600"/>
      <point x="41" y="477" type="curve" smooth="yes"/>
      <point x="41" y="357"/>
      <point x="114" y="310"/>
    </contour>
    <contour>
      <point x="7" y="126" type="line"/>
      <point x="391" y="126" type="line"/>
      <point x="413" y="261" type="line"/>
      <point x="29" y="261" type="line"/>
    </contour>
    <contour>
      <point x="242" y="415" type="curve" smooth="yes"/>
      <point x="218" y="415"/>
      <point x="211" y="436"/>
      <point x="211" y="477" type="curve" smooth="yes"/>
      <point x="211" y="524"/>
      <point x="221" y="620"/>
      <point x="274" y="620" type="curve" smooth="yes"/>
      <point x="297" y="620"/>
      <point x="306" y="602"/>
      <point x="306" y="561" type="curve" smooth="yes"/>
      <point x="306" y="515"/>
      <point x="294" y="415"/>
    </contour>
  </outline>
</glyph>
<glyph name="guillemetright" format="2">
  <advance width="545"/>
  <unicode hex="00BB"/>
  <outline>
    <contour>
      <point x="381" y="509" type="line"/>
      <point x="284" y="435" type="line"/>
      <point x="376" y="231" type="line"/>
      <point x="385" y="305" type="line"/>
      <point x="228" y="98" type="line"/>
      <point x="309" y="29" type="line"/>
      <point x="507" y="222" type="line"/>
      <point x="519" y="316" type="line"/>
    </contour>
    <contour>
      <point x="141" y="509" type="line"/>
      <point x="44" y="435" type="line"/>
      <point x="136" y="231" type="line"/>
      <point x="145" y="305" type="line"/>
      <point x="-12" y="98" type="line"/>
      <point x="69" y="29" type="line"/>
      <point x="267" y="222" type="line"/>
      <point x="279" y="316" type="line"/>
    </contour>
  </outline>
</glyph>
<glyph name="questiondown" format="2">
  <advance width="429"/>
  <unicode hex="00BF"/>
  <outline>
    <contour>
      <point x="357" y="250" type="curve"/>
      <point x="212" y="250" type="line"/>
      <point x="212" y="246"/>
      <point x="212" y="244"/>
      <point x="212" y="239" type="curve" smooth="yes"/>
      <point x="212" y="136"/>
      <point x="-33" y="110"/>
      <point x="-33" y="-61" type="curve" smooth="yes"/>
      <point x="-33" y="-174"/>
      <point x="57" y="-212"/>
      <point x="165" y="-212" type="curve" smooth="yes"/>
      <point x="240" y="-212"/>
      <point x="323" y="-194"/>
      <point x="396" y="-163" type="curve"/>
      <point x="362" y="-31" type="line"/>
      <point x="322" y="-47"/>
      <point x="266" y="-64"/>
      <point x="224" y="-64" type="curve" smooth="yes"/>
      <point x="192" y="-64"/>
      <point x="169" y="-54"/>
      <point x="169" y="-23" type="curve" smooth="yes"/>
      <point x="169" y="60"/>
      <point x="361" y="75"/>
      <point x="361" y="212" type="curve" smooth="yes"/>
      <point x="361" y="232"/>
      <point x="357" y="244"/>
    </contour>
    <contour>
      <point x="302" y="531" type="curve" smooth="yes"/>
      <point x="236" y="531"/>
      <point x="184" y="487"/>
      <point x="184" y="419" type="curve" smooth="yes"/>
      <point x="184" y="360"/>
      <point x="222" y="323"/>
      <point x="282" y="323" type="curve" smooth="yes"/>
      <point x="350" y="323"/>
      <point x="399" y="371"/>
      <point x="399" y="437" type="curve" smooth="yes"/>
      <point x="399" y="493"/>
      <point x="363" y="531"/>
    </contour>
  </outline>
</glyph>
<glyph name="AE" format="2">
  <advance width="913"/>
  <unicode hex="00C6"/>
  <guideline x="609" y="231" angle="261"/>
  <guideline x="411" y="231" angle="261"/>
  <anchor x="468" y="0" name="bottom"/>
  <anchor x="591" y="710" name="top"/>
  <outline>
    <contour>
      <point x="-37" y="0" type="line"/>
      <point x="231" y="0" type="line"/>
      <point x="247" y="100" type="line"/>
      <point x="184" y="133" type="line"/>
      <point x="187" y="91" type="line"/>
      <point x="258" y="221" type="line"/>
      <point x="215" y="190" type="line"/>
      <point x="436" y="190" type="line"/>
      <point x="409" y="221" type="line"/>
      <point x="390" y="104" type="line"/>
      <point x="420" y="136" type="line"/>
      <point x="344" y="100" type="line"/>
      <point x="328" y="0" type="line"/>
      <point x="832" y="0" type="line"/>
      <point x="866" y="211" type="line"/>
      <point x="750" y="211" type="line"/>
      <point x="711" y="111" type="line"/>
      <point x="743" y="145" type="line"/>
      <point x="568" y="145" type="line"/>
      <point x="588" y="106" type="line"/>
      <point x="623" y="325" type="line"/>
      <point x="587" y="290" type="line"/>
      <point x="788" y="290" type="line"/>
      <point x="810" y="430" type="line"/>
      <point x="614" y="430" type="line"/>
      <point x="635" y="400" type="line"/>
      <point x="666" y="595" type="line"/>
      <point x="631" y="565" type="line"/>
      <point x="806" y="565" type="line"/>
      <point x="778" y="593" type="line"/>
      <point x="788" y="508" type="line"/>
      <point x="902" y="508" type="line"/>
      <point x="934" y="710" type="line"/>
      <point x="489" y="710" type="line"/>
      <point x="236" y="705" type="line"/>
      <point x="220" y="605" type="line"/>
      <point x="308" y="568" type="line"/>
      <point x="293" y="598" type="line"/>
      <point x="4" y="92" type="line"/>
      <point x="61" y="133" type="line"/>
      <point x="-21" y="100" type="line"/>
    </contour>
    <contour>
      <point x="304" y="305" type="line"/>
      <point x="456" y="583" type="line"/>
      <point x="417" y="565" type="line"/>
      <point x="494" y="565" type="line"/>
      <point x="468" y="584" type="line"/>
      <point x="423" y="305" type="line"/>
      <point x="456" y="330" type="line"/>
      <point x="286" y="330" type="line"/>
    </contour>
  </outline>
</glyph>
<glyph name="Ccedilla" format="2">
  <advance width="607"/>
  <unicode hex="00C7"/>
  <anchor x="430" y="710" name="top"/>
  <outline>
    <contour>
      <point x="254" y="-275" type="curve" smooth="yes"/>
      <point x="353" y="-275"/>
      <point x="436" y="-221"/>
      <point x="436" y="-136" type="curve" smooth="yes"/>
      <point x="436" y="-83"/>
      <point x="403" y="-49"/>
      <point x="335" y="-39" type="curve"/>
      <point x="364" y="110" type="line"/>
      <point x="255" y="110" type="line"/>
      <point x="207" y="-117" type="line"/>
      <point x="253" y="-119"/>
      <point x="301" y="-127"/>
      <point x="301" y="-151" type="curve" smooth="yes"/>
      <point x="301" y="-166"/>
      <point x="283" y="-172"/>
      <point x="260" y="-172" type="curve" smooth="yes"/>
      <point x="235" y="-172"/>
      <point x="202" y="-165"/>
      <point x="177" y="-154" type="curve"/>
      <point x="131" y="-246" type="line"/>
      <point x="171" y="-266"/>
      <point x="214" y="-275"/>
    </contour>
    <contour>
      <point x="37" y="293" type="curve" smooth="yes"/>
      <point x="37" y="84"/>
      <point x="158" y="-15"/>
      <point x="304" y="-15" type="curve" smooth="yes"/>
      <point x="387" y="-15"/>
      <point x="477" y="17"/>
      <point x="559" y="82" type="curve"/>
      <point x="497" y="205" type="line"/>
      <point x="447" y="169"/>
      <point x="396" y="148"/>
      <point x="352" y="148" type="curve" smooth="yes"/>
      <point x="290" y="148"/>
      <point x="245" y="189"/>
      <point x="245" y="302" type="curve" smooth="yes"/>
      <point x="245" y="421"/>
      <point x="295" y="570"/>
      <point x="413" y="570" type="curve" smooth="yes"/>
      <point x="435" y="570"/>
      <point x="463" y="565"/>
      <point x="498" y="551" type="curve"/>
      <point x="465" y="579" type="line"/>
      <point x="479" y="472" type="line"/>
      <point x="594" y="472" type="line"/>
      <point x="634" y="669" type="line"/>
      <point x="555" y="705"/>
      <point x="486" y="725"/>
      <point x="413" y="725" type="curve" smooth="yes"/>
      <point x="181" y="725"/>
      <point x="37" y="522"/>
    </contour>
  </outline>
</glyph>
<glyph name="Eth" format="2">
  <advance width="695"/>
  <unicode hex="00D0"/>
  <guideline x="-290" y="241" angle="90"/>
  <guideline x="25" y="233" angle="261"/>
  <guideline x="378" y="231" angle="261"/>
  <guideline x="490" y="430" angle="0"/>
  <outline>
    <contour>
      <point x="34" y="294" type="line"/>
      <point x="366" y="294" type="line"/>
      <point x="389" y="426" type="line"/>
      <point x="57" y="426" type="line"/>
    </contour>
    <component base="D"/>
  </outline>
</glyph>
<glyph name="germandbls" format="2">
  <advance width="721"/>
  <unicode hex="00DF"/>
  <outline>
    <contour>
      <point x="-40" y="-245" type="curve" smooth="yes"/>
      <point x="67" y="-245"/>
      <point x="200" y="-197"/>
      <point x="236" y="30" type="curve" smooth="yes"/>
      <point x="321" y="570" type="line" smooth="yes"/>
      <point x="332" y="638"/>
      <point x="378" y="666"/>
      <point x="421" y="666" type="curve" smooth="yes"/>
      <point x="455" y="666"/>
      <point x="480" y="647"/>
      <point x="480" y="612" type="curve" smooth="yes"/>
      <point x="480" y="531"/>
      <point x="346" y="509"/>
      <point x="346" y="372" type="curve" smooth="yes"/>
      <point x="346" y="221"/>
      <point x="510" y="219"/>
      <point x="510" y="153" type="curve" smooth="yes"/>
      <point x="510" y="128"/>
      <point x="487" y="110"/>
      <point x="456" y="110" type="curve" smooth="yes"/>
      <point x="441" y="110"/>
      <point x="423" y="114"/>
      <point x="405" y="124" type="curve"/>
      <point x="427" y="94" type="line"/>
      <point x="425" y="182" type="line"/>
      <point x="310" y="182" type="line"/>
      <point x="283" y="16" type="line"/>
      <point x="341" y="-4"/>
      <point x="400" y="-15"/>
      <point x="454" y="-15" type="curve" smooth="yes"/>
      <point x="591" y="-15"/>
      <point x="701" y="56"/>
      <point x="701" y="188" type="curve" smooth="yes"/>
      <point x="701" y="348"/>
      <point x="538" y="347"/>
      <point x="538" y="407" type="curve" smooth="yes"/>
      <point x="538" y="460"/>
      <point x="670" y="498"/>
      <point x="670" y="625" type="curve" smooth="yes"/>
      <point x="670" y="735"/>
      <point x="568" y="795"/>
      <point x="439" y="795" type="curve" smooth="yes"/>
      <point x="302" y="795"/>
      <point x="158" y="728"/>
      <point x="132" y="570" type="curve" smooth="yes"/>
      <point x="123" y="515" type="line"/>
      <point x="145" y="540" type="line"/>
      <point x="39" y="510" type="line"/>
      <point x="21" y="400" type="line"/>
      <point x="126" y="400" type="line"/>
      <point x="104" y="417" type="line"/>
      <point x="35" y="-19" type="line" smooth="yes"/>
      <point x="24" y="-86"/>
      <point x="-16" y="-105"/>
      <point x="-59" y="-105" type="curve" smooth="yes"/>
      <point x="-73" y="-105"/>
      <point x="-86" y="-103"/>
      <point x="-99" y="-101" type="curve"/>
      <point x="-130" y="-235" type="line"/>
      <point x="-109" y="-239"/>
      <point x="-77" y="-245"/>
    </contour>
  </outline>
</glyph>
<glyph name="icircumflex" format="2">
  <advance width="329"/>
  <unicode hex="00EE"/>
  <outline>
    <contour>
      <point x="94" y="609" type="line"/>
      <point x="294" y="752" type="line"/>
      <point x="169" y="759" type="line"/>
      <point x="319" y="609" type="line"/>
      <point x="394" y="670" type="line"/>
      <point x="290" y="848" type="line"/>
      <point x="181" y="837" type="line"/>
      <point x="37" y="680" type="line"/>
    </contour>
    <component base="idotless"/>
  </outline>
</glyph>
<glyph name="oslash" format="2">
  <advance width="585"/>
  <unicode hex="00F8"/>
  <guideline x="11" y="230" angle="261"/>
  <guideline x="286" y="231" angle="261"/>
  <anchor x="336" y="540" name="top"/>
  <outline>
    <contour>
      <point x="526" y="648" type="line"/>
      <point x="371" y="447" type="line"/>
      <point x="366" y="432" type="line"/>
      <point x="178" y="186" type="line"/>
      <point x="164" y="175" type="line"/>
      <point x="-14" y="-58" type="line"/>
      <point x="57" y="-103" type="line"/>
      <point x="204" y="89" type="line"/>
      <point x="210" y="104" type="line"/>
      <point x="402" y="356" type="line"/>
      <point x="411" y="361" type="line"/>
      <point x="596" y="603" type="line"/>
    </contour>
    <contour>
      <point x="343" y="555" type="curve" smooth="yes"/>
      <point x="120" y="555"/>
      <point x="22" y="377"/>
      <point x="22" y="207" type="curve" smooth="yes"/>
      <point x="22" y="46"/>
      <point x="110" y="-15"/>
      <point x="241" y="-15" type="curve" smooth="yes"/>
      <point x="462" y="-15"/>
      <point x="562" y="160"/>
      <point x="562" y="332" type="curve" smooth="yes"/>
      <point x="562" y="496"/>
      <point x="471" y="555"/>
    </contour>
    <contour>
      <point x="319" y="415" type="curve" smooth="yes"/>
      <point x="354" y="415"/>
      <point x="366" y="390"/>
      <point x="366" y="336" type="curve" smooth="yes"/>
      <point x="366" y="279"/>
      <point x="350" y="125"/>
      <point x="263" y="125" type="curve" smooth="yes"/>
      <point x="228" y="125"/>
      <point x="218" y="150"/>
      <point x="218" y="203" type="curve" smooth="yes"/>
      <point x="218" y="263"/>
      <point x="231" y="415"/>
    </contour>
  </outline>
</glyph>
<glyph name="imacron" format="2">
  <advance width="329"/>
  <unicode hex="012B"/>
  <guideline x="75" y="594" angle="90"/>
  <guideline x="299" y="594" angle="90"/>
  <outline>
    <contour>
      <point x="391" y="786" type="line"/>
      <point x="94" y="786" type="line"/>
      <point x="75" y="651" type="line"/>
      <point x="371" y="651" type="line"/>
    </contour>
    <component base="idotless"/>
  </outline>
</glyph>
<glyph name="lslash" format="2">
  <advance width="371"/>
  <unicode hex="0142"/>
  <guideline x="207" y="480" angle="261"/>
  <outline>
    <contour>
      <point x="38" y="-6" type="line"/>
      <point x="297" y="0" type="line"/>
      <point x="314" y="103" type="line"/>
      <point x="164" y="160" type="line"/>
      <point x="237" y="33" type="line"/>
      <point x="356" y="785" type="line"/>
      <point x="98" y="776" type="line"/>
      <point x="82" y="672" type="line"/>
      <point x="226" y="623" type="line"/>
      <point x="157" y="745" type="line"/>
    </contour>
    <contour>
      <point x="44" y="266" type="line"/>
      <point x="392" y="426" type="line"/>
      <point x="359" y="536" type="line"/>
      <point x="10" y="376" type="line"/>
    </contour>
  </outline>
</glyph>
<glyph name="napostrophe" format="2">
  <advance width="818"/>
  <unicode hex="0149"/>
  <outline>
    <contour>
      <point x="112" y="701" type="curve" smooth="yes"/>
      <point x="112" y="666"/>
      <point x="128" y="646"/>
      <point x="128" y="626" type="curve" smooth="yes"/>
      <point x="128" y="602"/>
      <point x="105" y="567"/>
      <point x="56" y="499" type="curve"/>
      <point x="110" y="453" type="line"/>
      <point x="239" y="571"/>
      <point x="277" y="655"/>
      <point x="277" y="709" type="curve" smooth="yes"/>
      <point x="277" y="765"/>
      <point x="239" y="794"/>
      <point x="198" y="794" type="curve" smooth="yes"/>
      <point x="153" y="794"/>
      <point x="112" y="758"/>
    </contour>
    <component base="n" xOffset="191"/>
  </outline>
</glyph>
<glyph name="Tbar" format="2">
  <advance width="628"/>
  <unicode hex="0166"/>
  <guideline x="221" y="231" angle="261"/>
  <guideline x="418" y="231" angle="261"/>
  <guideline x="533" y="231" angle="261"/>
  <guideline x="107" y="231" angle="261"/>
  <outline>
    <contour>
      <point x="102.70972" y="270.59999999999997" type="line"/>
      <point x="531.09762" y="270.59999999999997" type="line"/>
      <point x="548.64604" y="402.59999999999997" type="line"/>
      <point x="120.25814" y="402.59999999999997" type="line"/>
    </contour>
    <component base="T"/>
  </outline>
</glyph>
<glyph name="tbar" format="2">
  <advance width="428"/>
  <unicode hex="0167"/>
  <guideline x="27" y="454" angle="261"/>
  <guideline x="415" y="454" angle="261"/>
  <outline>
    <contour>
      <point x="-10" y="225" type="line"/>
      <point x="372" y="225" type="line"/>
      <point x="390" y="335" type="line"/>
      <point x="8" y="335" type="line"/>
    </contour>
    <component base="t"/>
  </outline>
</glyph>
<glyph name="longs" format="2">
  <advance width="446"/>
  <unicode hex="017F"/>
  <outline>
    <contour>
      <point x="-138" y="-235" type="line"/>
      <point x="-117" y="-239"/>
      <point x="-85" y="-245"/>
      <point x="-49" y="-245" type="curve" smooth="yes"/>
      <point x="53" y="-245"/>
      <point x="191" y="-202"/>
      <point x="228" y="30" type="curve" smooth="yes"/>
      <point x="316" y="585" type="line" smooth="yes"/>
      <point x="325" y="643"/>
      <point x="366" y="655"/>
      <point x="400" y="655" type="curve" smooth="yes"/>
      <point x="416" y="655"/>
      <point x="431" y="652"/>
      <point x="440" y="650" type="curve"/>
      <point x="426" y="669" type="line"/>
      <point x="430" y="605" type="line"/>
      <point x="545" y="605" type="line"/>
      <point x="569" y="757" type="line"/>
      <point x="522" y="776"/>
      <point x="451" y="795"/>
      <point x="379" y="795" type="curve" smooth="yes"/>
      <point x="265" y="795"/>
      <point x="149" y="746"/>
      <point x="121" y="570" type="curve" smooth="yes"/>
      <point x="28" y="-19" type="line" smooth="yes"/>
      <point x="17" y="-86"/>
      <point x="-24" y="-105"/>
      <point x="-68" y="-105" type="curve" smooth="yes"/>
      <point x="-81" y="-105"/>
      <point x="-94" y="-103"/>
      <point x="-107" y="-101" type="curve"/>
    </contour>
  </outline>
</glyph>
<glyph name="florin" format="2">
  <advance width="536"/>
  <unicode hex="0192"/>
  <guideline x="471" y="218" angle="261"/>
  <guideline x="151" y="218" angle="261"/>
  <guideline x="344" y="218" angle="261"/>
  <outline>
    <contour>
      <point x="41" y="-207" type="curve" smooth="yes"/>
      <point x="201" y="-207"/>
      <point x="291" y="-108"/>
      <point x="318" y="62" type="curve" smooth="yes"/>
      <point x="367" y="372" type="line"/>
      <point x="329" y="357" type="line"/>
      <point x="493" y="357" type="line"/>
      <point x="512" y="477" type="line"/>
      <point x="347" y="477" type="line"/>
      <point x="380" y="453" type="line"/>
      <point x="400" y="573" type="line" smooth="yes"/>
      <point x="409" y="629"/>
      <point x="443" y="654"/>
      <point x="490" y="654" type="curve" smooth="yes"/>
      <point x="508" y="654"/>
      <point x="527" y="651"/>
      <point x="548" y="644" type="curve"/>
      <point x="589" y="776" type="line"/>
      <point x="545" y="788"/>
      <point x="503" y="795"/>
      <point x="465" y="795" type="curve" smooth="yes"/>
      <point x="323" y="795"/>
      <point x="229" y="705"/>
      <point x="203" y="545" type="curve" smooth="yes"/>
      <point x="188" y="452" type="line"/>
      <point x="238" y="484" type="line"/>
      <point x="123" y="462" type="line"/>
      <point x="106" y="357" type="line"/>
      <point x="212" y="357" type="line"/>
      <point x="176" y="377" type="line"/>
      <point x="122" y="36" type="line" smooth="yes"/>
      <point x="117" y="5"/>
      <point x="106" y="-62"/>
      <point x="25" y="-62" type="curve" smooth="yes"/>
      <point x="11" y="-62"/>
      <point x="-4" y="-60"/>
      <point x="-21" y="-57" type="curve"/>
      <point x="-52" y="-197" type="line"/>
      <point x="-19" y="-204"/>
      <point x="13" y="-207"/>
    </contour>
  </outline>
</glyph>
<glyph name="jdotless" format="2">
  <advance width="314"/>
  <unicode hex="0237"/>
  <anchor x="80" y="-230" name="bottom"/>
  <anchor x="202" y="540" name="top"/>
  <outline>
    <contour>
      <point x="-142" y="-235" type="line"/>
      <point x="-113" y="-241"/>
      <point x="-90" y="-245"/>
      <point x="-58" y="-245" type="curve" smooth="yes"/>
      <point x="70" y="-245"/>
      <point x="190" y="-183"/>
      <point x="224" y="30" type="curve" smooth="yes"/>
      <point x="305" y="544" type="line"/>
      <point x="49" y="536" type="line"/>
      <point x="34" y="436" type="line"/>
      <point x="107" y="408" type="line"/>
      <point x="93" y="429" type="line"/>
      <point x="24" y="-17" type="line" smooth="yes"/>
      <point x="16" y="-69"/>
      <point x="-11" y="-105"/>
      <point x="-71" y="-105" type="curve" smooth="yes"/>
      <point x="-85" y="-105"/>
      <point x="-97" y="-103"/>
      <point x="-111" y="-101" type="curve"/>
    </contour>
  </outline>
</glyph>
<glyph name="commaturnedmod" format="2">
  <advance width="227"/>
  <unicode hex="02BB"/>
  <outline>
    <contour>
      <point x="291" y="694" type="curve" smooth="yes"/>
      <point x="291" y="733"/>
      <point x="273" y="755"/>
      <point x="273" y="778" type="curve" smooth="yes"/>
      <point x="273" y="804"/>
      <point x="298" y="843"/>
      <point x="353" y="919" type="curve"/>
      <point x="293" y="970" type="line"/>
      <point x="149" y="839"/>
      <point x="107" y="745"/>
      <point x="107" y="685" type="curve" smooth="yes"/>
      <point x="107" y="623"/>
      <point x="150" y="591"/>
      <point x="195" y="591" type="curve" smooth="yes"/>
      <point x="245" y="591"/>
      <point x="291" y="631"/>
    </contour>
  </outline>
</glyph>
<glyph name="ringhalfleft" format="2">
  <advance width="221"/>
  <unicode hex="02BF"/>
  <guideline x="488" y="827" angle="0"/>
  <guideline x="273" y="633" angle="0"/>
  <guideline x="547" y="886" angle="0"/>
  <guideline x="248" y="596" angle="0"/>
  <guideline x="125" y="868" angle="261"/>
  <guideline x="285" y="873" angle="261"/>
  <guideline x="205" y="868" angle="261"/>
  <anchor x="153" y="540" name="_top"/>
  <outline>
    <contour>
      <point x="243" y="591" type="curve"/>
      <point x="253" y="679" type="line"/>
      <point x="223" y="679"/>
      <point x="214" y="695"/>
      <point x="214" y="722" type="curve" smooth="yes"/>
      <point x="214" y="759"/>
      <point x="231" y="798"/>
      <point x="272" y="798" type="curve"/>
      <point x="284" y="886" type="line"/>
      <point x="168" y="886"/>
      <point x="104" y="806"/>
      <point x="104" y="719" type="curve" smooth="yes"/>
      <point x="104" y="650"/>
      <point x="146" y="591"/>
    </contour>
  </outline>
</glyph>
<glyph name="caron" format="2">
  <advance width="472"/>
  <unicode hex="02C7"/>
  <guideline x="641" y="864" angle="0"/>
  <guideline x="342" y="596" angle="0"/>
  <guideline x="268" y="468" angle="261"/>
  <outline>
    <contour>
      <point x="465" y="846" type="line"/>
      <point x="240" y="703" type="line"/>
      <point x="375" y="701" type="line"/>
      <point x="184" y="846" type="line"/>
      <point x="113" y="775" type="line"/>
      <point x="244" y="607" type="line"/>
      <point x="353" y="618" type="line"/>
      <point x="517" y="775" type="line"/>
    </contour>
  </outline>
</glyph>
<glyph name="verticallinemod" format="2">
  <advance width="224"/>
  <unicode hex="02C8"/>
  <guideline x="473" y="827" angle="0"/>
  <guideline x="258" y="633" angle="0"/>
  <guideline x="532" y="864" angle="0"/>
  <guideline x="233" y="592" angle="0"/>
  <guideline x="153" y="517" angle="261"/>
  <outline>
    <contour>
      <point x="91" y="592" type="line"/>
      <point x="235" y="592" type="line"/>
      <point x="283" y="895" type="line"/>
      <point x="139" y="895" type="line"/>
    </contour>
  </outline>
</glyph>
<glyph name="gravecomb" format="2">
  <unicode hex="0300"/>
  <guideline x="477" y="827" angle="0"/>
  <guideline x="262" y="633" angle="0"/>
  <guideline x="536" y="872" angle="0"/>
  <guideline x="237" y="590" angle="0"/>
  <guideline x="254" y="590" angle="261"/>
  <anchor x="236" y="540" name="_top"/>
  <anchor x="284" y="780" name="top"/>
  <outline>
    <contour>
      <point x="186" y="872" type="line"/>
      <point x="93" y="735" type="line"/>
      <point x="347" y="590" type="line"/>
      <point x="414" y="686" type="line"/>
    </contour>
  </outline>
</glyph>
<glyph name="hookabovecomb" format="2">
  <unicode hex="0309"/>
  <guideline x="509" y="827" angle="0"/>
  <guideline x="294" y="633" angle="0"/>
  <guideline x="568" y="864" angle="0"/>
  <guideline x="269" y="592" angle="0"/>
  <guideline x="130" y="580" angle="261"/>
  <guideline x="201" y="580" angle="261"/>
  <anchor x="194" y="540" name="_top"/>
  <anchor x="233" y="780" name="top"/>
  <outline>
    <contour>
      <point x="132" y="592" type="line"/>
      <point x="250" y="592" type="line"/>
      <point x="258" y="639" type="line"/>
      <point x="334" y="654"/>
      <point x="368" y="696"/>
      <point x="368" y="752" type="curve" smooth="yes"/>
      <point x="368" y="824"/>
      <point x="313" y="858"/>
      <point x="236" y="858" type="curve" smooth="yes"/>
      <point x="201" y="858"/>
      <point x="161" y="851"/>
      <point x="120" y="836" type="curve"/>
      <point x="139" y="750" type="line"/>
      <point x="157" y="755"/>
      <point x="176" y="758"/>
      <point x="192" y="758" type="curve" smooth="yes"/>
      <point x="214" y="758"/>
      <point x="230" y="752"/>
      <point x="230" y="735" type="curve" smooth="yes"/>
      <point x="230" y="713"/>
      <point x="203" y="699"/>
      <point x="148" y="693" type="curve"/>
    </contour>
  </outline>
</glyph>
<glyph name="dblgravecomb" format="2">
  <unicode hex="030F"/>
  <guideline x="475" y="581" angle="0"/>
  <guideline x="795" y="870" angle="0"/>
  <guideline x="444" y="637" angle="261"/>
  <guideline x="238" y="637" angle="261"/>
  <guideline x="341" y="637" angle="261"/>
  <anchor x="326" y="540" name="_top"/>
  <anchor x="364" y="780" name="top"/>
  <outline>
    <contour>
      <point x="230" y="591" type="line"/>
      <point x="99" y="810" type="line"/>
      <point x="226" y="871" type="line"/>
      <point x="325" y="635" type="line"/>
    </contour>
    <contour>
      <point x="419" y="591" type="line"/>
      <point x="297" y="815" type="line"/>
      <point x="425" y="871" type="line"/>
      <point x="516" y="633" type="line"/>
    </contour>
  </outline>
</glyph>
<glyph name="breveinvertedcomb" format="2">
  <unicode hex="0311"/>
  <guideline x="583" y="827" angle="0"/>
  <guideline x="368" y="633" angle="0"/>
  <guideline x="642" y="821" angle="0"/>
  <guideline x="343" y="596" angle="0"/>
  <guideline x="255" y="637" angle="261"/>
  <guideline x="739" y="634" angle="261"/>
  <guideline x="540" y="634" angle="261"/>
  <anchor x="240" y="540" name="_top"/>
  <anchor x="278" y="780" name="top"/>
  <outline>
    <contour>
      <point x="281" y="821" type="curve" smooth="yes"/>
      <point x="194" y="821"/>
      <point x="96" y="758"/>
      <point x="78" y="624" type="curve"/>
      <point x="185" y="617" type="line"/>
      <point x="196" y="660"/>
      <point x="236" y="687"/>
      <point x="273" y="687" type="curve" smooth="yes"/>
      <point x="302" y="687"/>
      <point x="330" y="669"/>
      <point x="327" y="620" type="curve"/>
      <point x="437" y="621" type="line"/>
      <point x="456" y="751"/>
      <point x="374" y="821"/>
    </contour>
  </outline>
</glyph>
<glyph name="pi" format="2">
  <advance width="642"/>
  <unicode hex="03C0"/>
  <outline>
    <contour>
      <point x="23" y="0" type="line"/>
      <point x="215" y="0" type="line"/>
      <point x="281" y="445" type="line"/>
      <point x="225" y="395" type="line"/>
      <point x="418" y="395" type="line"/>
      <point x="378" y="445" type="line"/>
      <point x="339" y="188" type="line" smooth="yes"/>
      <point x="318" y="52"/>
      <point x="376" y="-15"/>
      <point x="478" y="-15" type="curve" smooth="yes"/>
      <point x="513" y="-15"/>
      <point x="553" y="-7"/>
      <point x="596" y="7" type="curve"/>
      <point x="592" y="135" type="line"/>
      <point x="583" y="134"/>
      <point x="575" y="133"/>
      <point x="569" y="133" type="curve" smooth="yes"/>
      <point x="527" y="133"/>
      <point x="526" y="156"/>
      <point x="535" y="215" type="curve" smooth="yes"/>
      <point x="574" y="470" type="line"/>
      <point x="528" y="398" type="line"/>
      <point x="625" y="440" type="line"/>
      <point x="640" y="540" type="line"/>
      <point x="298" y="540" type="line"/>
      <point x="53" y="536" type="line"/>
      <point x="37" y="436" type="line"/>
      <point x="130" y="392" type="line"/>
      <point x="92" y="465" type="line"/>
    </contour>
  </outline>
</glyph>
<glyph name="E-cy" format="2">
  <advance width="617"/>
  <unicode hex="0404"/>
  <outline>
    <contour>
      <point x="227" y="291" type="line"/>
      <point x="447" y="291" type="line"/>
      <point x="468" y="426" type="line"/>
      <point x="248" y="426" type="line"/>
    </contour>
    <contour>
      <point x="300" y="-15" type="curve" smooth="yes"/>
      <point x="386" y="-15"/>
      <point x="478" y="17"/>
      <point x="569" y="82" type="curve"/>
      <point x="507" y="205" type="line"/>
      <point x="447" y="168"/>
      <point x="394" y="147"/>
      <point x="347" y="147" type="curve" smooth="yes"/>
      <point x="282" y="147"/>
      <point x="243" y="188"/>
      <point x="243" y="296" type="curve" smooth="yes"/>
      <point x="243" y="422"/>
      <point x="296" y="570"/>
      <point x="422" y="570" type="curve" smooth="yes"/>
      <point x="445" y="570"/>
      <point x="473" y="565"/>
      <point x="508" y="551" type="curve"/>
      <point x="475" y="579" type="line"/>
      <point x="489" y="472" type="line"/>
      <point x="604" y="472" type="line"/>
      <point x="644" y="669" type="line"/>
      <point x="565" y="705"/>
      <point x="496" y="725"/>
      <point x="422" y="725" type="curve" smooth="yes"/>
      <point x="184" y="725"/>
      <point x="35" y="523"/>
      <point x="35" y="288" type="curve" smooth="yes"/>
      <point x="35" y="81"/>
      <point x="151" y="-15"/>
    </contour>
  </outline>
</glyph>
<glyph name="Lje-cy" format="2">
  <advance width="988"/>
  <unicode hex="0409"/>
  <outline>
    <contour>
      <point x="74" y="-15" type="curve" smooth="yes"/>
      <point x="293" y="-15"/>
      <point x="343" y="274"/>
      <point x="406" y="595" type="curve"/>
      <point x="364" y="565" type="line"/>
      <point x="537" y="565" type="line"/>
      <point x="506" y="595" type="line"/>
      <point x="428" y="105" type="line"/>
      <point x="452" y="131" type="line"/>
      <point x="372" y="100" type="line"/>
      <point x="356" y="0" type="line"/>
      <point x="640" y="0" type="line" smooth="yes"/>
      <point x="840" y="0"/>
      <point x="968" y="85"/>
      <point x="968" y="272" type="curve" smooth="yes"/>
      <point x="968" y="387"/>
      <point x="893" y="447"/>
      <point x="748" y="447" type="curve" smooth="yes"/>
      <point x="646" y="447" type="line"/>
      <point x="674" y="412" type="line"/>
      <point x="706" y="611" type="line"/>
      <point x="674" y="569" type="line"/>
      <point x="768" y="610" type="line"/>
      <point x="784" y="710" type="line"/>
      <point x="415" y="710" type="line"/>
      <point x="213" y="705" type="line"/>
      <point x="198" y="605" type="line"/>
      <point x="277" y="569" type="line"/>
      <point x="253" y="606" type="line"/>
      <point x="226" y="441"/>
      <point x="186" y="178"/>
      <point x="54" y="178" type="curve" smooth="yes"/>
      <point x="42" y="178"/>
      <point x="30" y="180"/>
      <point x="17" y="184" type="curve"/>
      <point x="-32" y="4" type="line"/>
      <point x="7" y="-9"/>
      <point x="42" y="-15"/>
    </contour>
    <contour>
      <point x="625" y="105" type="line"/>
      <point x="663" y="342" type="line"/>
      <point x="626" y="312" type="line"/>
      <point x="703" y="312" type="line" smooth="yes"/>
      <point x="744" y="312"/>
      <point x="763" y="293"/>
      <point x="763" y="252" type="curve" smooth="yes"/>
      <point x="763" y="189"/>
      <point x="731" y="145"/>
      <point x="664" y="145" type="curve" smooth="yes"/>
      <point x="592" y="145" type="line"/>
    </contour>
  </outline>
</glyph>
<glyph name="Nje-cy" format="2">
  <advance width="1005"/>
  <unicode hex="040A"/>
  <guideline x="338" y="443" angle="0"/>
  <guideline x="182" y="302" angle="0"/>
  <outline>
    <contour>
      <point x="-15" y="0" type="line"/>
      <point x="297" y="0" type="line"/>
      <point x="313" y="100" type="line"/>
      <point x="244" y="132" type="line"/>
      <point x="254" y="105" type="line"/>
      <point x="288" y="318" type="line"/>
      <point x="256" y="302" type="line"/>
      <point x="501" y="302" type="line"/>
      <point x="479" y="319" type="line"/>
      <point x="445" y="105" type="line"/>
      <point x="469" y="131" type="line"/>
      <point x="389" y="100" type="line"/>
      <point x="373" y="0" type="line"/>
      <point x="657" y="0" type="line" smooth="yes"/>
      <point x="857" y="0"/>
      <point x="985" y="85"/>
      <point x="985" y="272" type="curve" smooth="yes"/>
      <point x="985" y="382"/>
      <point x="914" y="443"/>
      <point x="765" y="443" type="curve" smooth="yes"/>
      <point x="663" y="443" type="line"/>
      <point x="691" y="412" type="line"/>
      <point x="723" y="611" type="line"/>
      <point x="699" y="572" type="line"/>
      <point x="782" y="610" type="line"/>
      <point x="798" y="710" type="line"/>
      <point x="485" y="705" type="line"/>
      <point x="469" y="605" type="line"/>
      <point x="543" y="571" type="line"/>
      <point x="524" y="600" type="line"/>
      <point x="494" y="411" type="line"/>
      <point x="528" y="443" type="line"/>
      <point x="282" y="443" type="line"/>
      <point x="303" y="411" type="line"/>
      <point x="333" y="600" type="line"/>
      <point x="311" y="572" type="line"/>
      <point x="394" y="610" type="line"/>
      <point x="410" y="710" type="line"/>
      <point x="97" y="705" type="line"/>
      <point x="81" y="605" type="line"/>
      <point x="155" y="571" type="line"/>
      <point x="136" y="600" type="line"/>
      <point x="57" y="105" type="line"/>
      <point x="81" y="131" type="line"/>
      <point x="1" y="100" type="line"/>
    </contour>
    <contour>
      <point x="642" y="105" type="line"/>
      <point x="680" y="342" type="line"/>
      <point x="643" y="302" type="line"/>
      <point x="720" y="302" type="line" smooth="yes"/>
      <point x="761" y="302"/>
      <point x="780" y="285"/>
      <point x="780" y="247" type="curve" smooth="yes"/>
      <point x="780" y="189"/>
      <point x="748" y="145"/>
      <point x="681" y="145" type="curve" smooth="yes"/>
      <point x="609" y="145" type="line"/>
    </contour>
  </outline>
</glyph>
<glyph name="Dzhe-cy" format="2">
  <advance width="744"/>
  <unicode hex="040F"/>
  <guideline x="-587" y="-200" angle="0"/>
  <outline>
    <contour>
      <point x="240" y="-205" type="line"/>
      <point x="355" y="-205" type="line"/>
      <point x="417" y="20" type="line"/>
      <point x="391" y="0" type="line"/>
      <point x="674" y="0" type="line"/>
      <point x="689" y="100" type="line"/>
      <point x="615" y="134" type="line"/>
      <point x="633" y="95" type="line"/>
      <point x="711" y="611" type="line"/>
      <point x="681" y="570" type="line"/>
      <point x="771" y="610" type="line"/>
      <point x="786" y="710" type="line"/>
      <point x="473" y="705" type="line"/>
      <point x="458" y="605" type="line"/>
      <point x="537" y="569" type="line"/>
      <point x="514" y="610" type="line"/>
      <point x="436" y="95" type="line"/>
      <point x="480" y="145" type="line"/>
      <point x="240" y="145" type="line"/>
      <point x="255" y="95" type="line"/>
      <point x="334" y="611" type="line"/>
      <point x="300" y="569" type="line"/>
      <point x="394" y="610" type="line"/>
      <point x="409" y="710" type="line"/>
      <point x="96" y="705" type="line"/>
      <point x="81" y="605" type="line"/>
      <point x="162" y="569" type="line"/>
      <point x="137" y="610" type="line"/>
      <point x="59" y="95" type="line"/>
      <point x="88" y="134" type="line"/>
      <point x="0" y="100" type="line"/>
      <point x="-15" y="0" type="line"/>
      <point x="264" y="0" type="line"/>
      <point x="246" y="20" type="line"/>
    </contour>
  </outline>
</glyph>
<glyph name="Ge-cy" format="2">
  <advance width="551"/>
  <unicode hex="0413"/>
  <anchor x="314" y="0" name="bottomright"/>
  <anchor x="366" y="710" name="top"/>
  <outline>
    <contour>
      <point x="-12" y="0" type="line"/>
      <point x="314" y="0" type="line"/>
      <point x="329" y="100" type="line"/>
      <point x="238" y="132" type="line"/>
      <point x="257" y="105" type="line"/>
      <point x="335" y="595" type="line"/>
      <point x="301" y="565" type="line"/>
      <point x="476" y="565" type="line"/>
      <point x="441" y="584" type="line"/>
      <point x="451" y="474" type="line"/>
      <point x="563" y="474" type="line"/>
      <point x="601" y="710" type="line"/>
      <point x="350" y="710" type="line"/>
      <point x="100" y="705" type="line"/>
      <point x="84" y="605" type="line"/>
      <point x="159" y="571" type="line"/>
      <point x="139" y="599" type="line"/>
      <point x="60" y="105" type="line"/>
      <point x="82" y="130" type="line"/>
      <point x="4" y="100" type="line"/>
    </contour>
  </outline>
</glyph>
<glyph name="Ze-cy" format="2">
  <advance width="583"/>
  <unicode hex="0417"/>
  <guideline x="10" y="486" angle="0"/>
  <anchor x="237" y="0" name="bottom"/>
  <anchor x="347" y="710" name="top"/>
  <outline>
    <contour>
      <point x="221" y="-16" type="curve" smooth="yes"/>
      <point x="417" y="-16"/>
      <point x="546" y="84"/>
      <point x="546" y="232" type="curve" smooth="yes"/>
      <point x="546" y="323"/>
      <point x="498" y="373"/>
      <point x="373" y="381" type="curve"/>
      <point x="381" y="363" type="line"/>
      <point x="500" y="373"/>
      <point x="585" y="444"/>
      <point x="585" y="555" type="curve" smooth="yes"/>
      <point x="585" y="676"/>
      <point x="480" y="725"/>
      <point x="345" y="725" type="curve" smooth="yes"/>
      <point x="270" y="725"/>
      <point x="186" y="710"/>
      <point x="105" y="684" type="curve"/>
      <point x="87" y="486" type="line"/>
      <point x="203" y="486" type="line"/>
      <point x="231" y="585" type="line"/>
      <point x="205" y="559" type="line"/>
      <point x="242" y="571"/>
      <point x="280" y="579"/>
      <point x="311" y="579" type="curve" smooth="yes"/>
      <point x="352" y="579"/>
      <point x="382" y="564"/>
      <point x="382" y="524" type="curve" smooth="yes"/>
      <point x="382" y="476"/>
      <point x="341" y="434"/>
      <point x="268" y="434" type="curve" smooth="yes"/>
      <point x="204" y="434" type="line"/>
      <point x="182" y="292" type="line"/>
      <point x="263" y="292" type="line" smooth="yes"/>
      <point x="301" y="292"/>
      <point x="350" y="292"/>
      <point x="350" y="240" type="curve" smooth="yes"/>
      <point x="350" y="186"/>
      <point x="298" y="142"/>
      <point x="209" y="142" type="curve" smooth="yes"/>
      <point x="163" y="142"/>
      <point x="101" y="154"/>
      <point x="48" y="174" type="curve"/>
      <point x="-15" y="35" type="line"/>
      <point x="55" y="3"/>
      <point x="136" y="-16"/>
    </contour>
  </outline>
</glyph>
<glyph name="Ii-cy" format="2">
  <advance width="766"/>
  <unicode hex="0418"/>
  <guideline x="703" y="409" angle="260.9759"/>
  <guideline x="763" y="409" angle="260.9759"/>
  <guideline x="44" y="409" angle="260.9759"/>
  <guideline x="104" y="409" angle="260.9759"/>
  <guideline x="411" y="257" angle="55.5199"/>
  <guideline x="252" y="257" angle="55.5199"/>
  <anchor x="697" y="0" name="bottomright"/>
  <anchor x="463" y="710" name="top"/>
  <outline>
    <contour>
      <point x="-18" y="0" type="line"/>
      <point x="227" y="0" type="line"/>
      <point x="587" y="514" type="line"/>
      <point x="519" y="504" type="line"/>
      <point x="457" y="105" type="line"/>
      <point x="482" y="131" type="line"/>
      <point x="401" y="100" type="line"/>
      <point x="385" y="0" type="line"/>
      <point x="697" y="0" type="line"/>
      <point x="713" y="100" type="line"/>
      <point x="644" y="132" type="line"/>
      <point x="654" y="105" type="line"/>
      <point x="735" y="611" type="line"/>
      <point x="711" y="572" type="line"/>
      <point x="794" y="610" type="line"/>
      <point x="810" y="710" type="line"/>
      <point x="570" y="704" type="line"/>
      <point x="237" y="232" type="line"/>
      <point x="267" y="171" type="line"/>
      <point x="335" y="600" type="line"/>
      <point x="313" y="572" type="line"/>
      <point x="396" y="610" type="line"/>
      <point x="412" y="710" type="line"/>
      <point x="98" y="705" type="line"/>
      <point x="82" y="605" type="line"/>
      <point x="157" y="571" type="line"/>
      <point x="138" y="601" type="line"/>
      <point x="58" y="95" type="line"/>
      <point x="84" y="131" type="line"/>
      <point x="-2" y="100" type="line"/>
    </contour>
  </outline>
</glyph>
<glyph name="Pe-cy" format="2">
  <advance width="744"/>
  <unicode hex="041F"/>
  <anchor x="675" y="0" name="bottomright"/>
  <outline>
    <contour>
      <point x="-14" y="0" type="line"/>
      <point x="298" y="0" type="line"/>
      <point x="313" y="100" type="line"/>
      <point x="244" y="132" type="line"/>
      <point x="255" y="105" type="line"/>
      <point x="332" y="595" type="line"/>
      <point x="297" y="565" type="line"/>
      <point x="537" y="565" type="line"/>
      <point x="513" y="598" type="line"/>
      <point x="435" y="105" type="line"/>
      <point x="459" y="131" type="line"/>
      <point x="379" y="100" type="line"/>
      <point x="363" y="0" type="line"/>
      <point x="675" y="0" type="line"/>
      <point x="691" y="100" type="line"/>
      <point x="622" y="132" type="line"/>
      <point x="632" y="105" type="line"/>
      <point x="710" y="599" type="line"/>
      <point x="690" y="573" type="line"/>
      <point x="772" y="610" type="line"/>
      <point x="788" y="710" type="line"/>
      <point x="349" y="710" type="line"/>
      <point x="97" y="705" type="line"/>
      <point x="82" y="605" type="line"/>
      <point x="158" y="570" type="line"/>
      <point x="136" y="597" type="line"/>
      <point x="58" y="105" type="line"/>
      <point x="83" y="132" type="line"/>
      <point x="2" y="100" type="line"/>
    </contour>
  </outline>
</glyph>
<glyph name="U-cy" format="2">
  <advance width="683"/>
  <unicode hex="0423"/>
  <anchor x="415" y="710" name="top"/>
  <outline>
    <contour>
      <point x="46" y="-1" type="line"/>
      <point x="93" y="-18"/>
      <point x="135" y="-27"/>
      <point x="175" y="-27" type="curve" smooth="yes"/>
      <point x="282" y="-27"/>
      <point x="366" y="36"/>
      <point x="442" y="168" type="curve" smooth="yes"/>
      <point x="696" y="610" type="line"/>
      <point x="647" y="576" type="line"/>
      <point x="730" y="610" type="line"/>
      <point x="745" y="710" type="line"/>
      <point x="475" y="705" type="line"/>
      <point x="460" y="605" type="line"/>
      <point x="526" y="572" type="line"/>
      <point x="517" y="611" type="line"/>
      <point x="355" y="308" type="line"/>
      <point x="384" y="320" type="line"/>
      <point x="313" y="624" type="line"/>
      <point x="282" y="575" type="line"/>
      <point x="371" y="610" type="line"/>
      <point x="386" y="710" type="line"/>
      <point x="76" y="705" type="line"/>
      <point x="61" y="605" type="line"/>
      <point x="132" y="571" type="line"/>
      <point x="95" y="605" type="line"/>
      <point x="260" y="121" type="line"/>
      <point x="294" y="200" type="line"/>
      <point x="259" y="154"/>
      <point x="230" y="136"/>
      <point x="190" y="136" type="curve" smooth="yes"/>
      <point x="166" y="136"/>
      <point x="138" y="143"/>
      <point x="102" y="155" type="curve"/>
    </contour>
  </outline>
</glyph>
<glyph name="Shcha-cy" format="2">
  <advance width="1098"/>
  <unicode hex="0429"/>
  <guideline x="278" y="145" angle="0"/>
  <guideline x="-589" y="-200" angle="0"/>
  <outline>
    <contour>
      <point x="895" y="-205" type="line"/>
      <point x="1009" y="-205" type="line"/>
      <point x="1061" y="135" type="line"/>
      <point x="942" y="145" type="line"/>
      <point x="961" y="105" type="line"/>
      <point x="1039" y="599" type="line"/>
      <point x="1018" y="572" type="line"/>
      <point x="1101" y="610" type="line"/>
      <point x="1117" y="710" type="line"/>
      <point x="804" y="705" type="line"/>
      <point x="788" y="605" type="line"/>
      <point x="862" y="571" type="line"/>
      <point x="842" y="598" type="line"/>
      <point x="764" y="105" type="line"/>
      <point x="807" y="145" type="line"/>
      <point x="593" y="145" type="line"/>
      <point x="608" y="105" type="line"/>
      <point x="686" y="598" type="line"/>
      <point x="665" y="572" type="line"/>
      <point x="743" y="610" type="line"/>
      <point x="759" y="710" type="line"/>
      <point x="451" y="705" type="line"/>
      <point x="435" y="605" type="line"/>
      <point x="509" y="571" type="line"/>
      <point x="489" y="597" type="line"/>
      <point x="411" y="105" type="line"/>
      <point x="457" y="145" type="line"/>
      <point x="241" y="145" type="line"/>
      <point x="255" y="105" type="line"/>
      <point x="333" y="598" type="line"/>
      <point x="312" y="572" type="line"/>
      <point x="390" y="610" type="line"/>
      <point x="406" y="710" type="line"/>
      <point x="98" y="705" type="line"/>
      <point x="82" y="605" type="line"/>
      <point x="156" y="571" type="line"/>
      <point x="136" y="597" type="line"/>
      <point x="58" y="105" type="line"/>
      <point x="82" y="131" type="line"/>
      <point x="2" y="100" type="line"/>
      <point x="-14" y="0" type="line"/>
      <point x="894" y="0" type="line"/>
      <point x="864" y="18" type="line"/>
    </contour>
  </outline>
</glyph>
<glyph name="Yeru-cy" format="2">
  <advance width="944"/>
  <unicode hex="042B"/>
  <anchor x="550" y="710" name="top"/>
  <outline>
    <contour>
      <point x="-15" y="0" type="line"/>
      <point x="264" y="0" type="line" smooth="yes"/>
      <point x="464" y="0"/>
      <point x="592" y="85"/>
      <point x="592" y="272" type="curve" smooth="yes"/>
      <point x="592" y="382"/>
      <point x="521" y="447"/>
      <point x="372" y="447" type="curve" smooth="yes"/>
      <point x="275" y="447" type="line"/>
      <point x="303" y="412" type="line"/>
      <point x="332" y="595" type="line"/>
      <point x="297" y="569" type="line"/>
      <point x="391" y="610" type="line"/>
      <point x="406" y="710" type="line"/>
      <point x="97" y="705" type="line"/>
      <point x="81" y="605" type="line"/>
      <point x="155" y="570" type="line"/>
      <point x="136" y="600" type="line"/>
      <point x="57" y="105" type="line"/>
      <point x="81" y="131" type="line"/>
      <point x="1" y="100" type="line"/>
    </contour>
    <contour>
      <point x="254" y="105" type="line"/>
      <point x="292" y="342" type="line"/>
      <point x="255" y="312" type="line"/>
      <point x="327" y="312" type="line" smooth="yes"/>
      <point x="368" y="312"/>
      <point x="387" y="294"/>
      <point x="387" y="252" type="curve" smooth="yes"/>
      <point x="387" y="189"/>
      <point x="355" y="145"/>
      <point x="288" y="145" type="curve" smooth="yes"/>
      <point x="221" y="145" type="line"/>
    </contour>
    <contour>
      <point x="972" y="610" type="line"/>
      <point x="988" y="710" type="line"/>
      <point x="675" y="705" type="line"/>
      <point x="659" y="605" type="line"/>
      <point x="733" y="571" type="line"/>
      <point x="714" y="600" type="line"/>
      <point x="635" y="105" type="line"/>
      <point x="659" y="131" type="line"/>
      <point x="579" y="100" type="line"/>
      <point x="563" y="0" type="line"/>
      <point x="875" y="0" type="line"/>
      <point x="891" y="100" type="line"/>
      <point x="822" y="132" type="line"/>
      <point x="832" y="105" type="line"/>
      <point x="911" y="600" type="line"/>
      <point x="889" y="572" type="line"/>
    </contour>
  </outline>
</glyph>
<glyph name="Ereversed-cy" format="2">
  <advance width="628"/>
  <unicode hex="042D"/>
  <guideline x="-34" y="475" angle="0"/>
  <anchor x="381" y="710" name="top"/>
  <outline>
    <contour>
      <point x="-11" y="76" type="line"/>
      <point x="67" y="13"/>
      <point x="153" y="-15"/>
      <point x="235" y="-15" type="curve" smooth="yes"/>
      <point x="438" y="-15"/>
      <point x="621" y="161"/>
      <point x="621" y="436" type="curve" smooth="yes"/>
      <point x="621" y="638"/>
      <point x="523" y="725"/>
      <point x="359" y="725" type="curve" smooth="yes"/>
      <point x="287" y="725"/>
      <point x="198" y="708"/>
      <point x="96" y="671" type="curve"/>
      <point x="81" y="475" type="line"/>
      <point x="197" y="475" type="line"/>
      <point x="240" y="582" type="line"/>
      <point x="201" y="551" type="line"/>
      <point x="246" y="562"/>
      <point x="283" y="570"/>
      <point x="319" y="570" type="curve" smooth="yes"/>
      <point x="392" y="570"/>
      <point x="417" y="536"/>
      <point x="417" y="436" type="curve" smooth="yes"/>
      <point x="417" y="252"/>
      <point x="335" y="147"/>
      <point x="223" y="147" type="curve" smooth="yes"/>
      <point x="177" y="147"/>
      <point x="126" y="164"/>
      <point x="74" y="201" type="curve"/>
    </contour>
    <contour>
      <point x="188" y="291" type="line"/>
      <point x="408" y="291" type="line"/>
      <point x="430" y="426" type="line"/>
      <point x="210" y="426" type="line"/>
    </contour>
  </outline>
</glyph>
<glyph name="be-cy" format="2">
  <advance width="597"/>
  <unicode hex="0431"/>
  <outline>
    <contour>
      <point x="261" y="-14" type="curve" smooth="yes"/>
      <point x="485" y="-14"/>
      <point x="586" y="176"/>
      <point x="586" y="335" type="curve" smooth="yes"/>
      <point x="586" y="467"/>
      <point x="513" y="532"/>
      <point x="415" y="532" type="curve" smooth="yes"/>
      <point x="355" y="532"/>
      <point x="287" y="508"/>
      <point x="220" y="462" type="curve"/>
      <point x="211" y="338" type="line"/>
      <point x="248" y="369"/>
      <point x="289" y="385"/>
      <point x="322" y="385" type="curve" smooth="yes"/>
      <point x="356" y="385"/>
      <point x="381" y="368"/>
      <point x="381" y="309" type="curve" smooth="yes"/>
      <point x="381" y="252"/>
      <point x="358" y="144"/>
      <point x="283" y="144" type="curve" smooth="yes"/>
      <point x="241" y="144"/>
      <point x="230" y="178"/>
      <point x="230" y="235" type="curve" smooth="yes"/>
      <point x="230" y="328"/>
      <point x="232" y="514"/>
      <point x="347" y="571" type="curve" smooth="yes"/>
      <point x="407" y="600"/>
      <point x="492" y="590"/>
      <point x="631" y="637" type="curve"/>
      <point x="595" y="816" type="line"/>
      <point x="502" y="790"/>
      <point x="405" y="772"/>
      <point x="354" y="757" type="curve" smooth="yes"/>
      <point x="147" y="694"/>
      <point x="28" y="461"/>
      <point x="28" y="248" type="curve" smooth="yes"/>
      <point x="28" y="46"/>
      <point x="135" y="-14"/>
    </contour>
  </outline>
</glyph>
<glyph name="ge-cy" format="2">
  <advance width="522"/>
  <unicode hex="0433"/>
  <anchor x="294" y="0" name="bottomright"/>
  <anchor x="324" y="540" name="top"/>
  <outline>
    <contour>
      <point x="104" y="456" type="line"/>
      <point x="50" y="96" type="line"/>
      <point x="71" y="128" type="line"/>
      <point x="-3" y="100" type="line"/>
      <point x="-18" y="0" type="line"/>
      <point x="294" y="0" type="line"/>
      <point x="309" y="100" type="line"/>
      <point x="164" y="150" type="line"/>
      <point x="232" y="30" type="line"/>
      <point x="289" y="413" type="line"/>
      <point x="278" y="395" type="line"/>
      <point x="409" y="395" type="line"/>
      <point x="390" y="418" type="line"/>
      <point x="389" y="291" type="line"/>
      <point x="504" y="291" type="line"/>
      <point x="550" y="540" type="line"/>
      <point x="311" y="540" type="line"/>
      <point x="64" y="536" type="line"/>
      <point x="48" y="436" type="line"/>
      <point x="116" y="406" type="line"/>
    </contour>
  </outline>
</glyph>
<glyph name="ka-cy" format="2">
  <advance width="610"/>
  <unicode hex="043A"/>
  <anchor x="556" y="0" name="bottomright"/>
  <anchor x="293" y="298" name="center"/>
  <anchor x="336" y="540" name="top"/>
  <outline>
    <contour>
      <point x="24" y="0" type="line"/>
      <point x="216" y="0" type="line"/>
      <point x="255" y="245" type="line"/>
      <point x="222" y="222" type="line"/>
      <point x="320" y="222" type="line"/>
      <point x="296" y="242" type="line"/>
      <point x="361" y="0" type="line"/>
      <point x="556" y="0" type="line"/>
      <point x="572" y="100" type="line"/>
      <point x="505" y="123" type="line"/>
      <point x="526" y="99" type="line"/>
      <point x="453" y="330" type="line"/>
      <point x="441" y="283" type="line"/>
      <point x="586" y="453" type="line"/>
      <point x="532" y="424" type="line"/>
      <point x="609" y="445" type="line"/>
      <point x="625" y="545" type="line"/>
      <point x="367" y="535" type="line"/>
      <point x="351" y="435" type="line"/>
      <point x="404" y="420" type="line"/>
      <point x="394" y="439" type="line"/>
      <point x="304" y="332" type="line"/>
      <point x="356" y="352" type="line"/>
      <point x="243" y="352" type="line"/>
      <point x="268" y="328" type="line"/>
      <point x="303" y="545" type="line"/>
      <point x="45" y="537" type="line"/>
      <point x="29" y="437" type="line"/>
      <point x="173" y="382" type="line"/>
      <point x="104" y="505" type="line"/>
    </contour>
  </outline>
</glyph>
<glyph name="el-cy" format="2">
  <advance width="599"/>
  <unicode hex="043B"/>
  <anchor x="554" y="0" name="bottomright"/>
  <outline>
    <contour>
      <point x="-43" y="3" type="line"/>
      <point x="-7" y="-9"/>
      <point x="27" y="-15"/>
      <point x="56" y="-15" type="curve" smooth="yes"/>
      <point x="206" y="-15"/>
      <point x="251" y="155"/>
      <point x="306" y="442" type="curve"/>
      <point x="243" y="395" type="line"/>
      <point x="389" y="395" type="line"/>
      <point x="369" y="451" type="line"/>
      <point x="301" y="-6" type="line"/>
      <point x="554" y="0" type="line"/>
      <point x="569" y="100" type="line"/>
      <point x="501" y="127" type="line"/>
      <point x="511" y="112" type="line"/>
      <point x="574" y="540" type="line"/>
      <point x="110" y="540" type="line"/>
      <point x="94" y="440" type="line"/>
      <point x="203" y="397" type="line"/>
      <point x="163" y="462" type="line"/>
      <point x="129" y="293"/>
      <point x="115" y="156"/>
      <point x="18" y="156" type="curve" smooth="yes"/>
      <point x="11" y="156"/>
      <point x="2" y="157"/>
      <point x="-6" y="158" type="curve"/>
    </contour>
  </outline>
</glyph>
<glyph name="em-cy" format="2">
  <advance width="776"/>
  <unicode hex="043C"/>
  <anchor x="732" y="0" name="bottomright"/>
  <outline>
    <contour>
      <point x="-44" y="3" type="line"/>
      <point x="-7" y="-9"/>
      <point x="26" y="-15"/>
      <point x="56" y="-15" type="curve" smooth="yes"/>
      <point x="204" y="-15"/>
      <point x="249" y="155"/>
      <point x="306" y="442" type="curve"/>
      <point x="266" y="360" type="line"/>
      <point x="325" y="81" type="line"/>
      <point x="412" y="84" type="line"/>
      <point x="585" y="378" type="line"/>
      <point x="556" y="378" type="line"/>
      <point x="497" y="-6" type="line"/>
      <point x="732" y="0" type="line"/>
      <point x="748" y="100" type="line"/>
      <point x="669" y="131" type="line"/>
      <point x="682" y="93" type="line"/>
      <point x="753" y="544" type="line"/>
      <point x="546" y="538" type="line"/>
      <point x="360" y="222" type="line"/>
      <point x="446" y="222" type="line"/>
      <point x="384" y="544" type="line"/>
      <point x="110" y="538" type="line"/>
      <point x="94" y="440" type="line"/>
      <point x="186" y="404" type="line"/>
      <point x="163" y="462" type="line"/>
      <point x="127" y="293"/>
      <point x="113" y="156"/>
      <point x="18" y="156" type="curve" smooth="yes"/>
      <point x="11" y="156"/>
      <point x="1" y="157"/>
      <point x="-7" y="159" type="curve"/>
    </contour>
  </outline>
</glyph>
<glyph name="en-cy" format="2">
  <advance width="639"/>
  <unicode hex="043D"/>
  <guideline x="98" y="472" angle="261"/>
  <guideline x="290" y="472" angle="261"/>
  <guideline x="411" y="472" angle="261"/>
  <guideline x="603" y="472" angle="261"/>
  <anchor x="597" y="0" name="bottomright"/>
  <outline>
    <contour>
      <point x="24" y="0" type="line"/>
      <point x="216" y="0" type="line"/>
      <point x="257" y="268" type="line"/>
      <point x="197" y="208" type="line"/>
      <point x="418" y="208" type="line"/>
      <point x="378" y="261" type="line"/>
      <point x="335" y="-6" type="line"/>
      <point x="597" y="0" type="line"/>
      <point x="612" y="100" type="line"/>
      <point x="524" y="134" type="line"/>
      <point x="544" y="99" type="line"/>
      <point x="614" y="540" type="line"/>
      <point x="422" y="540" type="line"/>
      <point x="382" y="287" type="line"/>
      <point x="444" y="349" type="line"/>
      <point x="222" y="349" type="line"/>
      <point x="262" y="296" type="line"/>
      <point x="301" y="544" type="line"/>
      <point x="46" y="536" type="line"/>
      <point x="30" y="436" type="line"/>
      <point x="105" y="408" type="line"/>
      <point x="95" y="456" type="line"/>
    </contour>
  </outline>
</glyph>
<glyph name="pe-cy" format="2">
  <advance width="659"/>
  <unicode hex="043F"/>
  <anchor x="601" y="0" name="bottomright"/>
  <outline>
    <contour>
      <point x="343" y="-6" type="line"/>
      <point x="601" y="0" type="line"/>
      <point x="617" y="100" type="line"/>
      <point x="525" y="137" type="line"/>
      <point x="548" y="75" type="line"/>
      <point x="610" y="470" type="line"/>
      <point x="564" y="398" type="line"/>
      <point x="660" y="440" type="line"/>
      <point x="676" y="540" type="line"/>
      <point x="314" y="540" type="line"/>
      <point x="58" y="536" type="line"/>
      <point x="42" y="436" type="line"/>
      <point x="146" y="395" type="line"/>
      <point x="109" y="465" type="line"/>
      <point x="48" y="75" type="line"/>
      <point x="95" y="137" type="line"/>
      <point x="-1" y="100" type="line"/>
      <point x="-16" y="0" type="line"/>
      <point x="272" y="0" type="line"/>
      <point x="287" y="100" type="line"/>
      <point x="221" y="131" type="line"/>
      <point x="240" y="75" type="line"/>
      <point x="298" y="445" type="line"/>
      <point x="241" y="395" type="line"/>
      <point x="454" y="395" type="line"/>
      <point x="414" y="445" type="line"/>
    </contour>
  </outline>
</glyph>
<glyph name="hardsign-cy" format="2">
  <advance width="660"/>
  <unicode hex="044A"/>
  <guideline x="584" y="440" angle="0"/>
  <outline>
    <contour>
      <point x="136" y="0" type="line"/>
      <point x="355" y="0" type="line" smooth="yes"/>
      <point x="403" y="0"/>
      <point x="641" y="0"/>
      <point x="641" y="211" type="curve" smooth="yes"/>
      <point x="641" y="376"/>
      <point x="495" y="376"/>
      <point x="441" y="376" type="curve" smooth="yes"/>
      <point x="361" y="376" type="line"/>
      <point x="379" y="339" type="line"/>
      <point x="408" y="540" type="line"/>
      <point x="58" y="540" type="line"/>
      <point x="22" y="325" type="line"/>
      <point x="140" y="325" type="line"/>
      <point x="182" y="432" type="line"/>
      <point x="139" y="395" type="line"/>
      <point x="234" y="395" type="line"/>
      <point x="201" y="429" type="line"/>
    </contour>
    <contour>
      <point x="346" y="104" type="line"/>
      <point x="370" y="270" type="line"/>
      <point x="337" y="246" type="line"/>
      <point x="393" y="246" type="line" smooth="yes"/>
      <point x="417" y="246"/>
      <point x="445" y="246"/>
      <point x="445" y="203" type="curve" smooth="yes"/>
      <point x="445" y="173"/>
      <point x="432" y="130"/>
      <point x="366" y="130" type="curve" smooth="yes"/>
      <point x="322" y="130" type="line"/>
    </contour>
  </outline>
</glyph>
<glyph name="tshe-cy" format="2">
  <advance width="616"/>
  <unicode hex="045B"/>
  <guideline x="43" y="574" angle="261"/>
  <outline>
    <contour>
      <point x="314" y="-6" type="line"/>
      <point x="573" y="0" type="line"/>
      <point x="590" y="103" type="line"/>
      <point x="440" y="160" type="line"/>
      <point x="524" y="99" type="line"/>
      <point x="554" y="295" type="line" smooth="yes"/>
      <point x="571" y="404"/>
      <point x="522" y="488"/>
      <point x="422" y="488" type="curve" smooth="yes"/>
      <point x="321" y="488"/>
      <point x="203" y="404"/>
      <point x="172" y="221" type="curve"/>
      <point x="247" y="332" type="line"/>
      <point x="331" y="785" type="line"/>
      <point x="75" y="776" type="line"/>
      <point x="59" y="672" type="line"/>
      <point x="145" y="646" type="line"/>
      <point x="123" y="676" type="line"/>
      <point x="16" y="0" type="line"/>
      <point x="209" y="0" type="line"/>
      <point x="237" y="179" type="line" smooth="yes"/>
      <point x="253" y="282"/>
      <point x="290" y="336"/>
      <point x="331" y="336" type="curve" smooth="yes"/>
      <point x="368" y="336"/>
      <point x="362" y="292"/>
      <point x="355" y="248" type="curve" smooth="yes"/>
    </contour>
    <contour>
      <point x="35" y="527" type="line"/>
      <point x="395" y="527" type="line"/>
      <point x="412" y="632" type="line"/>
      <point x="52" y="632" type="line"/>
    </contour>
  </outline>
</glyph>
<glyph name="yusbig-cy" format="2">
  <advance width="838"/>
  <unicode hex="046B"/>
  <guideline x="-36" y="329" angle="0"/>
  <guideline x="317" y="501" angle="90"/>
  <outline>
    <contour>
      <point x="-45" y="0" type="line"/>
      <point x="143" y="0" type="line"/>
      <point x="259" y="171" type="line" smooth="yes"/>
      <point x="272" y="192"/>
      <point x="285" y="209"/>
      <point x="310" y="209" type="curve" smooth="yes"/>
      <point x="349" y="209" type="line"/>
      <point x="323" y="234" type="line"/>
      <point x="304" y="95" type="line"/>
      <point x="330" y="129" type="line"/>
      <point x="256" y="100" type="line"/>
      <point x="240" y="0" type="line"/>
      <point x="508" y="0" type="line"/>
      <point x="523" y="100" type="line"/>
      <point x="465" y="130" type="line"/>
      <point x="477" y="95" type="line"/>
      <point x="496" y="234" type="line"/>
      <point x="462" y="209" type="line"/>
      <point x="519" y="209" type="line" smooth="yes"/>
      <point x="541" y="209"/>
      <point x="545" y="207"/>
      <point x="553" y="184" type="curve" smooth="yes"/>
      <point x="611" y="0" type="line"/>
      <point x="797" y="0" type="line"/>
      <point x="813" y="100" type="line"/>
      <point x="750" y="123" type="line"/>
      <point x="770" y="99" type="line"/>
      <point x="704" y="245" type="line" smooth="yes"/>
      <point x="685" y="294"/>
      <point x="655" y="329"/>
      <point x="597" y="329" type="curve" smooth="yes"/>
      <point x="532" y="329" type="line"/>
      <point x="528" y="270" type="line"/>
      <point x="734" y="453" type="line"/>
      <point x="746" y="540" type="line"/>
      <point x="164" y="540" type="line"/>
      <point x="152" y="453" type="line"/>
      <point x="299" y="270" type="line"/>
      <point x="312" y="329" type="line"/>
      <point x="234" y="329" type="line" smooth="yes"/>
      <point x="186" y="329"/>
      <point x="156" y="305"/>
      <point x="120" y="256" type="curve" smooth="yes"/>
      <point x="12" y="99" type="line"/>
      <point x="42" y="123" type="line"/>
      <point x="-29" y="100" type="line"/>
    </contour>
    <contour>
      <point x="407" y="309" type="line"/>
      <point x="444" y="309" type="line"/>
      <point x="338" y="459" type="line"/>
      <point x="329" y="420" type="line"/>
      <point x="555" y="420" type="line"/>
      <point x="560" y="459" type="line"/>
    </contour>
  </outline>
</glyph>
<glyph name="Semisoftsign-cy" format="2">
  <advance width="626"/>
  <unicode hex="048C"/>
  <guideline x="56" y="390" angle="261"/>
  <outline>
    <contour>
      <point x="70" y="477" type="line"/>
      <point x="460" y="477" type="line"/>
      <point x="474" y="567" type="line"/>
      <point x="84" y="567" type="line"/>
    </contour>
    <contour>
      <point x="-6" y="0" type="line"/>
      <point x="278" y="0" type="line" smooth="yes"/>
      <point x="478" y="0"/>
      <point x="606" y="85"/>
      <point x="606" y="272" type="curve" smooth="yes"/>
      <point x="606" y="382"/>
      <point x="535" y="447"/>
      <point x="386" y="447" type="curve" smooth="yes"/>
      <point x="284" y="447" type="line"/>
      <point x="312" y="412" type="line"/>
      <point x="341" y="595" type="line"/>
      <point x="306" y="569" type="line"/>
      <point x="400" y="610" type="line"/>
      <point x="415" y="710" type="line"/>
      <point x="106" y="705" type="line"/>
      <point x="90" y="605" type="line"/>
      <point x="164" y="570" type="line"/>
      <point x="145" y="600" type="line"/>
      <point x="66" y="105" type="line"/>
      <point x="90" y="131" type="line"/>
      <point x="10" y="100" type="line"/>
    </contour>
    <contour>
      <point x="263" y="105" type="line"/>
      <point x="301" y="342" type="line"/>
      <point x="264" y="312" type="line"/>
      <point x="341" y="312" type="line" smooth="yes"/>
      <point x="382" y="312"/>
      <point x="401" y="294"/>
      <point x="401" y="252" type="curve" smooth="yes"/>
      <point x="401" y="189"/>
      <point x="369" y="145"/>
      <point x="302" y="145" type="curve" smooth="yes"/>
      <point x="230" y="145" type="line"/>
    </contour>
  </outline>
</glyph>
<glyph name="kaverticalstroke-cy" format="2">
  <advance width="680"/>
  <unicode hex="049D"/>
  <outline>
    <contour>
      <point x="24" y="0" type="line"/>
      <point x="216" y="0" type="line"/>
      <point x="255" y="245" type="line"/>
      <point x="222" y="222" type="line"/>
      <point x="390" y="222" type="line"/>
      <point x="362" y="238" type="line"/>
      <point x="431" y="0" type="line"/>
      <point x="626" y="0" type="line"/>
      <point x="642" y="100" type="line"/>
      <point x="575" y="123" type="line"/>
      <point x="596" y="99" type="line"/>
      <point x="519" y="326" type="line"/>
      <point x="506" y="263" type="line"/>
      <point x="656" y="453" type="line"/>
      <point x="602" y="424" type="line"/>
      <point x="679" y="445" type="line"/>
      <point x="695" y="545" type="line"/>
      <point x="437" y="535" type="line"/>
      <point x="421" y="435" type="line"/>
      <point x="474" y="420" type="line"/>
      <point x="464" y="439" type="line"/>
      <point x="369" y="312" type="line"/>
      <point x="426" y="352" type="line"/>
      <point x="243" y="352" type="line"/>
      <point x="268" y="328" type="line"/>
      <point x="303" y="545" type="line"/>
      <point x="45" y="537" type="line"/>
      <point x="29" y="437" type="line"/>
      <point x="173" y="382" type="line"/>
      <point x="104" y="505" type="line"/>
    </contour>
    <contour>
      <point x="268" y="139" type="line"/>
      <point x="340" y="139" type="line"/>
      <point x="384" y="414" type="line"/>
      <point x="312" y="414" type="line"/>
    </contour>
  </outline>
</glyph>
<glyph name="Haabkhasian-cy" format="2">
  <advance width="885"/>
  <unicode hex="04A8"/>
  <outline>
    <contour>
      <point x="339" y="-15" type="curve" smooth="yes"/>
      <point x="569" y="-15"/>
      <point x="835" y="158"/>
      <point x="835" y="397" type="curve" smooth="yes"/>
      <point x="835" y="527"/>
      <point x="756" y="606"/>
      <point x="615" y="606" type="curve" smooth="yes"/>
      <point x="435" y="606"/>
      <point x="322" y="478"/>
      <point x="322" y="309" type="curve" smooth="yes"/>
      <point x="322" y="111"/>
      <point x="477" y="-16"/>
      <point x="647" y="-16" type="curve" smooth="yes"/>
      <point x="715" y="-16"/>
      <point x="784" y="4"/>
      <point x="847" y="49" type="curve"/>
      <point x="794" y="162" type="line"/>
      <point x="746" y="133"/>
      <point x="700" y="119"/>
      <point x="660" y="119" type="curve" smooth="yes"/>
      <point x="579" y="119"/>
      <point x="522" y="175"/>
      <point x="522" y="304" type="curve" smooth="yes"/>
      <point x="522" y="395"/>
      <point x="550" y="472"/>
      <point x="596" y="472" type="curve" smooth="yes"/>
      <point x="627" y="472"/>
      <point x="635" y="438"/>
      <point x="635" y="396" type="curve" smooth="yes"/>
      <point x="635" y="241"/>
      <point x="525" y="120"/>
      <point x="379" y="120" type="curve" smooth="yes"/>
      <point x="261" y="120"/>
      <point x="238" y="198"/>
      <point x="238" y="277" type="curve" smooth="yes"/>
      <point x="238" y="419"/>
      <point x="311" y="567"/>
      <point x="429" y="589" type="curve"/>
      <point x="436" y="725" type="line"/>
      <point x="176" y="715"/>
      <point x="33" y="500"/>
      <point x="33" y="297" type="curve" smooth="yes"/>
      <point x="33" y="134"/>
      <point x="126" y="-15"/>
    </contour>
  </outline>
</glyph>
<glyph name="haabkhasian-cy" format="2">
  <advance width="739"/>
  <unicode hex="04A9"/>
  <guideline x="604" y="575" angle="90"/>
  <outline>
    <contour>
      <point x="273" y="-14" type="curve" smooth="yes"/>
      <point x="467" y="-14"/>
      <point x="689" y="115"/>
      <point x="689" y="294" type="curve" smooth="yes"/>
      <point x="689" y="417"/>
      <point x="586" y="471"/>
      <point x="487" y="471" type="curve" smooth="yes"/>
      <point x="368" y="471"/>
      <point x="248" y="392"/>
      <point x="248" y="246" type="curve" smooth="yes"/>
      <point x="248" y="90"/>
      <point x="385" y="-15"/>
      <point x="533" y="-15" type="curve" smooth="yes"/>
      <point x="592" y="-15"/>
      <point x="653" y="2"/>
      <point x="708" y="37" type="curve"/>
      <point x="658" y="138" type="line"/>
      <point x="623" y="117"/>
      <point x="586" y="107"/>
      <point x="551" y="107" type="curve" smooth="yes"/>
      <point x="481" y="107"/>
      <point x="423" y="151"/>
      <point x="423" y="238" type="curve" smooth="yes"/>
      <point x="423" y="294"/>
      <point x="447" y="340"/>
      <point x="481" y="340" type="curve" smooth="yes"/>
      <point x="504" y="340"/>
      <point x="515" y="318"/>
      <point x="515" y="289" type="curve" smooth="yes"/>
      <point x="515" y="220"/>
      <point x="454" y="110"/>
      <point x="307" y="110" type="curve" smooth="yes"/>
      <point x="228" y="110"/>
      <point x="191" y="142"/>
      <point x="191" y="231" type="curve" smooth="yes"/>
      <point x="191" y="316"/>
      <point x="224" y="418"/>
      <point x="326" y="437" type="curve"/>
      <point x="309" y="555" type="line"/>
      <point x="133" y="549"/>
      <point x="14" y="420"/>
      <point x="14" y="233" type="curve" smooth="yes"/>
      <point x="14" y="50"/>
      <point x="136" y="-14"/>
    </contour>
  </outline>
</glyph>
<glyph name="kahook-cy" format="2">
  <advance width="621"/>
  <unicode hex="04C4"/>
  <outline>
    <contour>
      <point x="301" y="229" type="line"/>
      <point x="357" y="163"/>
      <point x="387" y="103"/>
      <point x="387" y="28" type="curve" smooth="yes"/>
      <point x="387" y="-37"/>
      <point x="364" y="-83"/>
      <point x="255" y="-126" type="curve"/>
      <point x="306" y="-245" type="line"/>
      <point x="471" y="-198"/>
      <point x="575" y="-105"/>
      <point x="575" y="40" type="curve" smooth="yes"/>
      <point x="575" y="132"/>
      <point x="529" y="226"/>
      <point x="444" y="306" type="curve"/>
      <point x="440" y="281" type="line"/>
      <point x="586" y="453" type="line"/>
      <point x="532" y="424" type="line"/>
      <point x="609" y="445" type="line"/>
      <point x="625" y="545" type="line"/>
      <point x="367" y="535" type="line"/>
      <point x="351" y="435" type="line"/>
      <point x="404" y="420" type="line"/>
      <point x="394" y="439" type="line"/>
      <point x="304" y="332" type="line"/>
      <point x="362" y="352" type="line"/>
      <point x="243" y="352" type="line"/>
      <point x="268" y="328" type="line"/>
      <point x="303" y="545" type="line"/>
      <point x="45" y="537" type="line"/>
      <point x="29" y="436" type="line"/>
      <point x="173" y="382" type="line"/>
      <point x="104" y="505" type="line"/>
      <point x="24" y="0" type="line"/>
      <point x="216" y="0" type="line"/>
      <point x="255" y="245" type="line"/>
      <point x="223" y="222" type="line"/>
      <point x="321" y="222" type="line"/>
    </contour>
  </outline>
</glyph>
<glyph name="Enhook-cy" format="2">
  <advance width="745"/>
  <unicode hex="04C7"/>
  <outline>
    <contour>
      <point x="359" y="-245" type="curve" smooth="yes"/>
      <point x="515" y="-245"/>
      <point x="605" y="-146"/>
      <point x="635" y="42" type="curve" smooth="yes"/>
      <point x="724" y="600" type="line"/>
      <point x="702" y="572" type="line"/>
      <point x="785" y="610" type="line"/>
      <point x="801" y="710" type="line"/>
      <point x="488" y="705" type="line"/>
      <point x="472" y="605" type="line"/>
      <point x="546" y="571" type="line"/>
      <point x="527" y="600" type="line"/>
      <point x="497" y="411" type="line"/>
      <point x="531" y="435" type="line"/>
      <point x="285" y="435" type="line"/>
      <point x="306" y="411" type="line"/>
      <point x="336" y="600" type="line"/>
      <point x="314" y="572" type="line"/>
      <point x="397" y="610" type="line"/>
      <point x="413" y="710" type="line"/>
      <point x="100" y="705" type="line"/>
      <point x="84" y="605" type="line"/>
      <point x="158" y="571" type="line"/>
      <point x="139" y="600" type="line"/>
      <point x="60" y="105" type="line"/>
      <point x="84" y="131" type="line"/>
      <point x="4" y="100" type="line"/>
      <point x="-12" y="0" type="line"/>
      <point x="300" y="0" type="line"/>
      <point x="316" y="100" type="line"/>
      <point x="247" y="132" type="line"/>
      <point x="257" y="105" type="line"/>
      <point x="291" y="318" type="line"/>
      <point x="259" y="290" type="line"/>
      <point x="504" y="290" type="line"/>
      <point x="482" y="319" type="line"/>
      <point x="429" y="-7" type="line" smooth="yes"/>
      <point x="422" y="-52"/>
      <point x="410" y="-100"/>
      <point x="338" y="-100" type="curve" smooth="yes"/>
      <point x="328" y="-100"/>
      <point x="313" y="-99"/>
      <point x="297" y="-96" type="curve"/>
      <point x="265" y="-235" type="line"/>
      <point x="299" y="-242"/>
      <point x="330" y="-245"/>
    </contour>
  </outline>
</glyph>
<glyph name="Schwa-cy" format="2">
  <advance width="646"/>
  <unicode hex="04D8"/>
  <guideline x="373" y="400" angle="90"/>
  <guideline x="-15" y="473" angle="90"/>
  <anchor x="391" y="710" name="top"/>
  <outline>
    <contour>
      <point x="267" y="-15" type="curve" smooth="yes"/>
      <point x="492" y="-15"/>
      <point x="640" y="203"/>
      <point x="640" y="432" type="curve" smooth="yes"/>
      <point x="640" y="628"/>
      <point x="532" y="724"/>
      <point x="380" y="724" type="curve" smooth="yes"/>
      <point x="296" y="724"/>
      <point x="197" y="695"/>
      <point x="93" y="626" type="curve"/>
      <point x="157" y="505" type="line"/>
      <point x="222" y="542"/>
      <point x="280" y="563"/>
      <point x="330" y="563" type="curve" smooth="yes"/>
      <point x="401" y="563"/>
      <point x="432" y="520"/>
      <point x="432" y="420" type="curve" smooth="yes"/>
      <point x="432" y="316"/>
      <point x="399" y="140"/>
      <point x="287" y="140" type="curve" smooth="yes"/>
      <point x="252" y="140"/>
      <point x="232" y="157"/>
      <point x="232" y="207" type="curve" smooth="yes"/>
      <point x="232" y="227"/>
      <point x="235" y="254"/>
      <point x="240" y="287" type="curve"/>
      <point x="218" y="271" type="line"/>
      <point x="500" y="271" type="line"/>
      <point x="521" y="406" type="line"/>
      <point x="56" y="412" type="line"/>
      <point x="40" y="358"/>
      <point x="26" y="291"/>
      <point x="26" y="231" type="curve" smooth="yes"/>
      <point x="26" y="71"/>
      <point x="126" y="-15"/>
    </contour>
  </outline>
</glyph>
<glyph name="Dzeabkhasian-cy" format="2">
  <advance width="578"/>
  <unicode hex="04E0"/>
  <guideline x="31" y="486" angle="0"/>
  <guideline x="364" y="453" angle="90"/>
  <outline>
    <contour>
      <point x="214" y="-14" type="curve" smooth="yes"/>
      <point x="413" y="-14"/>
      <point x="548" y="97"/>
      <point x="548" y="252" type="curve" smooth="yes"/>
      <point x="548" y="352"/>
      <point x="491" y="430"/>
      <point x="392" y="430" type="curve"/>
      <point x="406" y="382" type="line"/>
      <point x="570" y="568" type="line"/>
      <point x="591" y="710" type="line"/>
      <point x="116" y="710" type="line"/>
      <point x="84" y="484" type="line"/>
      <point x="199" y="484" type="line"/>
      <point x="236" y="574" type="line"/>
      <point x="199" y="550" type="line"/>
      <point x="399" y="550" type="line"/>
      <point x="394" y="581" type="line"/>
      <point x="258" y="416" type="line"/>
      <point x="284" y="435" type="line"/>
      <point x="178" y="415" type="line"/>
      <point x="159" y="297" type="line"/>
      <point x="245" y="297" type="line" smooth="yes"/>
      <point x="286" y="297"/>
      <point x="349" y="297"/>
      <point x="349" y="236" type="curve" smooth="yes"/>
      <point x="349" y="175"/>
      <point x="287" y="142"/>
      <point x="206" y="142" type="curve" smooth="yes"/>
      <point x="157" y="142"/>
      <point x="100" y="154"/>
      <point x="47" y="174" type="curve"/>
      <point x="-16" y="35" type="line"/>
      <point x="59" y="2"/>
      <point x="139" y="-14"/>
    </contour>
  </outline>
</glyph>
<glyph name="gedescender-cy" format="2">
  <advance width="505"/>
  <unicode hex="04F7"/>
  <outline>
    <contour>
      <point x="304" y="23" type="line"/>
      <point x="152" y="23" type="line"/>
      <point x="129" y="-185" type="line"/>
      <point x="244" y="-185" type="line"/>
    </contour>
    <contour>
      <point x="235" y="-16" type="curve" smooth="yes"/>
      <point x="340" y="-16"/>
      <point x="460" y="21"/>
      <point x="540" y="87" type="curve"/>
      <point x="506" y="-20" type="line"/>
      <point x="424" y="185" type="line"/>
      <point x="449" y="192" type="line"/>
      <point x="412" y="165"/>
      <point x="314" y="134"/>
      <point x="256" y="134" type="curve" smooth="yes"/>
      <point x="230" y="134"/>
      <point x="212" y="140"/>
      <point x="212" y="157" type="curve" smooth="yes"/>
      <point x="212" y="223"/>
      <point x="503" y="218"/>
      <point x="503" y="409" type="curve" smooth="yes"/>
      <point x="503" y="517"/>
      <point x="410" y="556"/>
      <point x="288" y="556" type="curve" smooth="yes"/>
      <point x="222" y="556"/>
      <point x="147" y="545"/>
      <point x="74" y="526" type="curve"/>
      <point x="50" y="361" type="line"/>
      <point x="170" y="361" type="line"/>
      <point x="202" y="428" type="line"/>
      <point x="161" y="398" type="line"/>
      <point x="180" y="409"/>
      <point x="214" y="416"/>
      <point x="243" y="416" type="curve" smooth="yes"/>
      <point x="273" y="416"/>
      <point x="298" y="409"/>
      <point x="298" y="391" type="curve" smooth="yes"/>
      <point x="298" y="330"/>
      <point x="7" y="328"/>
      <point x="7" y="143" type="curve" smooth="yes"/>
      <point x="7" y="33"/>
      <point x="111" y="-16"/>
    </contour>
  </outline>
</glyph>
<glyph name="idieresisacute" format="2">
  <advance width="329"/>
  <unicode hex="1E2F"/>
  <outline>
    <contour>
      <point x="25" y="-6" type="line"/>
      <point x="283" y="0" type="line"/>
      <point x="299" y="100" type="line"/>
      <point x="155" y="157" type="line"/>
      <point x="223" y="30" type="line"/>
      <point x="304" y="544" type="line"/>
      <point x="47" y="536" type="line"/>
      <point x="31" y="436" type="line"/>
      <point x="175" y="381" type="line"/>
      <point x="106" y="504" type="line"/>
    </contour>
    <contour>
      <point x="330" y="578" type="curve" smooth="yes"/>
      <point x="381" y="578"/>
      <point x="422" y="618"/>
      <point x="422" y="687" type="curve" smooth="yes"/>
      <point x="422" y="740"/>
      <point x="392" y="772"/>
      <point x="343" y="772" type="curve" smooth="yes"/>
      <point x="292" y="772"/>
      <point x="252" y="731"/>
      <point x="252" y="663" type="curve" smooth="yes"/>
      <point x="252" y="610"/>
      <point x="280" y="578"/>
    </contour>
    <contour>
      <point x="101" y="578" type="curve" smooth="yes"/>
      <point x="151" y="578"/>
      <point x="194" y="618"/>
      <point x="194" y="687" type="curve" smooth="yes"/>
      <point x="194" y="740"/>
      <point x="164" y="772"/>
      <point x="114" y="772" type="curve" smooth="yes"/>
      <point x="63" y="772"/>
      <point x="24" y="731"/>
      <point x="24" y="663" type="curve" smooth="yes"/>
      <point x="24" y="610"/>
      <point x="52" y="578"/>
    </contour>
    <contour>
      <point x="218" y="725" type="line"/>
      <point x="425" y="863" type="line"/>
      <point x="343" y="964" type="line"/>
      <point x="163" y="792" type="line"/>
    </contour>
  </outline>
</glyph>
<glyph name="llinebelow" format="2">
  <advance width="312"/>
  <unicode hex="1E3B"/>
  <outline>
    <contour>
      <point x="253" y="-79" type="line"/>
      <point x="-57" y="-79" type="line"/>
      <point x="-77" y="-214" type="line"/>
      <point x="232" y="-214" type="line"/>
    </contour>
    <component base="l"/>
  </outline>
</glyph>
<glyph name="rlinebelow" format="2">
  <advance width="464"/>
  <unicode hex="1E5F"/>
  <guideline x="-470" y="100" angle="90"/>
  <guideline x="-236" y="100" angle="90"/>
  <outline>
    <contour>
      <point x="272.06" y="-79" type="line"/>
      <point x="-41.249999999999986" y="-79" type="line"/>
      <point x="-61.61999999999999" y="-214" type="line"/>
      <point x="250.72000000000003" y="-214" type="line"/>
    </contour>
    <component base="r"/>
  </outline>
</glyph>
<glyph name="Tlinebelow" format="2">
  <advance width="628"/>
  <unicode hex="1E6E"/>
  <guideline x="130" y="231" angle="261"/>
  <guideline x="460" y="231" angle="261"/>
  <outline>
    <contour>
      <point x="422" y="-79" type="line"/>
      <point x="99" y="-79" type="line"/>
      <point x="78" y="-214" type="line"/>
      <point x="400" y="-214" type="line"/>
    </contour>
    <component base="T"/>
  </outline>
</glyph>
<glyph name="Germandbls" format="2">
  <advance width="719"/>
  <unicode hex="1E9E"/>
  <outline>
    <contour>
      <point x="420" y="-12" type="curve" smooth="yes"/>
      <point x="584" y="-12"/>
      <point x="694" y="88"/>
      <point x="694" y="232" type="curve" smooth="yes"/>
      <point x="694" y="358"/>
      <point x="609" y="386"/>
      <point x="516" y="415" type="curve"/>
      <point x="535" y="390" type="line"/>
      <point x="688" y="573" type="line"/>
      <point x="704" y="710" type="line"/>
      <point x="345" y="710" type="line"/>
      <point x="100" y="705" type="line"/>
      <point x="84" y="605" type="line"/>
      <point x="157" y="572" type="line"/>
      <point x="140" y="610" type="line"/>
      <point x="60" y="100" type="line"/>
      <point x="91" y="134" type="line"/>
      <point x="4" y="100" type="line"/>
      <point x="-12" y="0" type="line"/>
      <point x="240" y="0" type="line"/>
      <point x="335" y="595" type="line"/>
      <point x="299" y="565" type="line"/>
      <point x="542" y="565" type="line"/>
      <point x="554" y="619" type="line"/>
      <point x="394" y="433" type="line"/>
      <point x="376" y="315" type="line"/>
      <point x="460" y="302"/>
      <point x="497" y="285"/>
      <point x="497" y="231" type="curve" smooth="yes"/>
      <point x="497" y="193"/>
      <point x="477" y="133"/>
      <point x="443" y="133" type="curve" smooth="yes"/>
      <point x="431" y="133"/>
      <point x="416" y="133"/>
      <point x="403" y="142" type="curve"/>
      <point x="430" y="113" type="line"/>
      <point x="418" y="194" type="line"/>
      <point x="315" y="194" type="line"/>
      <point x="279" y="8" type="line"/>
      <point x="332" y="-8"/>
      <point x="387" y="-12"/>
    </contour>
  </outline>
</glyph>
<glyph name="endash" format="2">
  <advance width="567"/>
  <unicode hex="2013"/>
  <outline>
    <contour>
      <point x="543" y="368" type="line"/>
      <point x="63" y="368" type="line"/>
      <point x="39" y="218" type="line"/>
      <point x="519" y="218" type="line"/>
    </contour>
  </outline>
</glyph>
<glyph name="quoteleft" format="2">
  <advance width="241"/>
  <unicode hex="2018"/>
  <guideline x="-106" y="414" angle="0"/>
  <guideline x="309" y="790" angle="0"/>
  <outline>
    <contour>
      <point x="235" y="524" type="curve" smooth="yes"/>
      <point x="235" y="563"/>
      <point x="217" y="585"/>
      <point x="217" y="608" type="curve" smooth="yes"/>
      <point x="217" y="634"/>
      <point x="242" y="673"/>
      <point x="297" y="749" type="curve"/>
      <point x="237" y="800" type="line"/>
      <point x="93" y="669"/>
      <point x="51" y="575"/>
      <point x="51" y="515" type="curve" smooth="yes"/>
      <point x="51" y="453"/>
      <point x="94" y="421"/>
      <point x="139" y="421" type="curve" smooth="yes"/>
      <point x="189" y="421"/>
      <point x="235" y="461"/>
    </contour>
  </outline>
</glyph>
<glyph name="quotereversed" format="2">
  <advance width="315"/>
  <unicode hex="201B"/>
  <outline>
    <contour>
      <point x="264" y="692" type="curve" smooth="yes"/>
      <point x="264" y="653"/>
      <point x="246" y="631"/>
      <point x="246" y="608" type="curve" smooth="yes"/>
      <point x="246" y="582"/>
      <point x="271" y="543"/>
      <point x="326" y="467" type="curve"/>
      <point x="266" y="416" type="line"/>
      <point x="122" y="547"/>
      <point x="80" y="641"/>
      <point x="80" y="701" type="curve" smooth="yes"/>
      <point x="80" y="763"/>
      <point x="123" y="795"/>
      <point x="168" y="795" type="curve" smooth="yes"/>
      <point x="218" y="795"/>
      <point x="264" y="755"/>
    </contour>
  </outline>
</glyph>
<glyph name="quotedblleft" format="2">
  <advance width="467"/>
  <unicode hex="201C"/>
  <guideline x="-130" y="422" angle="0"/>
  <outline>
    <contour>
      <point x="236" y="534" type="curve" smooth="yes"/>
      <point x="236" y="573"/>
      <point x="218" y="595"/>
      <point x="218" y="618" type="curve" smooth="yes"/>
      <point x="218" y="644"/>
      <point x="243" y="683"/>
      <point x="298" y="759" type="curve"/>
      <point x="238" y="810" type="line"/>
      <point x="94" y="679"/>
      <point x="52" y="585"/>
      <point x="52" y="525" type="curve" smooth="yes"/>
      <point x="52" y="463"/>
      <point x="95" y="431"/>
      <point x="140" y="431" type="curve" smooth="yes"/>
      <point x="190" y="431"/>
      <point x="236" y="471"/>
    </contour>
    <contour>
      <point x="462" y="534" type="curve" smooth="yes"/>
      <point x="462" y="573"/>
      <point x="444" y="595"/>
      <point x="444" y="618" type="curve" smooth="yes"/>
      <point x="444" y="644"/>
      <point x="469" y="683"/>
      <point x="524" y="759" type="curve"/>
      <point x="464" y="810" type="line"/>
      <point x="320" y="679"/>
      <point x="278" y="585"/>
      <point x="278" y="525" type="curve" smooth="yes"/>
      <point x="278" y="463"/>
      <point x="321" y="431"/>
      <point x="366" y="431" type="curve" smooth="yes"/>
      <point x="416" y="431"/>
      <point x="462" y="471"/>
    </contour>
  </outline>
</glyph>
<glyph name="dagger" format="2">
  <advance width="488"/>
  <unicode hex="2020"/>
  <outline>
    <contour>
      <point x="262" y="386" type="line"/>
      <point x="498" y="430" type="line"/>
      <point x="515" y="540" type="line"/>
      <point x="328" y="540" type="line"/>
      <point x="347" y="480" type="line"/>
      <point x="390" y="685" type="line"/>
      <point x="229" y="678" type="line"/>
      <point x="211" y="480" type="line"/>
      <point x="248" y="540" type="line"/>
      <point x="58" y="540" type="line"/>
      <point x="41" y="430" type="line"/>
    </contour>
    <contour>
      <point x="190" y="-80" type="line"/>
      <point x="280" y="-18" type="line"/>
      <point x="356" y="341" type="line"/>
      <point x="250" y="317" type="line"/>
      <point x="154" y="341" type="line"/>
      <point x="120" y="-18" type="line"/>
    </contour>
  </outline>
</glyph>
<glyph name="daggerdbl" format="2">
  <advance width="488"/>
  <unicode hex="2021"/>
  <outline>
    <contour>
      <point x="262" y="386" type="line"/>
      <point x="498" y="430" type="line"/>
      <point x="515" y="540" type="line"/>
      <point x="328" y="540" type="line"/>
      <point x="347" y="480" type="line"/>
      <point x="390" y="685" type="line"/>
      <point x="229" y="678" type="line"/>
      <point x="211" y="480" type="line"/>
      <point x="248" y="540" type="line"/>
      <point x="58" y="540" type="line"/>
      <point x="41" y="430" type="line"/>
    </contour>
    <contour>
      <point x="190" y="-80" type="line"/>
      <point x="280" y="-18" type="line"/>
      <point x="321" y="184" type="line"/>
      <point x="225" y="162" type="line"/>
      <point x="139" y="184" type="line"/>
      <point x="120" y="-18" type="line"/>
    </contour>
    <contour>
      <point x="234" y="212" type="line"/>
      <point x="419" y="254" type="line"/>
      <point x="437" y="370" type="line"/>
      <point x="253" y="336" type="line"/>
      <point x="80" y="370" type="line"/>
      <point x="62" y="254" type="line"/>
    </contour>
  </outline>
</glyph>
<glyph name="minute" format="2">
  <advance width="261"/>
  <unicode hex="2032"/>
  <outline>
    <contour>
      <point x="80" y="482" type="line"/>
      <point x="199" y="482" type="line"/>
      <point x="338" y="780" type="line"/>
      <point x="171" y="780" type="line"/>
    </contour>
  </outline>
</glyph>
<glyph name="guilsinglleft" format="2">
  <advance width="304"/>
  <unicode hex="2039"/>
  <guideline x="-451" y="29" angle="0"/>
  <guideline x="78" y="509" angle="0"/>
  <outline>
    <contour>
      <point x="163" y="29" type="line"/>
      <point x="260" y="103" type="line"/>
      <point x="168" y="307" type="line"/>
      <point x="159" y="233" type="line"/>
      <point x="316" y="440" type="line"/>
      <point x="235" y="509" type="line"/>
      <point x="37" y="316" type="line"/>
      <point x="25" y="222" type="line"/>
    </contour>
  </outline>
</glyph>
<glyph name="guilsinglright" format="2">
  <advance width="305"/>
  <unicode hex="203A"/>
  <guideline x="-522" y="29" angle="0"/>
  <guideline x="7" y="509" angle="0"/>
  <outline>
    <contour>
      <point x="141" y="509" type="line"/>
      <point x="44" y="435" type="line"/>
      <point x="136" y="231" type="line"/>
      <point x="145" y="305" type="line"/>
      <point x="-12" y="98" type="line"/>
      <point x="69" y="29" type="line"/>
      <point x="267" y="222" type="line"/>
      <point x="279" y="316" type="line"/>
    </contour>
  </outline>
</glyph>
<glyph name="nmod" format="2">
  <advance width="515"/>
  <unicode hex="207F"/>
  <guideline x="-99" y="321" angle="0"/>
  <guideline x="93" y="472" angle="261"/>
  <guideline x="484" y="472" angle="261"/>
  <guideline x="331" y="472" angle="261"/>
  <guideline x="245" y="472" angle="261"/>
  <outline>
    <contour>
      <point x="303" y="323" type="line"/>
      <point x="523" y="328" type="line"/>
      <point x="535" y="404" type="line"/>
      <point x="439" y="435" type="line"/>
      <point x="482" y="396" type="line"/>
      <point x="512" y="586" type="line" smooth="yes"/>
      <point x="525" y="666"/>
      <point x="482" y="725"/>
      <point x="398" y="725" type="curve" smooth="yes"/>
      <point x="314" y="725"/>
      <point x="229" y="667"/>
      <point x="205" y="532" type="curve"/>
      <point x="247" y="613" type="line"/>
      <point x="281" y="717" type="line"/>
      <point x="70" y="712" type="line"/>
      <point x="58" y="636" type="line"/>
      <point x="184" y="597" type="line"/>
      <point x="117" y="688" type="line"/>
      <point x="60" y="325" type="line"/>
      <point x="228" y="325" type="line"/>
      <point x="256" y="500" type="line" smooth="yes"/>
      <point x="266" y="561"/>
      <point x="294" y="592"/>
      <point x="320" y="592" type="curve" smooth="yes"/>
      <point x="344" y="592"/>
      <point x="343" y="568"/>
      <point x="339" y="544" type="curve" smooth="yes"/>
    </contour>
  </outline>
</glyph>
<glyph name="kip" format="2">
  <advance width="770"/>
  <unicode hex="20AD"/>
  <guideline x="48" y="499" angle="90"/>
  <guideline x="271" y="265" angle="90"/>
  <outline>
    <contour>
      <point x="20" y="0" type="line"/>
      <point x="327" y="0" type="line"/>
      <point x="343" y="100" type="line"/>
      <point x="274" y="137" type="line"/>
      <point x="291" y="95" type="line"/>
      <point x="326" y="329" type="line"/>
      <point x="286" y="300" type="line"/>
      <point x="386" y="300" type="line"/>
      <point x="355" y="329" type="line"/>
      <point x="494" y="0" type="line"/>
      <point x="685" y="0" type="line"/>
      <point x="700" y="100" type="line"/>
      <point x="632" y="133" type="line"/>
      <point x="676" y="91" type="line"/>
      <point x="555" y="335" type="line"/>
      <point x="542" y="300" type="line"/>
      <point x="695" y="300" type="line"/>
      <point x="716" y="430" type="line"/>
      <point x="561" y="430" type="line"/>
      <point x="568" y="398" type="line"/>
      <point x="719" y="607" type="line"/>
      <point x="673" y="574" type="line"/>
      <point x="759" y="610" type="line"/>
      <point x="774" y="710" type="line"/>
      <point x="488" y="705" type="line"/>
      <point x="473" y="605" type="line"/>
      <point x="537" y="580" type="line"/>
      <point x="520" y="609" type="line"/>
      <point x="383" y="404" type="line"/>
      <point x="432" y="430" type="line"/>
      <point x="315" y="430" type="line"/>
      <point x="340" y="404" type="line"/>
      <point x="370" y="616" type="line"/>
      <point x="343" y="574" type="line"/>
      <point x="425" y="612" type="line"/>
      <point x="440" y="710" type="line"/>
      <point x="132" y="705" type="line"/>
      <point x="117" y="605" type="line"/>
      <point x="186" y="575" type="line"/>
      <point x="173" y="611" type="line"/>
      <point x="143" y="404" type="line"/>
      <point x="173" y="430" type="line"/>
      <point x="88" y="430" type="line"/>
      <point x="67" y="300" type="line"/>
      <point x="149" y="300" type="line"/>
      <point x="129" y="329" type="line"/>
      <point x="95" y="95" type="line"/>
      <point x="119" y="132" type="line"/>
      <point x="36" y="100" type="line"/>
    </contour>
  </outline>
</glyph>
<glyph name="peso" format="2">
  <advance width="718"/>
  <unicode hex="20B1"/>
  <outline>
    <contour>
      <point x="27" y="0" type="line"/>
      <point x="354" y="0" type="line"/>
      <point x="370" y="100" type="line"/>
      <point x="286" y="132" type="line"/>
      <point x="296" y="105" type="line"/>
      <point x="316" y="231" type="line"/>
      <point x="271" y="201" type="line"/>
      <point x="340" y="201" type="line" smooth="yes"/>
      <point x="511" y="201"/>
      <point x="609" y="276"/>
      <point x="651" y="390" type="curve"/>
      <point x="585" y="346" type="line"/>
      <point x="693" y="346" type="line"/>
      <point x="707" y="436" type="line"/>
      <point x="93" y="436" type="line"/>
      <point x="79" y="346" type="line"/>
      <point x="153" y="346" type="line"/>
      <point x="141" y="367" type="line"/>
      <point x="99" y="105" type="line"/>
      <point x="123" y="131" type="line"/>
      <point x="43" y="100" type="line"/>
    </contour>
    <contour>
      <point x="329" y="316" type="line"/>
      <point x="338" y="367" type="line"/>
      <point x="310" y="346" type="line"/>
      <point x="428" y="346" type="line"/>
      <point x="439" y="382" type="line"/>
      <point x="422" y="360"/>
      <point x="393" y="336"/>
      <point x="352" y="336" type="curve" smooth="yes"/>
      <point x="312" y="336" type="line"/>
    </contour>
    <contour>
      <point x="99" y="476" type="line"/>
      <point x="714" y="476" type="line"/>
      <point x="728" y="566" type="line"/>
      <point x="635" y="566" type="line"/>
      <point x="670" y="518" type="line"/>
      <point x="670" y="626"/>
      <point x="621" y="710"/>
      <point x="460" y="710" type="curve" smooth="yes"/>
      <point x="395" y="710" type="line"/>
      <point x="139" y="705" type="line"/>
      <point x="123" y="605" type="line"/>
      <point x="197" y="571" type="line"/>
      <point x="179" y="606" type="line"/>
      <point x="168" y="540" type="line"/>
      <point x="194" y="566" type="line"/>
      <point x="114" y="566" type="line"/>
    </contour>
    <contour>
      <point x="364" y="532" type="line"/>
      <point x="375" y="599" type="line"/>
      <point x="283" y="576" type="line"/>
      <point x="413" y="576" type="line" smooth="yes"/>
      <point x="435" y="576"/>
      <point x="451" y="574"/>
      <point x="456" y="554" type="curve"/>
      <point x="480" y="566" type="line"/>
      <point x="282" y="566" type="line"/>
    </contour>
  </outline>
</glyph>
<glyph name="careof" format="2">
  <advance width="1083"/>
  <unicode hex="2105"/>
  <outline>
    <contour>
      <point x="237" y="265" type="curve" smooth="yes"/>
      <point x="290" y="265"/>
      <point x="348" y="282"/>
      <point x="405" y="316" type="curve"/>
      <point x="363" y="410" type="line"/>
      <point x="328" y="392"/>
      <point x="297" y="381"/>
      <point x="273" y="381" type="curve" smooth="yes"/>
      <point x="240" y="381"/>
      <point x="221" y="404"/>
      <point x="221" y="467" type="curve" smooth="yes"/>
      <point x="221" y="540"/>
      <point x="247" y="612"/>
      <point x="300" y="612" type="curve" smooth="yes"/>
      <point x="311" y="612"/>
      <point x="325" y="609"/>
      <point x="341" y="600" type="curve"/>
      <point x="326" y="614" type="line"/>
      <point x="332" y="559" type="line"/>
      <point x="433" y="559" type="line"/>
      <point x="453" y="692" type="line"/>
      <point x="407" y="715"/>
      <point x="360" y="725"/>
      <point x="316" y="725" type="curve" smooth="yes"/>
      <point x="173" y="725"/>
      <point x="56" y="618"/>
      <point x="56" y="458" type="curve" smooth="yes"/>
      <point x="56" y="328"/>
      <point x="135" y="265"/>
    </contour>
    <contour>
      <point x="787" y="-6" type="curve" smooth="yes"/>
      <point x="975" y="-6"/>
      <point x="1056" y="136"/>
      <point x="1056" y="272" type="curve" smooth="yes"/>
      <point x="1056" y="407"/>
      <point x="977" y="454"/>
      <point x="867" y="454" type="curve" smooth="yes"/>
      <point x="676" y="454"/>
      <point x="598" y="311"/>
      <point x="598" y="177" type="curve" smooth="yes"/>
      <point x="598" y="43"/>
      <point x="676" y="-6"/>
    </contour>
    <contour>
      <point x="802" y="107" type="curve" smooth="yes"/>
      <point x="769" y="107"/>
      <point x="758" y="127"/>
      <point x="758" y="173" type="curve" smooth="yes"/>
      <point x="758" y="218"/>
      <point x="769" y="341"/>
      <point x="851" y="341" type="curve" smooth="yes"/>
      <point x="883" y="341"/>
      <point x="895" y="323"/>
      <point x="895" y="277" type="curve" smooth="yes"/>
      <point x="895" y="232"/>
      <point x="883" y="107"/>
    </contour>
    <contour>
      <point x="199" y="-12" type="line"/>
      <point x="351" y="-12" type="line"/>
      <point x="852" y="723" type="line"/>
      <point x="700" y="723" type="line"/>
    </contour>
  </outline>
</glyph>
<glyph name="upArrow" format="2">
  <advance width="677"/>
  <unicode hex="2191"/>
  <outline>
    <contour>
      <point x="295" y="523" type="line"/>
      <point x="212" y="0" type="line"/>
      <point x="380" y="0" type="line"/>
      <point x="463" y="522" type="line"/>
      <point x="411" y="522" type="line"/>
      <point x="598" y="317" type="line"/>
      <point x="695" y="415" type="line"/>
      <point x="444" y="710" type="line"/>
      <point x="370" y="710" type="line"/>
      <point x="28" y="415" type="line"/>
      <point x="110" y="321" type="line"/>
      <point x="357" y="522" type="line"/>
    </contour>
  </outline>
</glyph>
<glyph name="upDownArrow" format="2">
  <advance width="696"/>
  <unicode hex="2195"/>
  <outline>
    <contour>
      <point x="328" y="673" type="line"/>
      <point x="227" y="38" type="line"/>
      <point x="282" y="38" type="line"/>
      <point x="95" y="243" type="line"/>
      <point x="-6" y="145" type="line"/>
      <point x="246" y="-150" type="line"/>
      <point x="320" y="-150" type="line"/>
      <point x="662" y="145" type="line"/>
      <point x="582" y="239" type="line"/>
      <point x="335" y="38" type="line"/>
      <point x="395" y="37" type="line"/>
      <point x="496" y="672" type="line"/>
      <point x="436" y="672" type="line"/>
      <point x="623" y="467" type="line"/>
      <point x="720" y="560" type="line"/>
      <point x="477" y="860" type="line"/>
      <point x="403" y="860" type="line"/>
      <point x="51" y="565" type="line"/>
      <point x="138" y="471" type="line"/>
      <point x="385" y="672" type="line"/>
    </contour>
  </outline>
</glyph>
<glyph name="intersection" format="2">
  <advance width="666"/>
  <unicode hex="2229"/>
  <outline>
    <contour>
      <point x="21" y="0" type="line"/>
      <point x="213" y="0" type="line"/>
      <point x="280" y="419" type="line" smooth="yes"/>
      <point x="288" y="469"/>
      <point x="304" y="570"/>
      <point x="391" y="570" type="curve" smooth="yes"/>
      <point x="458" y="570"/>
      <point x="448" y="509"/>
      <point x="438" y="446" type="curve" smooth="yes"/>
      <point x="367" y="0" type="line"/>
      <point x="559" y="0" type="line"/>
      <point x="628" y="434" type="line" smooth="yes"/>
      <point x="641" y="516"/>
      <point x="674" y="725"/>
      <point x="403" y="725" type="curve" smooth="yes"/>
      <point x="139" y="725"/>
      <point x="105" y="526"/>
      <point x="90" y="431" type="curve" smooth="yes"/>
    </contour>
  </outline>
</glyph>
<glyph name="integral" format="2">
  <advance width="606"/>
  <unicode hex="222B"/>
  <outline>
    <contour>
      <point x="-71" y="-224" type="line"/>
      <point x="-17" y="-244"/>
      <point x="34" y="-255"/>
      <point x="85" y="-255" type="curve" smooth="yes"/>
      <point x="246" y="-255"/>
      <point x="352" y="-142"/>
      <point x="371" y="23" type="curve" smooth="yes"/>
      <point x="393" y="204"/>
      <point x="417" y="419"/>
      <point x="437" y="586" type="curve" smooth="yes"/>
      <point x="447" y="666"/>
      <point x="483" y="716"/>
      <point x="555" y="716" type="curve" smooth="yes"/>
      <point x="572" y="716"/>
      <point x="599" y="713"/>
      <point x="630" y="703" type="curve"/>
      <point x="690" y="844" type="line"/>
      <point x="635" y="864"/>
      <point x="584" y="875"/>
      <point x="533" y="875" type="curve" smooth="yes"/>
      <point x="372" y="875"/>
      <point x="265" y="762"/>
      <point x="247" y="597" type="curve" smooth="yes"/>
      <point x="226" y="415"/>
      <point x="201" y="201"/>
      <point x="182" y="34" type="curve" smooth="yes"/>
      <point x="172" y="-46"/>
      <point x="135" y="-96"/>
      <point x="64" y="-96" type="curve" smooth="yes"/>
      <point x="46" y="-96"/>
      <point x="20" y="-93"/>
      <point x="-11" y="-83" type="curve"/>
    </contour>
  </outline>
</glyph>
<glyph name="greaterequal" format="2">
  <advance width="556"/>
  <unicode hex="2265"/>
  <guideline x="247" y="509" angle="0"/>
  <guideline x="539" y="472" angle="261"/>
  <outline>
    <contour>
      <point x="158" y="679" type="line"/>
      <point x="96" y="540" type="line"/>
      <point x="385" y="426" type="line"/>
      <point x="390" y="462" type="line"/>
      <point x="60" y="335" type="line"/>
      <point x="107" y="191" type="line"/>
      <point x="524" y="365" type="line"/>
      <point x="545" y="509" type="line"/>
    </contour>
    <contour>
      <point x="491" y="169" type="line"/>
      <point x="36" y="169" type="line"/>
      <point x="14" y="29" type="line"/>
      <point x="469" y="29" type="line"/>
    </contour>
  </outline>
</glyph>
<glyph name="logicalnotReversed" format="2">
  <advance width="561"/>
  <unicode hex="2310"/>
  <outline>
    <contour>
      <point x="207" y="281" type="line"/>
      <point x="234" y="301" type="line"/>
      <point x="204" y="114" type="line"/>
      <point x="51" y="114" type="line"/>
      <point x="102" y="421" type="line"/>
      <point x="540" y="421" type="line"/>
      <point x="518" y="281" type="line"/>
    </contour>
  </outline>
</glyph>
<glyph name="integraltp" format="2">
  <advance width="474"/>
  <unicode hex="2320"/>
  <outline>
    <contour>
      <point x="-16" y="-230" type="line"/>
      <point x="176" y="-230" type="line"/>
      <point x="306" y="593" type="line" smooth="yes"/>
      <point x="317" y="666"/>
      <point x="353" y="716"/>
      <point x="423" y="716" type="curve" smooth="yes"/>
      <point x="440" y="716"/>
      <point x="467" y="713"/>
      <point x="498" y="703" type="curve"/>
      <point x="558" y="844" type="line"/>
      <point x="503" y="864"/>
      <point x="453" y="875"/>
      <point x="402" y="875" type="curve" smooth="yes"/>
      <point x="243" y="875"/>
      <point x="141" y="762"/>
      <point x="114" y="590" type="curve" smooth="yes"/>
    </contour>
  </outline>
</glyph>
<glyph name="whiteSquare" format="2">
  <advance width="607"/>
  <unicode hex="25A1"/>
  <outline>
    <contour>
      <point x="120" y="540" type="line"/>
      <point x="46" y="78" type="line"/>
      <point x="500" y="78" type="line"/>
      <point x="573" y="540" type="line"/>
    </contour>
    <contour>
      <point x="171" y="389" type="line"/>
      <point x="471" y="390" type="line"/>
      <point x="399" y="480" type="line"/>
      <point x="348" y="138" type="line"/>
      <point x="449" y="228" type="line"/>
      <point x="149" y="228" type="line"/>
      <point x="221" y="138" type="line"/>
      <point x="272" y="479" type="line"/>
    </contour>
  </outline>
</glyph>
<glyph name="rightWhiteTriangle" format="2">
  <advance width="611"/>
  <unicode hex="25B7"/>
  <outline>
    <contour>
      <point x="82" y="66" type="line"/>
      <point x="536" y="290" type="line"/>
      <point x="162" y="558" type="line"/>
    </contour>
    <contour>
      <point x="229" y="258" type="line"/>
      <point x="246" y="365" type="line"/>
      <point x="327" y="306" type="line"/>
    </contour>
  </outline>
</glyph>
<glyph name="downWhiteTriangle" format="2">
  <advance width="618"/>
  <unicode hex="25BD"/>
  <outline>
    <contour>
      <point x="285" y="67" type="line"/>
      <point x="600" y="511" type="line"/>
      <point x="108" y="511" type="line"/>
    </contour>
    <contour>
      <point x="339" y="248" type="line"/>
      <point x="263" y="437" type="line"/>
      <point x="230" y="388" type="line"/>
      <point x="438" y="388" type="line"/>
      <point x="418" y="437" type="line"/>
      <point x="285" y="248" type="line"/>
    </contour>
  </outline>
</glyph>
<glyph name="leftBlackTriangle" format="2">
  <advance width="591"/>
  <unicode hex="25C0"/>
  <outline>
    <contour>
      <point x="68" y="334" type="line"/>
      <point x="443" y="66" type="line"/>
      <point x="522" y="558" type="line"/>
    </contour>
  </outline>
</glyph>
<glyph name="leftWhiteTriangle" format="2">
  <advance width="591"/>
  <unicode hex="25C1"/>
  <outline>
    <contour>
      <point x="522" y="558" type="line"/>
      <point x="68" y="334" type="line"/>
      <point x="443" y="66" type="line"/>
    </contour>
    <contour>
      <point x="375" y="366" type="line"/>
      <point x="359" y="259" type="line"/>
      <point x="277" y="318" type="line"/>
    </contour>
  </outline>
</glyph>
<glyph name="De-cy.loclBGR" format="2">
  <advance width="750"/>
  <outline>
    <contour>
      <point x="-67" y="-205" type="line"/>
      <point x="50" y="-205" type="line"/>
      <point x="145" y="18" type="line"/>
      <point x="123" y="0" type="line"/>
      <point x="542" y="0" type="line"/>
      <point x="528" y="18" type="line"/>
      <point x="554" y="-205" type="line"/>
      <point x="668" y="-205" type="line"/>
      <point x="719" y="135" type="line"/>
      <point x="598" y="145" type="line"/>
      <point x="649" y="105" type="line"/>
      <point x="553" y="710" type="line"/>
      <point x="344" y="710" type="line"/>
      <point x="45" y="100" type="line"/>
      <point x="106" y="145" type="line"/>
      <point x="-9" y="135" type="line"/>
    </contour>
    <contour>
      <point x="435" y="86" type="line"/>
      <point x="479" y="145" type="line"/>
      <point x="212" y="145" type="line"/>
      <point x="225" y="99" type="line"/>
      <point x="416" y="533" type="line"/>
      <point x="394" y="533" type="line"/>
    </contour>
  </outline>
</glyph>
<glyph name="El-cy.loclBGR" format="2">
  <advance width="702"/>
  <outline>
    <contour>
      <point x="375" y="605" type="line"/>
      <point x="418" y="104" type="line"/>
      <point x="438" y="131" type="line"/>
      <point x="366" y="100" type="line"/>
      <point x="351" y="0" type="line"/>
      <point x="651" y="0" type="line"/>
      <point x="667" y="100" type="line"/>
      <point x="599" y="135" type="line"/>
      <point x="640" y="89" type="line"/>
      <point x="528" y="713" type="line"/>
      <point x="324" y="708" type="line"/>
      <point x="10" y="94" type="line"/>
      <point x="60" y="133" type="line"/>
      <point x="-20" y="100" type="line"/>
      <point x="-35" y="0" type="line"/>
      <point x="232" y="0" type="line"/>
      <point x="247" y="100" type="line"/>
      <point x="195" y="127" type="line"/>
      <point x="197" y="108" type="line"/>
      <point x="421" y="604" type="line"/>
    </contour>
  </outline>
</glyph>
<glyph name="T_h" format="2">
  <advance width="1126"/>
  <guideline x="901" y="472" angle="261"/>
  <outline>
    <contour>
      <point x="825" y="-6" type="line"/>
      <point x="1082" y="0" type="line"/>
      <point x="1099" y="103" type="line"/>
      <point x="949" y="160" type="line"/>
      <point x="1033" y="99" type="line"/>
      <point x="1075" y="362" type="line" smooth="yes"/>
      <point x="1093" y="472"/>
      <point x="1043" y="555"/>
      <point x="943" y="555" type="curve" smooth="yes"/>
      <point x="842" y="555"/>
      <point x="724" y="471"/>
      <point x="693" y="288" type="curve"/>
      <point x="768" y="399" type="line"/>
      <point x="840" y="785" type="line"/>
      <point x="648" y="778" type="line"/>
      <point x="525" y="0" type="line"/>
      <point x="718" y="0" type="line"/>
      <point x="756" y="246" type="line" smooth="yes"/>
      <point x="772" y="350"/>
      <point x="811" y="403"/>
      <point x="852" y="403" type="curve" smooth="yes"/>
      <point x="889" y="403"/>
      <point x="883" y="359"/>
      <point x="876" y="315" type="curve" smooth="yes"/>
    </contour>
    <contour>
      <point x="110" y="0" type="line"/>
      <point x="442" y="0" type="line"/>
      <point x="458" y="100" type="line"/>
      <point x="379" y="132" type="line"/>
      <point x="389" y="105" type="line"/>
      <point x="467" y="595" type="line"/>
      <point x="421" y="565" type="line"/>
      <point x="652" y="565" type="line"/>
      <point x="680" y="710" type="line"/>
      <point x="89" y="710" type="line"/>
      <point x="52" y="474" type="line"/>
      <point x="167" y="474" type="line"/>
      <point x="216" y="603" type="line"/>
      <point x="169" y="565" type="line"/>
      <point x="301" y="565" type="line"/>
      <point x="270" y="595" type="line"/>
      <point x="192" y="105" type="line"/>
      <point x="216" y="131" type="line"/>
      <point x="126" y="100" type="line"/>
    </contour>
  </outline>
</glyph>
<glyph name="Zedescender-cy.loclBSH" format="2">
  <advance width="581"/>
  <outline>
    <contour>
      <point x="109" y="-149" type="line"/>
      <point x="111" y="-208"/>
      <point x="160" y="-244"/>
      <point x="216" y="-244" type="curve" smooth="yes"/>
      <point x="272" y="-244"/>
      <point x="331" y="-209"/>
      <point x="331" y="-133" type="curve" smooth="yes"/>
      <point x="331" y="-86"/>
      <point x="309" y="-37"/>
      <point x="260" y="4" type="curve"/>
      <point x="159" y="7" type="line"/>
      <point x="179" y="-9"/>
      <point x="194" y="-55"/>
      <point x="197" y="-77" type="curve"/>
      <point x="199" y="-67" type="line"/>
    </contour>
    <contour>
      <point x="-16" y="35" type="line"/>
      <point x="54" y="3"/>
      <point x="135" y="-16"/>
      <point x="220" y="-16" type="curve" smooth="yes"/>
      <point x="416" y="-16"/>
      <point x="545" y="84"/>
      <point x="545" y="232" type="curve" smooth="yes"/>
      <point x="545" y="323"/>
      <point x="497" y="373"/>
      <point x="372" y="381" type="curve"/>
      <point x="380" y="363" type="line"/>
      <point x="499" y="373"/>
      <point x="584" y="444"/>
      <point x="584" y="555" type="curve" smooth="yes"/>
      <point x="584" y="676"/>
      <point x="479" y="725"/>
      <point x="344" y="725" type="curve" smooth="yes"/>
      <point x="269" y="725"/>
      <point x="185" y="710"/>
      <point x="104" y="684" type="curve"/>
      <point x="86" y="486" type="line"/>
      <point x="202" y="486" type="line"/>
      <point x="230" y="585" type="line"/>
      <point x="204" y="559" type="line"/>
      <point x="241" y="571"/>
      <point x="279" y="579"/>
      <point x="310" y="579" type="curve" smooth="yes"/>
      <point x="351" y="579"/>
      <point x="381" y="564"/>
      <point x="381" y="524" type="curve" smooth="yes"/>
      <point x="381" y="476"/>
      <point x="340" y="434"/>
      <point x="267" y="434" type="curve" smooth="yes"/>
      <point x="203" y="434" type="line"/>
      <point x="181" y="292" type="line"/>
      <point x="262" y="292" type="line" smooth="yes"/>
      <point x="300" y="292"/>
      <point x="349" y="292"/>
      <point x="349" y="240" type="curve" smooth="yes"/>
      <point x="349" y="186"/>
      <point x="297" y="142"/>
      <point x="208" y="142" type="curve" smooth="yes"/>
      <point x="162" y="142"/>
      <point x="100" y="154"/>
      <point x="47" y="174" type="curve"/>
    </contour>
  </outline>
</glyph>
<glyph name="acutecomb.loclPLK" format="2">
  <guideline x="365" y="827" angle="0"/>
  <guideline x="150" y="633" angle="0"/>
  <guideline x="406" y="864" angle="0"/>
  <guideline x="114" y="601" angle="0"/>
  <anchor x="118" y="540" name="_top"/>
  <anchor x="165" y="840" name="top"/>
  <outline>
    <contour>
      <point x="137" y="592" type="line"/>
      <point x="318" y="781" type="line"/>
      <point x="201" y="861" type="line"/>
      <point x="61" y="638" type="line"/>
    </contour>
  </outline>
</glyph>
<glyph name="acutedotaccentcomb.case" format="2">
  <advance width="395"/>
  <guideline x="283" y="774" angle="0"/>
  <guideline x="496" y="943" angle="0"/>
  <guideline x="262" y="734" angle="0"/>
  <guideline x="529" y="998" angle="0"/>
  <guideline x="72" y="529" angle="261"/>
  <guideline x="392" y="529" angle="261"/>
  <guideline x="232" y="529" angle="261"/>
  <anchor x="261" y="710" name="_top"/>
  <outline>
    <contour>
      <point x="157" y="734" type="line"/>
      <point x="451" y="821" type="line"/>
      <point x="400" y="967" type="line"/>
      <point x="117" y="827" type="line"/>
    </contour>
    <contour>
      <point x="303" y="943" type="curve" smooth="yes"/>
      <point x="365" y="943"/>
      <point x="409" y="988"/>
      <point x="409" y="1051" type="curve" smooth="yes"/>
      <point x="409" y="1106"/>
      <point x="376" y="1138"/>
      <point x="322" y="1138" type="curve" smooth="yes"/>
      <point x="261" y="1138"/>
      <point x="216" y="1094"/>
      <point x="216" y="1030" type="curve" smooth="yes"/>
      <point x="216" y="977"/>
      <point x="248" y="943"/>
    </contour>
  </outline>
</glyph>
<glyph name="acutedotaccentcomb" format="2">
  <advance width="371"/>
  <guideline x="121" y="577" angle="0"/>
  <guideline x="511" y="928" angle="0"/>
  <guideline x="240" y="777" angle="261"/>
  <guideline x="100" y="777" angle="261"/>
  <guideline x="380" y="777" angle="261"/>
  <anchor x="202" y="540" name="_top"/>
  <outline>
    <contour>
      <point x="241" y="780" type="curve" smooth="yes"/>
      <point x="303" y="780"/>
      <point x="347" y="825"/>
      <point x="347" y="888" type="curve" smooth="yes"/>
      <point x="347" y="943"/>
      <point x="314" y="975"/>
      <point x="260" y="975" type="curve" smooth="yes"/>
      <point x="199" y="975"/>
      <point x="154" y="931"/>
      <point x="154" y="867" type="curve" smooth="yes"/>
      <point x="154" y="814"/>
      <point x="186" y="780"/>
    </contour>
    <contour>
      <point x="115" y="559" type="line"/>
      <point x="402" y="638" type="line"/>
      <point x="344" y="789" type="line"/>
      <point x="70" y="668" type="line"/>
    </contour>
  </outline>
</glyph>
<glyph name="asterisk.alt" format="2">
  <advance width="432"/>
  <outline>
    <contour>
      <point x="276" y="604" type="line"/>
      <point x="319" y="653" type="line"/>
      <point x="356" y="760" type="line"/>
      <point x="232" y="760" type="line"/>
      <point x="238" y="653" type="line"/>
    </contour>
    <contour>
      <point x="247" y="591" type="line"/>
      <point x="233" y="653" type="line"/>
      <point x="161" y="727" type="line"/>
      <point x="87" y="616" type="line"/>
      <point x="182" y="583" type="line"/>
    </contour>
    <contour>
      <point x="243" y="568" type="line"/>
      <point x="181" y="583" type="line"/>
      <point x="73" y="541" type="line"/>
      <point x="121" y="434" type="line"/>
      <point x="216" y="510" type="line"/>
    </contour>
    <contour>
      <point x="260" y="557" type="line"/>
      <point x="211" y="510" type="line"/>
      <point x="175" y="408" type="line"/>
      <point x="299" y="408" type="line"/>
      <point x="289" y="511" type="line"/>
    </contour>
    <contour>
      <point x="290" y="566" type="line"/>
      <point x="294" y="511" type="line"/>
      <point x="372" y="432" type="line"/>
      <point x="446" y="539" type="line"/>
      <point x="352" y="581" type="line"/>
    </contour>
    <contour>
      <point x="290" y="591" type="line"/>
      <point x="354" y="581" type="line"/>
      <point x="457" y="622" type="line"/>
      <point x="408" y="727" type="line"/>
      <point x="314" y="653" type="line"/>
    </contour>
  </outline>
</glyph>
<glyph name="backslash.case" format="2">
  <advance width="357"/>
  <outline>
    <contour>
      <point x="71" y="813" type="line"/>
      <point x="180" y="-90" type="line"/>
      <point x="315" y="-90" type="line"/>
      <point x="207" y="813" type="line"/>
    </contour>
  </outline>
</glyph>
<glyph name="be-cy.loclSRB" format="2">
  <advance width="559"/>
  <outline>
    <contour>
      <point x="230" y="-15" type="curve" smooth="yes"/>
      <point x="431" y="-15"/>
      <point x="545" y="126"/>
      <point x="545" y="302" type="curve" smooth="yes"/>
      <point x="545" y="561"/>
      <point x="297" y="522"/>
      <point x="297" y="603" type="curve" smooth="yes"/>
      <point x="297" y="628"/>
      <point x="320" y="633"/>
      <point x="336" y="633" type="curve" smooth="yes"/>
      <point x="544" y="633" type="line"/>
      <point x="565" y="823" type="line"/>
      <point x="449" y="823" type="line"/>
      <point x="425" y="755" type="line"/>
      <point x="443" y="773" type="line"/>
      <point x="296" y="773" type="line" smooth="yes"/>
      <point x="165" y="773"/>
      <point x="109" y="705"/>
      <point x="109" y="627" type="curve" smooth="yes"/>
      <point x="109" y="541"/>
      <point x="178" y="486"/>
      <point x="298" y="435" type="curve"/>
      <point x="364" y="505" type="line"/>
      <point x="353" y="505"/>
      <point x="350" y="506"/>
      <point x="332" y="506" type="curve" smooth="yes"/>
      <point x="131" y="506"/>
      <point x="7" y="383"/>
      <point x="7" y="199" type="curve" smooth="yes"/>
      <point x="7" y="51"/>
      <point x="92" y="-15"/>
    </contour>
    <contour>
      <point x="246" y="125" type="curve" smooth="yes"/>
      <point x="217" y="125"/>
      <point x="204" y="141"/>
      <point x="204" y="190" type="curve" smooth="yes"/>
      <point x="204" y="257"/>
      <point x="228" y="375"/>
      <point x="306" y="375" type="curve" smooth="yes"/>
      <point x="335" y="375"/>
      <point x="348" y="359"/>
      <point x="348" y="310" type="curve" smooth="yes"/>
      <point x="348" y="243"/>
      <point x="324" y="125"/>
    </contour>
  </outline>
</glyph>
<glyph name="braceright.case" format="2">
  <advance width="373"/>
  <guideline x="-535" y="-118" angle="0"/>
  <outline>
    <contour>
      <point x="172" y="822" type="curve" smooth="yes"/>
      <point x="100" y="822" type="line"/>
      <point x="86" y="702" type="line"/>
      <point x="172" y="702"/>
      <point x="183" y="683"/>
      <point x="170" y="603" type="curve" smooth="yes"/>
      <point x="155" y="509" type="line" smooth="yes"/>
      <point x="137" y="395"/>
      <point x="209" y="343"/>
      <point x="319" y="343" type="curve"/>
      <point x="311" y="361" type="line"/>
      <point x="193" y="361"/>
      <point x="123" y="314"/>
      <point x="107" y="207" type="curve" smooth="yes"/>
      <point x="93" y="113" type="line" smooth="yes"/>
      <point x="81" y="33"/>
      <point x="52" y="2"/>
      <point x="-34" y="2" type="curve"/>
      <point x="-49" y="-118" type="line"/>
      <point x="33" y="-118" type="line" smooth="yes"/>
      <point x="168" y="-118"/>
      <point x="236" y="-48"/>
      <point x="257" y="91" type="curve" smooth="yes"/>
      <point x="270" y="176" type="line" smooth="yes"/>
      <point x="279" y="234"/>
      <point x="301" y="287"/>
      <point x="379" y="287" type="curve"/>
      <point x="390" y="417" type="line"/>
      <point x="323" y="417"/>
      <point x="313" y="451"/>
      <point x="324" y="516" type="curve" smooth="yes"/>
      <point x="338" y="601" type="line" smooth="yes"/>
      <point x="361" y="741"/>
      <point x="306" y="822"/>
    </contour>
  </outline>
</glyph>
<glyph name="brevecomb.case" format="2">
  <guideline x="314" y="774" angle="0"/>
  <guideline x="528" y="968" angle="0"/>
  <guideline x="293" y="756" angle="0"/>
  <guideline x="561" y="998" angle="0"/>
  <guideline x="91" y="654" angle="261"/>
  <guideline x="271" y="654" angle="261"/>
  <anchor x="280" y="710" name="_top"/>
  <anchor x="318" y="950" name="top"/>
  <outline>
    <contour>
      <point x="296" y="771" type="curve" smooth="yes"/>
      <point x="384" y="771"/>
      <point x="482" y="834"/>
      <point x="500" y="960" type="curve"/>
      <point x="393" y="967" type="line"/>
      <point x="382" y="922"/>
      <point x="343" y="894"/>
      <point x="306" y="894" type="curve" smooth="yes"/>
      <point x="276" y="894"/>
      <point x="249" y="912"/>
      <point x="250" y="964" type="curve"/>
      <point x="140" y="963" type="line"/>
      <point x="123" y="840"/>
      <point x="204" y="771"/>
    </contour>
  </outline>
</glyph>
<glyph name="brevecomb_gravecomb.case" format="2">
  <guideline x="913" y="1168" angle="0"/>
  <guideline x="257" y="774" angle="0"/>
  <guideline x="471" y="968" angle="0"/>
  <guideline x="237" y="756" angle="0"/>
  <guideline x="503" y="998" angle="0"/>
  <guideline x="153" y="954" angle="261"/>
  <guideline x="333" y="954" angle="261"/>
  <anchor x="295" y="710" name="_top"/>
  <anchor x="369" y="1155" name="top"/>
  <outline>
    <contour>
      <point x="335" y="910" type="line"/>
      <point x="138" y="1058" type="line"/>
      <point x="220" y="1159" type="line"/>
      <point x="400" y="987" type="line"/>
    </contour>
    <component base="brevecomb.case" xOffset="10" yOffset="-30"/>
  </outline>
</glyph>
<glyph name="brevecomb_gravecomb" format="2">
  <guideline x="284" y="607" angle="0"/>
  <guideline x="739" y="1019" angle="0"/>
  <guideline x="162" y="577" angle="0"/>
  <guideline x="252" y="529" angle="261"/>
  <guideline x="432" y="529" angle="261"/>
  <guideline x="72" y="529" angle="261"/>
  <guideline x="351" y="990" angle="0"/>
  <guideline x="189" y="577" angle="0"/>
  <anchor x="254" y="540" name="_top"/>
  <anchor x="311" y="900" name="top"/>
  <outline>
    <contour>
      <point x="302" y="741" type="line"/>
      <point x="105" y="889" type="line"/>
      <point x="187" y="990" type="line"/>
      <point x="367" y="818" type="line"/>
    </contour>
    <component base="brevecomb.case" xOffset="-27" yOffset="-184"/>
  </outline>
</glyph>
<glyph name="brevecomb_tildecomb.case" format="2">
  <guideline x="445" y="780" angle="0"/>
  <guideline x="835" y="1134" angle="0"/>
  <guideline x="283" y="774" angle="0"/>
  <guideline x="497" y="968" angle="0"/>
  <guideline x="263" y="756" angle="0"/>
  <guideline x="530" y="998" angle="0"/>
  <guideline x="161" y="942" angle="261"/>
  <guideline x="341" y="942" angle="261"/>
  <guideline x="521" y="942" angle="261"/>
  <anchor x="303" y="710" name="_top"/>
  <anchor x="377" y="1166" name="top"/>
  <outline>
    <contour>
      <point x="228" y="951" type="line"/>
      <point x="250" y="982"/>
      <point x="266" y="996"/>
      <point x="285" y="996" type="curve" smooth="yes"/>
      <point x="327" y="996"/>
      <point x="366" y="953"/>
      <point x="418" y="953" type="curve" smooth="yes"/>
      <point x="470" y="953"/>
      <point x="517" y="993"/>
      <point x="558" y="1089" type="curve"/>
      <point x="489" y="1132" type="line"/>
      <point x="467" y="1100"/>
      <point x="449" y="1085"/>
      <point x="427" y="1085" type="curve" smooth="yes"/>
      <point x="390" y="1085"/>
      <point x="343" y="1129"/>
      <point x="290" y="1129" type="curve" smooth="yes"/>
      <point x="241" y="1129"/>
      <point x="200" y="1090"/>
      <point x="160" y="996" type="curve"/>
    </contour>
    <component base="brevecomb.case" xOffset="19" yOffset="-30"/>
  </outline>
</glyph>
<glyph name="brevecomb_tildecomb" format="2">
  <guideline x="299" y="607" angle="0"/>
  <guideline x="754" y="1019" angle="0"/>
  <guideline x="177" y="577" angle="0"/>
  <guideline x="274" y="529" angle="261"/>
  <guideline x="454" y="529" angle="261"/>
  <guideline x="94" y="529" angle="261"/>
  <anchor x="277" y="540" name="_top"/>
  <anchor x="333" y="900" name="top"/>
  <outline>
    <contour>
      <point x="198.5" y="809" type="line"/>
      <point x="221.29999999999998" y="840"/>
      <point x="236.5" y="854"/>
      <point x="255.5" y="854" type="curve" smooth="yes"/>
      <point x="298.25" y="854"/>
      <point x="337.2" y="811"/>
      <point x="389.45" y="811" type="curve" smooth="yes"/>
      <point x="440.75" y="811"/>
      <point x="488.25" y="851"/>
      <point x="529.0999999999999" y="947" type="curve"/>
      <point x="459.75" y="990" type="line"/>
      <point x="437.9" y="958"/>
      <point x="419.84999999999997" y="943"/>
      <point x="398.0" y="943" type="curve" smooth="yes"/>
      <point x="360.95" y="943"/>
      <point x="314.4" y="987"/>
      <point x="261.2" y="987" type="curve" smooth="yes"/>
      <point x="211.79999999999998" y="987"/>
      <point x="170.95" y="948"/>
      <point x="131.05" y="854" type="curve"/>
    </contour>
    <component base="brevecomb.case" xOffset="-6" yOffset="-184"/>
  </outline>
</glyph>
<glyph name="c.sc" format="2">
  <advance width="574"/>
  <anchor x="264" y="0" name="bottom"/>
  <anchor x="365" y="591" name="top"/>
  <outline>
    <contour>
      <point x="267" y="-15" type="curve" smooth="yes"/>
      <point x="349" y="-15"/>
      <point x="438" y="13"/>
      <point x="525" y="69" type="curve"/>
      <point x="474" y="183" type="line"/>
      <point x="417" y="153"/>
      <point x="365" y="134"/>
      <point x="320" y="134" type="curve" smooth="yes"/>
      <point x="260" y="134"/>
      <point x="227" y="167"/>
      <point x="227" y="263" type="curve" smooth="yes"/>
      <point x="227" y="377"/>
      <point x="273" y="462"/>
      <point x="372" y="462" type="curve" smooth="yes"/>
      <point x="396" y="462"/>
      <point x="423" y="457"/>
      <point x="452" y="448" type="curve"/>
      <point x="424" y="476" type="line"/>
      <point x="441" y="382" type="line"/>
      <point x="555" y="382" type="line"/>
      <point x="593" y="554" type="line"/>
      <point x="515" y="588"/>
      <point x="439" y="606"/>
      <point x="368" y="606" type="curve" smooth="yes"/>
      <point x="172" y="606"/>
      <point x="22" y="466"/>
      <point x="22" y="248" type="curve" smooth="yes"/>
      <point x="22" y="63"/>
      <point x="130" y="-15"/>
    </contour>
  </outline>
</glyph>
<glyph name="c_h" format="2">
  <advance width="1098"/>
  <outline>
    <contour>
      <point x="230" y="-15" type="curve" smooth="yes"/>
      <point x="296" y="-15"/>
      <point x="370" y="7"/>
      <point x="443" y="49" type="curve"/>
      <point x="391" y="165" type="line"/>
      <point x="345" y="144"/>
      <point x="307" y="130"/>
      <point x="277" y="130" type="curve" smooth="yes"/>
      <point x="234" y="130"/>
      <point x="210" y="159"/>
      <point x="210" y="232" type="curve" smooth="yes"/>
      <point x="210" y="326"/>
      <point x="244" y="416"/>
      <point x="313" y="416" type="curve" smooth="yes"/>
      <point x="328" y="416"/>
      <point x="345" y="412"/>
      <point x="364" y="402" type="curve"/>
      <point x="348" y="419" type="line"/>
      <point x="351" y="349" type="line"/>
      <point x="476" y="349" type="line"/>
      <point x="482" y="442"/>
      <point x="498" y="584"/>
      <point x="502" y="609" type="curve" smooth="yes"/>
      <point x="509" y="653"/>
      <point x="531" y="679"/>
      <point x="574" y="679" type="curve" smooth="yes"/>
      <point x="583" y="679"/>
      <point x="609" y="678"/>
      <point x="629" y="673" type="curve"/>
      <point x="607" y="689" type="line"/>
      <point x="497" y="0" type="line"/>
      <point x="690" y="0" type="line"/>
      <point x="728" y="246" type="line" smooth="yes"/>
      <point x="744" y="350"/>
      <point x="783" y="403"/>
      <point x="824" y="403" type="curve" smooth="yes"/>
      <point x="861" y="403"/>
      <point x="855" y="359"/>
      <point x="848" y="315" type="curve" smooth="yes"/>
      <point x="796" y="-6" type="line"/>
      <point x="1054" y="0" type="line"/>
      <point x="1071" y="103" type="line"/>
      <point x="921" y="160" type="line"/>
      <point x="1005" y="99" type="line"/>
      <point x="1047" y="362" type="line" smooth="yes"/>
      <point x="1065" y="472"/>
      <point x="1015" y="555"/>
      <point x="915" y="555" type="curve" smooth="yes"/>
      <point x="814" y="555"/>
      <point x="696" y="471"/>
      <point x="665" y="288" type="curve"/>
      <point x="740" y="399" type="line"/>
      <point x="808" y="764" type="line"/>
      <point x="722" y="783"/>
      <point x="636" y="794"/>
      <point x="573" y="794" type="curve" smooth="yes"/>
      <point x="452" y="794"/>
      <point x="391" y="752"/>
      <point x="375" y="653" type="curve" smooth="yes"/>
      <point x="369" y="615"/>
      <point x="371" y="564"/>
      <point x="372" y="546" type="curve"/>
      <point x="398" y="550" type="line"/>
      <point x="376" y="553"/>
      <point x="355" y="555"/>
      <point x="335" y="555" type="curve" smooth="yes"/>
      <point x="157" y="555"/>
      <point x="14" y="425"/>
      <point x="14" y="219" type="curve" smooth="yes"/>
      <point x="14" y="61"/>
      <point x="107" y="-15"/>
    </contour>
  </outline>
</glyph>
<glyph name="caroncomb.alt" format="2">
  <anchor x="112" y="780" name="_topright"/>
  <outline>
    <contour>
      <point x="188" y="560" type="line"/>
      <point x="226" y="633"/>
      <point x="256" y="713"/>
      <point x="277" y="793" type="curve"/>
      <point x="115" y="799" type="line"/>
      <point x="109" y="710"/>
      <point x="95" y="639"/>
      <point x="74" y="575" type="curve"/>
    </contour>
  </outline>
</glyph>
<glyph name="caroncomb.case" format="2">
  <guideline x="239" y="756" angle="0"/>
  <guideline x="506" y="998" angle="0"/>
  <guideline x="316" y="772" angle="261"/>
  <anchor x="306" y="710" name="_top"/>
  <anchor x="344" y="950" name="top"/>
  <outline>
    <contour>
      <point x="494" y="990" type="line"/>
      <point x="266" y="860" type="line"/>
      <point x="401" y="858" type="line"/>
      <point x="204" y="990" type="line"/>
      <point x="132" y="914" type="line"/>
      <point x="269" y="761" type="line"/>
      <point x="378" y="772" type="line"/>
      <point x="545" y="914" type="line"/>
    </contour>
  </outline>
</glyph>
<glyph name="carondotaccentcomb.case" format="2">
  <advance width="473"/>
  <guideline x="179" y="577" angle="0"/>
  <guideline x="569" y="750" angle="0"/>
  <guideline x="278" y="523" angle="261"/>
  <anchor x="308" y="710" name="_top"/>
  <outline>
    <contour>
      <point x="347" y="943" type="curve" smooth="yes"/>
      <point x="409" y="943"/>
      <point x="453" y="988"/>
      <point x="453" y="1051" type="curve" smooth="yes"/>
      <point x="453" y="1106"/>
      <point x="420" y="1138"/>
      <point x="366" y="1138" type="curve" smooth="yes"/>
      <point x="305" y="1138"/>
      <point x="260" y="1094"/>
      <point x="260" y="1030" type="curve" smooth="yes"/>
      <point x="260" y="977"/>
      <point x="292" y="943"/>
    </contour>
    <component base="caroncomb.case" xOffset="-2" yOffset="-11"/>
  </outline>
</glyph>
<glyph name="carondotaccentcomb" format="2">
  <advance width="472"/>
  <guideline x="156" y="577" angle="0"/>
  <guideline x="546" y="928" angle="0"/>
  <guideline x="317" y="777" angle="261"/>
  <guideline x="517" y="777" angle="261"/>
  <guideline x="117" y="777" angle="261"/>
  <guideline x="277" y="783" angle="0"/>
  <anchor x="280" y="540" name="_top"/>
  <outline>
    <contour>
      <point x="320" y="781" type="curve" smooth="yes"/>
      <point x="382" y="781"/>
      <point x="426" y="826"/>
      <point x="426" y="889" type="curve" smooth="yes"/>
      <point x="426" y="944"/>
      <point x="393" y="976"/>
      <point x="339" y="976" type="curve" smooth="yes"/>
      <point x="278" y="976"/>
      <point x="233" y="932"/>
      <point x="233" y="868" type="curve" smooth="yes"/>
      <point x="233" y="815"/>
      <point x="265" y="781"/>
    </contour>
    <component base="caroncomb" xOffset="-2" yOffset="-18"/>
  </outline>
</glyph>
<glyph name="che-cy.loclBGR" format="2">
  <advance width="614"/>
  <anchor x="571" y="0" name="bottomright"/>
  <anchor x="290" y="200" name="center"/>
  <anchor x="342" y="540" name="top"/>
  <outline>
    <contour>
      <point x="310" y="-6" type="line"/>
      <point x="571" y="0" type="line"/>
      <point x="587" y="99" type="line"/>
      <point x="499" y="133" type="line"/>
      <point x="520" y="100" type="line"/>
      <point x="590" y="540" type="line"/>
      <point x="396" y="540" type="line"/>
      <point x="368" y="349" type="line" smooth="yes"/>
      <point x="360" y="296"/>
      <point x="317" y="271"/>
      <point x="285" y="271" type="curve" smooth="yes"/>
      <point x="253" y="271"/>
      <point x="255" y="297"/>
      <point x="259" y="321" type="curve" smooth="yes"/>
      <point x="292" y="544" type="line"/>
      <point x="46" y="536" type="line"/>
      <point x="31" y="436" type="line"/>
      <point x="124" y="393" type="line"/>
      <point x="83" y="441" type="line"/>
      <point x="56" y="253" type="line" smooth="yes"/>
      <point x="45" y="177"/>
      <point x="88" y="119"/>
      <point x="187" y="119" type="curve" smooth="yes"/>
      <point x="299" y="119"/>
      <point x="414" y="185"/>
      <point x="445" y="329" type="curve"/>
      <point x="360" y="228" type="line"/>
    </contour>
  </outline>
</glyph>
<glyph name="circumflexcomb_acutecomb.case" format="2">
  <guideline x="321" y="811" angle="261"/>
  <guideline x="273" y="756" angle="0"/>
  <guideline x="540" y="998" angle="0"/>
  <guideline x="457" y="529" angle="261"/>
  <guideline x="97" y="529" angle="261"/>
  <anchor x="305" y="710" name="_top"/>
  <anchor x="352" y="1018" name="top"/>
  <outline>
    <contour>
      <point x="515" y="860" type="line"/>
      <point x="722" y="994" type="line"/>
      <point x="647" y="1100" type="line"/>
      <point x="455" y="941" type="line"/>
    </contour>
    <component base="circumflexcomb.case" xOffset="-3" yOffset="-20"/>
  </outline>
</glyph>
<glyph name="circumflexcomb_acutecomb" format="2">
  <guideline x="270" y="581" angle="0"/>
  <guideline x="766" y="999" angle="0"/>
  <guideline x="278" y="529" angle="261"/>
  <guideline x="458" y="529" angle="261"/>
  <guideline x="98" y="529" angle="261"/>
  <anchor x="280" y="540" name="_top"/>
  <outline>
    <contour>
      <point x="485" y="738" type="line"/>
      <point x="662" y="909" type="line"/>
      <point x="568" y="999" type="line"/>
      <point x="411" y="806" type="line"/>
    </contour>
    <component base="circumflexcomb" xOffset="-5" yOffset="-35"/>
  </outline>
</glyph>
<glyph name="circumflexcomb_gravecomb.case" format="2">
  <guideline x="237" y="756" angle="0"/>
  <guideline x="504" y="998" angle="0"/>
  <guideline x="276" y="529" angle="261"/>
  <guideline x="456" y="529" angle="261"/>
  <guideline x="96" y="529" angle="261"/>
  <anchor x="305" y="710" name="_top"/>
  <anchor x="358" y="1047" name="top"/>
  <outline>
    <contour>
      <point x="538.6469999999999" y="857.2668" type="line"/>
      <point x="628.046" y="926.7366" type="line"/>
      <point x="512.5422" y="1109.5062" type="line"/>
      <point x="396.1454" y="1018.3076" type="line"/>
    </contour>
    <component base="circumflexcomb.case" xOffset="-3" yOffset="-20"/>
  </outline>
</glyph>
<glyph name="circumflexcomb_gravecomb" format="2">
  <guideline x="233" y="581" angle="0"/>
  <guideline x="716" y="1019" angle="0"/>
  <guideline x="274" y="529" angle="261"/>
  <guideline x="454" y="529" angle="261"/>
  <guideline x="94" y="529" angle="261"/>
  <anchor x="277" y="540" name="_top"/>
  <outline>
    <contour>
      <point x="492" y="742" type="line"/>
      <point x="579" y="815" type="line"/>
      <point x="457" y="994" type="line"/>
      <point x="344" y="898" type="line"/>
    </contour>
    <component base="circumflexcomb" xOffset="-8" yOffset="-35"/>
  </outline>
</glyph>
